%
M48
M72
T01C0.0130
T02C0.0320
T03C0.0400
T04C0.1260
T05C0.1300
%
T01
X13780Y17530
X12280Y18030
X12030Y19280
X12030Y19780
X12030Y20280
X12030Y20780
X12030Y21280
X12280Y21530
X13530Y20780
X13780Y20530
X13530Y20280
X13780Y20030
X13530Y19530
X14030Y19530
X14530Y19530
X14780Y19780
X15530Y20780
X16530Y22230
X17030Y22380
X17530Y22280
X17280Y21530
X17530Y20530
X17280Y19530
X16530Y17780
X18530Y16280
X19780Y17030
X20030Y17280
X19780Y17530
X20030Y17780
X19780Y18030
X20030Y18280
X19780Y18530
X20030Y18780
X19780Y19030
X19780Y19530
X20030Y19780
X19780Y20030
X20030Y20280
X19780Y20530
X20030Y20780
X19780Y21030
X20780Y21780
X21030Y23280
X22030Y23530
X24030Y23280
X24880Y22780
X24280Y21280
X23780Y19780
X23280Y18030
X25030Y16530
X26030Y17030
X26280Y17280
X26280Y18530
X26330Y19430
X26780Y16030
X25780Y15280
X22780Y15530
X21430Y11730
X20580Y11080
X20330Y11330
X24530Y10530
X26530Y11780
X21530Y19530
X19280Y22280
X18780Y22280
X19280Y23280
X17780Y24030
X16730Y24680
X17030Y25030
X17780Y25280
X17780Y25780
X16780Y26030
X15580Y24680
X14530Y23530
X14780Y23280
X14530Y23030
X13530Y22280
X13780Y21530
X12280Y24280
X10530Y26530
X16530Y23280
X21280Y27530
X22030Y26030
X23030Y27530
X24030Y26030
X24780Y26530
X25030Y27530
X26780Y27030
X26780Y24280
X27780Y24030
T02
X19780Y16280
X19780Y15280
X20530Y13780
X21530Y13780
X15280Y18030
X13280Y18030
X10030Y10780
X9030Y10780
T03
X7530Y12510
X7530Y13600
X7530Y14680
X7530Y15770
X7530Y16860
X7530Y17940
X7530Y19030
X7530Y20120
X7530Y21200
X7530Y22290
X7530Y23380
X7530Y24460
X7530Y25550
X6530Y25010
X6530Y23920
X6530Y22830
X6530Y21750
X6530Y20660
X6530Y19570
X6530Y18490
X6530Y17400
X6530Y16310
X6530Y15230
X6530Y14140
X6530Y13050
X9030Y13030
X9030Y14030
X9030Y15030
X9030Y16030
X9030Y17030
X9030Y18030
X9030Y19030
X9030Y20030
X9030Y21030
X9030Y22030
X9030Y23030
X9030Y24030
X9030Y25030
X11030Y28530
X12030Y28530
X13030Y28530
X14030Y28530
X15030Y28530
X16030Y28530
X18030Y28530
X19030Y28530
X20030Y28530
X21030Y28530
X22030Y28530
X23030Y28530
X24030Y28530
X25030Y28530
X25550Y30530
X24460Y30530
X23920Y31530
X23380Y30530
X22830Y31530
X21750Y31530
X22290Y30530
X21200Y30530
X20660Y31530
X20120Y30530
X19030Y30530
X18490Y31530
X17940Y30530
X17400Y31530
X16310Y31530
X15770Y30530
X15230Y31530
X14680Y30530
X13600Y30530
X14140Y31530
X13050Y31530
X12510Y30530
X16860Y30530
X19570Y31530
X25010Y31530
X30530Y25550
X30530Y24460
X30530Y23380
X30530Y22290
X30530Y21200
X30530Y20120
X30530Y19030
X30530Y17940
X30530Y16860
X30530Y15770
X30530Y14680
X30530Y13600
X30530Y12510
X31530Y13050
X31530Y14140
X31530Y15230
X31530Y16310
X31530Y17400
X31530Y18490
X31530Y19570
X31530Y20660
X31530Y21750
X31530Y22830
X31530Y23920
X31530Y25010
X29030Y25030
X29030Y24030
X29030Y23030
X29030Y22030
X29030Y21030
X29030Y20030
X29030Y19030
X29030Y18030
X29030Y17030
X29030Y16030
X29030Y15030
X29030Y14030
X29030Y13030
X27280Y13530
X27280Y14530
X26280Y14530
X25280Y14530
X25280Y13530
X26280Y13530
X24280Y13530
X23280Y13530
X23280Y14530
X24280Y14530
X24530Y9530
X25530Y9530
X26530Y9530
X27530Y9530
X28530Y9530
X25550Y7530
X24460Y7530
X23920Y6530
X23380Y7530
X22830Y6530
X21750Y6530
X22290Y7530
X21200Y7530
X20660Y6530
X20120Y7530
X19030Y7530
X18490Y6530
X17940Y7530
X17400Y6530
X16310Y6530
X15770Y7530
X15230Y6530
X14680Y7530
X13600Y7530
X14140Y6530
X13050Y6530
X12510Y7530
X12030Y9530
X13030Y9530
X14030Y9530
X15030Y9530
X16030Y9530
X17030Y9530
X18030Y9530
X19530Y9530
X20530Y9530
X21530Y9530
X22530Y9530
X23530Y9530
X25010Y6530
X19570Y6530
X16860Y7530
X11030Y9530
X12530Y14030
X13530Y14030
X14530Y14030
X15530Y14030
X16530Y14030
X17530Y14030
T04
X6780Y6780
X31280Y6780
X31280Y31280
X6780Y31280
T05
X7030Y28290
X9770Y31030
X28290Y31030
X31030Y28290
X31030Y9770
X28290Y7030
X9770Y7030
X7030Y9770
M30
