G75*
%MOIN*%
%OFA0B0*%
%FSLAX24Y24*%
%IPPOS*%
%LPD*%
%AMOC8*
5,1,8,0,0,1.08239X$1,22.5*
%
%ADD10C,0.0000*%
%ADD11C,0.0050*%
%ADD12C,0.0020*%
D10*
X005030Y005030D02*
X005030Y033026D01*
X032900Y033026D01*
X032900Y005030D01*
X005030Y005030D01*
X006150Y006780D02*
X006152Y006830D01*
X006158Y006880D01*
X006168Y006929D01*
X006182Y006977D01*
X006199Y007024D01*
X006220Y007069D01*
X006245Y007113D01*
X006273Y007154D01*
X006305Y007193D01*
X006339Y007230D01*
X006376Y007264D01*
X006416Y007294D01*
X006458Y007321D01*
X006502Y007345D01*
X006548Y007366D01*
X006595Y007382D01*
X006643Y007395D01*
X006693Y007404D01*
X006742Y007409D01*
X006793Y007410D01*
X006843Y007407D01*
X006892Y007400D01*
X006941Y007389D01*
X006989Y007374D01*
X007035Y007356D01*
X007080Y007334D01*
X007123Y007308D01*
X007164Y007279D01*
X007203Y007247D01*
X007239Y007212D01*
X007271Y007174D01*
X007301Y007134D01*
X007328Y007091D01*
X007351Y007047D01*
X007370Y007001D01*
X007386Y006953D01*
X007398Y006904D01*
X007406Y006855D01*
X007410Y006805D01*
X007410Y006755D01*
X007406Y006705D01*
X007398Y006656D01*
X007386Y006607D01*
X007370Y006559D01*
X007351Y006513D01*
X007328Y006469D01*
X007301Y006426D01*
X007271Y006386D01*
X007239Y006348D01*
X007203Y006313D01*
X007164Y006281D01*
X007123Y006252D01*
X007080Y006226D01*
X007035Y006204D01*
X006989Y006186D01*
X006941Y006171D01*
X006892Y006160D01*
X006843Y006153D01*
X006793Y006150D01*
X006742Y006151D01*
X006693Y006156D01*
X006643Y006165D01*
X006595Y006178D01*
X006548Y006194D01*
X006502Y006215D01*
X006458Y006239D01*
X006416Y006266D01*
X006376Y006296D01*
X006339Y006330D01*
X006305Y006367D01*
X006273Y006406D01*
X006245Y006447D01*
X006220Y006491D01*
X006199Y006536D01*
X006182Y006583D01*
X006168Y006631D01*
X006158Y006680D01*
X006152Y006730D01*
X006150Y006780D01*
X006380Y009770D02*
X006382Y009820D01*
X006388Y009870D01*
X006398Y009920D01*
X006411Y009968D01*
X006428Y010016D01*
X006449Y010062D01*
X006473Y010106D01*
X006501Y010148D01*
X006532Y010188D01*
X006566Y010225D01*
X006603Y010260D01*
X006642Y010291D01*
X006683Y010320D01*
X006727Y010345D01*
X006773Y010367D01*
X006820Y010385D01*
X006868Y010399D01*
X006917Y010410D01*
X006967Y010417D01*
X007017Y010420D01*
X007068Y010419D01*
X007118Y010414D01*
X007168Y010405D01*
X007216Y010393D01*
X007264Y010376D01*
X007310Y010356D01*
X007355Y010333D01*
X007398Y010306D01*
X007438Y010276D01*
X007476Y010243D01*
X007511Y010207D01*
X007544Y010168D01*
X007573Y010127D01*
X007599Y010084D01*
X007622Y010039D01*
X007641Y009992D01*
X007656Y009944D01*
X007668Y009895D01*
X007676Y009845D01*
X007680Y009795D01*
X007680Y009745D01*
X007676Y009695D01*
X007668Y009645D01*
X007656Y009596D01*
X007641Y009548D01*
X007622Y009501D01*
X007599Y009456D01*
X007573Y009413D01*
X007544Y009372D01*
X007511Y009333D01*
X007476Y009297D01*
X007438Y009264D01*
X007398Y009234D01*
X007355Y009207D01*
X007310Y009184D01*
X007264Y009164D01*
X007216Y009147D01*
X007168Y009135D01*
X007118Y009126D01*
X007068Y009121D01*
X007017Y009120D01*
X006967Y009123D01*
X006917Y009130D01*
X006868Y009141D01*
X006820Y009155D01*
X006773Y009173D01*
X006727Y009195D01*
X006683Y009220D01*
X006642Y009249D01*
X006603Y009280D01*
X006566Y009315D01*
X006532Y009352D01*
X006501Y009392D01*
X006473Y009434D01*
X006449Y009478D01*
X006428Y009524D01*
X006411Y009572D01*
X006398Y009620D01*
X006388Y009670D01*
X006382Y009720D01*
X006380Y009770D01*
X009120Y007030D02*
X009122Y007080D01*
X009128Y007130D01*
X009138Y007180D01*
X009151Y007228D01*
X009168Y007276D01*
X009189Y007322D01*
X009213Y007366D01*
X009241Y007408D01*
X009272Y007448D01*
X009306Y007485D01*
X009343Y007520D01*
X009382Y007551D01*
X009423Y007580D01*
X009467Y007605D01*
X009513Y007627D01*
X009560Y007645D01*
X009608Y007659D01*
X009657Y007670D01*
X009707Y007677D01*
X009757Y007680D01*
X009808Y007679D01*
X009858Y007674D01*
X009908Y007665D01*
X009956Y007653D01*
X010004Y007636D01*
X010050Y007616D01*
X010095Y007593D01*
X010138Y007566D01*
X010178Y007536D01*
X010216Y007503D01*
X010251Y007467D01*
X010284Y007428D01*
X010313Y007387D01*
X010339Y007344D01*
X010362Y007299D01*
X010381Y007252D01*
X010396Y007204D01*
X010408Y007155D01*
X010416Y007105D01*
X010420Y007055D01*
X010420Y007005D01*
X010416Y006955D01*
X010408Y006905D01*
X010396Y006856D01*
X010381Y006808D01*
X010362Y006761D01*
X010339Y006716D01*
X010313Y006673D01*
X010284Y006632D01*
X010251Y006593D01*
X010216Y006557D01*
X010178Y006524D01*
X010138Y006494D01*
X010095Y006467D01*
X010050Y006444D01*
X010004Y006424D01*
X009956Y006407D01*
X009908Y006395D01*
X009858Y006386D01*
X009808Y006381D01*
X009757Y006380D01*
X009707Y006383D01*
X009657Y006390D01*
X009608Y006401D01*
X009560Y006415D01*
X009513Y006433D01*
X009467Y006455D01*
X009423Y006480D01*
X009382Y006509D01*
X009343Y006540D01*
X009306Y006575D01*
X009272Y006612D01*
X009241Y006652D01*
X009213Y006694D01*
X009189Y006738D01*
X009168Y006784D01*
X009151Y006832D01*
X009138Y006880D01*
X009128Y006930D01*
X009122Y006980D01*
X009120Y007030D01*
X027640Y007030D02*
X027642Y007080D01*
X027648Y007130D01*
X027658Y007180D01*
X027671Y007228D01*
X027688Y007276D01*
X027709Y007322D01*
X027733Y007366D01*
X027761Y007408D01*
X027792Y007448D01*
X027826Y007485D01*
X027863Y007520D01*
X027902Y007551D01*
X027943Y007580D01*
X027987Y007605D01*
X028033Y007627D01*
X028080Y007645D01*
X028128Y007659D01*
X028177Y007670D01*
X028227Y007677D01*
X028277Y007680D01*
X028328Y007679D01*
X028378Y007674D01*
X028428Y007665D01*
X028476Y007653D01*
X028524Y007636D01*
X028570Y007616D01*
X028615Y007593D01*
X028658Y007566D01*
X028698Y007536D01*
X028736Y007503D01*
X028771Y007467D01*
X028804Y007428D01*
X028833Y007387D01*
X028859Y007344D01*
X028882Y007299D01*
X028901Y007252D01*
X028916Y007204D01*
X028928Y007155D01*
X028936Y007105D01*
X028940Y007055D01*
X028940Y007005D01*
X028936Y006955D01*
X028928Y006905D01*
X028916Y006856D01*
X028901Y006808D01*
X028882Y006761D01*
X028859Y006716D01*
X028833Y006673D01*
X028804Y006632D01*
X028771Y006593D01*
X028736Y006557D01*
X028698Y006524D01*
X028658Y006494D01*
X028615Y006467D01*
X028570Y006444D01*
X028524Y006424D01*
X028476Y006407D01*
X028428Y006395D01*
X028378Y006386D01*
X028328Y006381D01*
X028277Y006380D01*
X028227Y006383D01*
X028177Y006390D01*
X028128Y006401D01*
X028080Y006415D01*
X028033Y006433D01*
X027987Y006455D01*
X027943Y006480D01*
X027902Y006509D01*
X027863Y006540D01*
X027826Y006575D01*
X027792Y006612D01*
X027761Y006652D01*
X027733Y006694D01*
X027709Y006738D01*
X027688Y006784D01*
X027671Y006832D01*
X027658Y006880D01*
X027648Y006930D01*
X027642Y006980D01*
X027640Y007030D01*
X030650Y006780D02*
X030652Y006830D01*
X030658Y006880D01*
X030668Y006929D01*
X030682Y006977D01*
X030699Y007024D01*
X030720Y007069D01*
X030745Y007113D01*
X030773Y007154D01*
X030805Y007193D01*
X030839Y007230D01*
X030876Y007264D01*
X030916Y007294D01*
X030958Y007321D01*
X031002Y007345D01*
X031048Y007366D01*
X031095Y007382D01*
X031143Y007395D01*
X031193Y007404D01*
X031242Y007409D01*
X031293Y007410D01*
X031343Y007407D01*
X031392Y007400D01*
X031441Y007389D01*
X031489Y007374D01*
X031535Y007356D01*
X031580Y007334D01*
X031623Y007308D01*
X031664Y007279D01*
X031703Y007247D01*
X031739Y007212D01*
X031771Y007174D01*
X031801Y007134D01*
X031828Y007091D01*
X031851Y007047D01*
X031870Y007001D01*
X031886Y006953D01*
X031898Y006904D01*
X031906Y006855D01*
X031910Y006805D01*
X031910Y006755D01*
X031906Y006705D01*
X031898Y006656D01*
X031886Y006607D01*
X031870Y006559D01*
X031851Y006513D01*
X031828Y006469D01*
X031801Y006426D01*
X031771Y006386D01*
X031739Y006348D01*
X031703Y006313D01*
X031664Y006281D01*
X031623Y006252D01*
X031580Y006226D01*
X031535Y006204D01*
X031489Y006186D01*
X031441Y006171D01*
X031392Y006160D01*
X031343Y006153D01*
X031293Y006150D01*
X031242Y006151D01*
X031193Y006156D01*
X031143Y006165D01*
X031095Y006178D01*
X031048Y006194D01*
X031002Y006215D01*
X030958Y006239D01*
X030916Y006266D01*
X030876Y006296D01*
X030839Y006330D01*
X030805Y006367D01*
X030773Y006406D01*
X030745Y006447D01*
X030720Y006491D01*
X030699Y006536D01*
X030682Y006583D01*
X030668Y006631D01*
X030658Y006680D01*
X030652Y006730D01*
X030650Y006780D01*
X030380Y009770D02*
X030382Y009820D01*
X030388Y009870D01*
X030398Y009920D01*
X030411Y009968D01*
X030428Y010016D01*
X030449Y010062D01*
X030473Y010106D01*
X030501Y010148D01*
X030532Y010188D01*
X030566Y010225D01*
X030603Y010260D01*
X030642Y010291D01*
X030683Y010320D01*
X030727Y010345D01*
X030773Y010367D01*
X030820Y010385D01*
X030868Y010399D01*
X030917Y010410D01*
X030967Y010417D01*
X031017Y010420D01*
X031068Y010419D01*
X031118Y010414D01*
X031168Y010405D01*
X031216Y010393D01*
X031264Y010376D01*
X031310Y010356D01*
X031355Y010333D01*
X031398Y010306D01*
X031438Y010276D01*
X031476Y010243D01*
X031511Y010207D01*
X031544Y010168D01*
X031573Y010127D01*
X031599Y010084D01*
X031622Y010039D01*
X031641Y009992D01*
X031656Y009944D01*
X031668Y009895D01*
X031676Y009845D01*
X031680Y009795D01*
X031680Y009745D01*
X031676Y009695D01*
X031668Y009645D01*
X031656Y009596D01*
X031641Y009548D01*
X031622Y009501D01*
X031599Y009456D01*
X031573Y009413D01*
X031544Y009372D01*
X031511Y009333D01*
X031476Y009297D01*
X031438Y009264D01*
X031398Y009234D01*
X031355Y009207D01*
X031310Y009184D01*
X031264Y009164D01*
X031216Y009147D01*
X031168Y009135D01*
X031118Y009126D01*
X031068Y009121D01*
X031017Y009120D01*
X030967Y009123D01*
X030917Y009130D01*
X030868Y009141D01*
X030820Y009155D01*
X030773Y009173D01*
X030727Y009195D01*
X030683Y009220D01*
X030642Y009249D01*
X030603Y009280D01*
X030566Y009315D01*
X030532Y009352D01*
X030501Y009392D01*
X030473Y009434D01*
X030449Y009478D01*
X030428Y009524D01*
X030411Y009572D01*
X030398Y009620D01*
X030388Y009670D01*
X030382Y009720D01*
X030380Y009770D01*
X030380Y028290D02*
X030382Y028340D01*
X030388Y028390D01*
X030398Y028440D01*
X030411Y028488D01*
X030428Y028536D01*
X030449Y028582D01*
X030473Y028626D01*
X030501Y028668D01*
X030532Y028708D01*
X030566Y028745D01*
X030603Y028780D01*
X030642Y028811D01*
X030683Y028840D01*
X030727Y028865D01*
X030773Y028887D01*
X030820Y028905D01*
X030868Y028919D01*
X030917Y028930D01*
X030967Y028937D01*
X031017Y028940D01*
X031068Y028939D01*
X031118Y028934D01*
X031168Y028925D01*
X031216Y028913D01*
X031264Y028896D01*
X031310Y028876D01*
X031355Y028853D01*
X031398Y028826D01*
X031438Y028796D01*
X031476Y028763D01*
X031511Y028727D01*
X031544Y028688D01*
X031573Y028647D01*
X031599Y028604D01*
X031622Y028559D01*
X031641Y028512D01*
X031656Y028464D01*
X031668Y028415D01*
X031676Y028365D01*
X031680Y028315D01*
X031680Y028265D01*
X031676Y028215D01*
X031668Y028165D01*
X031656Y028116D01*
X031641Y028068D01*
X031622Y028021D01*
X031599Y027976D01*
X031573Y027933D01*
X031544Y027892D01*
X031511Y027853D01*
X031476Y027817D01*
X031438Y027784D01*
X031398Y027754D01*
X031355Y027727D01*
X031310Y027704D01*
X031264Y027684D01*
X031216Y027667D01*
X031168Y027655D01*
X031118Y027646D01*
X031068Y027641D01*
X031017Y027640D01*
X030967Y027643D01*
X030917Y027650D01*
X030868Y027661D01*
X030820Y027675D01*
X030773Y027693D01*
X030727Y027715D01*
X030683Y027740D01*
X030642Y027769D01*
X030603Y027800D01*
X030566Y027835D01*
X030532Y027872D01*
X030501Y027912D01*
X030473Y027954D01*
X030449Y027998D01*
X030428Y028044D01*
X030411Y028092D01*
X030398Y028140D01*
X030388Y028190D01*
X030382Y028240D01*
X030380Y028290D01*
X027640Y031030D02*
X027642Y031080D01*
X027648Y031130D01*
X027658Y031180D01*
X027671Y031228D01*
X027688Y031276D01*
X027709Y031322D01*
X027733Y031366D01*
X027761Y031408D01*
X027792Y031448D01*
X027826Y031485D01*
X027863Y031520D01*
X027902Y031551D01*
X027943Y031580D01*
X027987Y031605D01*
X028033Y031627D01*
X028080Y031645D01*
X028128Y031659D01*
X028177Y031670D01*
X028227Y031677D01*
X028277Y031680D01*
X028328Y031679D01*
X028378Y031674D01*
X028428Y031665D01*
X028476Y031653D01*
X028524Y031636D01*
X028570Y031616D01*
X028615Y031593D01*
X028658Y031566D01*
X028698Y031536D01*
X028736Y031503D01*
X028771Y031467D01*
X028804Y031428D01*
X028833Y031387D01*
X028859Y031344D01*
X028882Y031299D01*
X028901Y031252D01*
X028916Y031204D01*
X028928Y031155D01*
X028936Y031105D01*
X028940Y031055D01*
X028940Y031005D01*
X028936Y030955D01*
X028928Y030905D01*
X028916Y030856D01*
X028901Y030808D01*
X028882Y030761D01*
X028859Y030716D01*
X028833Y030673D01*
X028804Y030632D01*
X028771Y030593D01*
X028736Y030557D01*
X028698Y030524D01*
X028658Y030494D01*
X028615Y030467D01*
X028570Y030444D01*
X028524Y030424D01*
X028476Y030407D01*
X028428Y030395D01*
X028378Y030386D01*
X028328Y030381D01*
X028277Y030380D01*
X028227Y030383D01*
X028177Y030390D01*
X028128Y030401D01*
X028080Y030415D01*
X028033Y030433D01*
X027987Y030455D01*
X027943Y030480D01*
X027902Y030509D01*
X027863Y030540D01*
X027826Y030575D01*
X027792Y030612D01*
X027761Y030652D01*
X027733Y030694D01*
X027709Y030738D01*
X027688Y030784D01*
X027671Y030832D01*
X027658Y030880D01*
X027648Y030930D01*
X027642Y030980D01*
X027640Y031030D01*
X030650Y031280D02*
X030652Y031330D01*
X030658Y031380D01*
X030668Y031429D01*
X030682Y031477D01*
X030699Y031524D01*
X030720Y031569D01*
X030745Y031613D01*
X030773Y031654D01*
X030805Y031693D01*
X030839Y031730D01*
X030876Y031764D01*
X030916Y031794D01*
X030958Y031821D01*
X031002Y031845D01*
X031048Y031866D01*
X031095Y031882D01*
X031143Y031895D01*
X031193Y031904D01*
X031242Y031909D01*
X031293Y031910D01*
X031343Y031907D01*
X031392Y031900D01*
X031441Y031889D01*
X031489Y031874D01*
X031535Y031856D01*
X031580Y031834D01*
X031623Y031808D01*
X031664Y031779D01*
X031703Y031747D01*
X031739Y031712D01*
X031771Y031674D01*
X031801Y031634D01*
X031828Y031591D01*
X031851Y031547D01*
X031870Y031501D01*
X031886Y031453D01*
X031898Y031404D01*
X031906Y031355D01*
X031910Y031305D01*
X031910Y031255D01*
X031906Y031205D01*
X031898Y031156D01*
X031886Y031107D01*
X031870Y031059D01*
X031851Y031013D01*
X031828Y030969D01*
X031801Y030926D01*
X031771Y030886D01*
X031739Y030848D01*
X031703Y030813D01*
X031664Y030781D01*
X031623Y030752D01*
X031580Y030726D01*
X031535Y030704D01*
X031489Y030686D01*
X031441Y030671D01*
X031392Y030660D01*
X031343Y030653D01*
X031293Y030650D01*
X031242Y030651D01*
X031193Y030656D01*
X031143Y030665D01*
X031095Y030678D01*
X031048Y030694D01*
X031002Y030715D01*
X030958Y030739D01*
X030916Y030766D01*
X030876Y030796D01*
X030839Y030830D01*
X030805Y030867D01*
X030773Y030906D01*
X030745Y030947D01*
X030720Y030991D01*
X030699Y031036D01*
X030682Y031083D01*
X030668Y031131D01*
X030658Y031180D01*
X030652Y031230D01*
X030650Y031280D01*
X009120Y031030D02*
X009122Y031080D01*
X009128Y031130D01*
X009138Y031180D01*
X009151Y031228D01*
X009168Y031276D01*
X009189Y031322D01*
X009213Y031366D01*
X009241Y031408D01*
X009272Y031448D01*
X009306Y031485D01*
X009343Y031520D01*
X009382Y031551D01*
X009423Y031580D01*
X009467Y031605D01*
X009513Y031627D01*
X009560Y031645D01*
X009608Y031659D01*
X009657Y031670D01*
X009707Y031677D01*
X009757Y031680D01*
X009808Y031679D01*
X009858Y031674D01*
X009908Y031665D01*
X009956Y031653D01*
X010004Y031636D01*
X010050Y031616D01*
X010095Y031593D01*
X010138Y031566D01*
X010178Y031536D01*
X010216Y031503D01*
X010251Y031467D01*
X010284Y031428D01*
X010313Y031387D01*
X010339Y031344D01*
X010362Y031299D01*
X010381Y031252D01*
X010396Y031204D01*
X010408Y031155D01*
X010416Y031105D01*
X010420Y031055D01*
X010420Y031005D01*
X010416Y030955D01*
X010408Y030905D01*
X010396Y030856D01*
X010381Y030808D01*
X010362Y030761D01*
X010339Y030716D01*
X010313Y030673D01*
X010284Y030632D01*
X010251Y030593D01*
X010216Y030557D01*
X010178Y030524D01*
X010138Y030494D01*
X010095Y030467D01*
X010050Y030444D01*
X010004Y030424D01*
X009956Y030407D01*
X009908Y030395D01*
X009858Y030386D01*
X009808Y030381D01*
X009757Y030380D01*
X009707Y030383D01*
X009657Y030390D01*
X009608Y030401D01*
X009560Y030415D01*
X009513Y030433D01*
X009467Y030455D01*
X009423Y030480D01*
X009382Y030509D01*
X009343Y030540D01*
X009306Y030575D01*
X009272Y030612D01*
X009241Y030652D01*
X009213Y030694D01*
X009189Y030738D01*
X009168Y030784D01*
X009151Y030832D01*
X009138Y030880D01*
X009128Y030930D01*
X009122Y030980D01*
X009120Y031030D01*
X006150Y031280D02*
X006152Y031330D01*
X006158Y031380D01*
X006168Y031429D01*
X006182Y031477D01*
X006199Y031524D01*
X006220Y031569D01*
X006245Y031613D01*
X006273Y031654D01*
X006305Y031693D01*
X006339Y031730D01*
X006376Y031764D01*
X006416Y031794D01*
X006458Y031821D01*
X006502Y031845D01*
X006548Y031866D01*
X006595Y031882D01*
X006643Y031895D01*
X006693Y031904D01*
X006742Y031909D01*
X006793Y031910D01*
X006843Y031907D01*
X006892Y031900D01*
X006941Y031889D01*
X006989Y031874D01*
X007035Y031856D01*
X007080Y031834D01*
X007123Y031808D01*
X007164Y031779D01*
X007203Y031747D01*
X007239Y031712D01*
X007271Y031674D01*
X007301Y031634D01*
X007328Y031591D01*
X007351Y031547D01*
X007370Y031501D01*
X007386Y031453D01*
X007398Y031404D01*
X007406Y031355D01*
X007410Y031305D01*
X007410Y031255D01*
X007406Y031205D01*
X007398Y031156D01*
X007386Y031107D01*
X007370Y031059D01*
X007351Y031013D01*
X007328Y030969D01*
X007301Y030926D01*
X007271Y030886D01*
X007239Y030848D01*
X007203Y030813D01*
X007164Y030781D01*
X007123Y030752D01*
X007080Y030726D01*
X007035Y030704D01*
X006989Y030686D01*
X006941Y030671D01*
X006892Y030660D01*
X006843Y030653D01*
X006793Y030650D01*
X006742Y030651D01*
X006693Y030656D01*
X006643Y030665D01*
X006595Y030678D01*
X006548Y030694D01*
X006502Y030715D01*
X006458Y030739D01*
X006416Y030766D01*
X006376Y030796D01*
X006339Y030830D01*
X006305Y030867D01*
X006273Y030906D01*
X006245Y030947D01*
X006220Y030991D01*
X006199Y031036D01*
X006182Y031083D01*
X006168Y031131D01*
X006158Y031180D01*
X006152Y031230D01*
X006150Y031280D01*
X006380Y028290D02*
X006382Y028340D01*
X006388Y028390D01*
X006398Y028440D01*
X006411Y028488D01*
X006428Y028536D01*
X006449Y028582D01*
X006473Y028626D01*
X006501Y028668D01*
X006532Y028708D01*
X006566Y028745D01*
X006603Y028780D01*
X006642Y028811D01*
X006683Y028840D01*
X006727Y028865D01*
X006773Y028887D01*
X006820Y028905D01*
X006868Y028919D01*
X006917Y028930D01*
X006967Y028937D01*
X007017Y028940D01*
X007068Y028939D01*
X007118Y028934D01*
X007168Y028925D01*
X007216Y028913D01*
X007264Y028896D01*
X007310Y028876D01*
X007355Y028853D01*
X007398Y028826D01*
X007438Y028796D01*
X007476Y028763D01*
X007511Y028727D01*
X007544Y028688D01*
X007573Y028647D01*
X007599Y028604D01*
X007622Y028559D01*
X007641Y028512D01*
X007656Y028464D01*
X007668Y028415D01*
X007676Y028365D01*
X007680Y028315D01*
X007680Y028265D01*
X007676Y028215D01*
X007668Y028165D01*
X007656Y028116D01*
X007641Y028068D01*
X007622Y028021D01*
X007599Y027976D01*
X007573Y027933D01*
X007544Y027892D01*
X007511Y027853D01*
X007476Y027817D01*
X007438Y027784D01*
X007398Y027754D01*
X007355Y027727D01*
X007310Y027704D01*
X007264Y027684D01*
X007216Y027667D01*
X007168Y027655D01*
X007118Y027646D01*
X007068Y027641D01*
X007017Y027640D01*
X006967Y027643D01*
X006917Y027650D01*
X006868Y027661D01*
X006820Y027675D01*
X006773Y027693D01*
X006727Y027715D01*
X006683Y027740D01*
X006642Y027769D01*
X006603Y027800D01*
X006566Y027835D01*
X006532Y027872D01*
X006501Y027912D01*
X006473Y027954D01*
X006449Y027998D01*
X006428Y028044D01*
X006411Y028092D01*
X006398Y028140D01*
X006388Y028190D01*
X006382Y028240D01*
X006380Y028290D01*
D11*
X021333Y021439D02*
X021333Y016518D01*
X026451Y016518D01*
X026451Y021636D01*
X021530Y021636D01*
X021333Y021439D01*
D12*
X015270Y021405D02*
X015270Y021328D01*
X015232Y021290D01*
X015078Y021290D01*
X015040Y021328D01*
X015040Y021405D01*
X015078Y021443D01*
X015078Y021520D02*
X015040Y021559D01*
X015040Y021635D01*
X015078Y021674D01*
X015117Y021674D01*
X015155Y021635D01*
X015155Y021597D01*
X015155Y021635D02*
X015193Y021674D01*
X015232Y021674D01*
X015270Y021635D01*
X015270Y021559D01*
X015232Y021520D01*
X015232Y021443D02*
X015270Y021405D01*
M02*
