G75*
%MOIN*%
%OFA0B0*%
%FSLAX24Y24*%
%IPPOS*%
%LPD*%
%AMOC8*
5,1,8,0,0,1.08239X$1,22.5*
%
%ADD10C,0.0000*%
%ADD11C,0.0020*%
%ADD12C,0.0060*%
%ADD13C,0.0030*%
%ADD14C,0.0040*%
%ADD15C,0.0050*%
%ADD16R,2.0900X0.0200*%
%ADD17R,1.6000X0.0300*%
%ADD18R,0.0320X0.2850*%
%ADD19R,0.0320X0.1850*%
%ADD20R,0.0200X2.0900*%
%ADD21R,0.0300X1.6000*%
%ADD22R,0.2850X0.0320*%
%ADD23R,0.1850X0.0320*%
%ADD24C,0.0080*%
%ADD25C,0.0010*%
%ADD26C,0.0120*%
D10*
X002000Y005030D02*
X002000Y033026D01*
X029870Y033026D01*
X029870Y005030D01*
X002000Y005030D01*
X003120Y006780D02*
X003122Y006830D01*
X003128Y006880D01*
X003138Y006929D01*
X003152Y006977D01*
X003169Y007024D01*
X003190Y007069D01*
X003215Y007113D01*
X003243Y007154D01*
X003275Y007193D01*
X003309Y007230D01*
X003346Y007264D01*
X003386Y007294D01*
X003428Y007321D01*
X003472Y007345D01*
X003518Y007366D01*
X003565Y007382D01*
X003613Y007395D01*
X003663Y007404D01*
X003712Y007409D01*
X003763Y007410D01*
X003813Y007407D01*
X003862Y007400D01*
X003911Y007389D01*
X003959Y007374D01*
X004005Y007356D01*
X004050Y007334D01*
X004093Y007308D01*
X004134Y007279D01*
X004173Y007247D01*
X004209Y007212D01*
X004241Y007174D01*
X004271Y007134D01*
X004298Y007091D01*
X004321Y007047D01*
X004340Y007001D01*
X004356Y006953D01*
X004368Y006904D01*
X004376Y006855D01*
X004380Y006805D01*
X004380Y006755D01*
X004376Y006705D01*
X004368Y006656D01*
X004356Y006607D01*
X004340Y006559D01*
X004321Y006513D01*
X004298Y006469D01*
X004271Y006426D01*
X004241Y006386D01*
X004209Y006348D01*
X004173Y006313D01*
X004134Y006281D01*
X004093Y006252D01*
X004050Y006226D01*
X004005Y006204D01*
X003959Y006186D01*
X003911Y006171D01*
X003862Y006160D01*
X003813Y006153D01*
X003763Y006150D01*
X003712Y006151D01*
X003663Y006156D01*
X003613Y006165D01*
X003565Y006178D01*
X003518Y006194D01*
X003472Y006215D01*
X003428Y006239D01*
X003386Y006266D01*
X003346Y006296D01*
X003309Y006330D01*
X003275Y006367D01*
X003243Y006406D01*
X003215Y006447D01*
X003190Y006491D01*
X003169Y006536D01*
X003152Y006583D01*
X003138Y006631D01*
X003128Y006680D01*
X003122Y006730D01*
X003120Y006780D01*
X006090Y007030D02*
X006092Y007080D01*
X006098Y007130D01*
X006108Y007180D01*
X006121Y007228D01*
X006138Y007276D01*
X006159Y007322D01*
X006183Y007366D01*
X006211Y007408D01*
X006242Y007448D01*
X006276Y007485D01*
X006313Y007520D01*
X006352Y007551D01*
X006393Y007580D01*
X006437Y007605D01*
X006483Y007627D01*
X006530Y007645D01*
X006578Y007659D01*
X006627Y007670D01*
X006677Y007677D01*
X006727Y007680D01*
X006778Y007679D01*
X006828Y007674D01*
X006878Y007665D01*
X006926Y007653D01*
X006974Y007636D01*
X007020Y007616D01*
X007065Y007593D01*
X007108Y007566D01*
X007148Y007536D01*
X007186Y007503D01*
X007221Y007467D01*
X007254Y007428D01*
X007283Y007387D01*
X007309Y007344D01*
X007332Y007299D01*
X007351Y007252D01*
X007366Y007204D01*
X007378Y007155D01*
X007386Y007105D01*
X007390Y007055D01*
X007390Y007005D01*
X007386Y006955D01*
X007378Y006905D01*
X007366Y006856D01*
X007351Y006808D01*
X007332Y006761D01*
X007309Y006716D01*
X007283Y006673D01*
X007254Y006632D01*
X007221Y006593D01*
X007186Y006557D01*
X007148Y006524D01*
X007108Y006494D01*
X007065Y006467D01*
X007020Y006444D01*
X006974Y006424D01*
X006926Y006407D01*
X006878Y006395D01*
X006828Y006386D01*
X006778Y006381D01*
X006727Y006380D01*
X006677Y006383D01*
X006627Y006390D01*
X006578Y006401D01*
X006530Y006415D01*
X006483Y006433D01*
X006437Y006455D01*
X006393Y006480D01*
X006352Y006509D01*
X006313Y006540D01*
X006276Y006575D01*
X006242Y006612D01*
X006211Y006652D01*
X006183Y006694D01*
X006159Y006738D01*
X006138Y006784D01*
X006121Y006832D01*
X006108Y006880D01*
X006098Y006930D01*
X006092Y006980D01*
X006090Y007030D01*
X024610Y007030D02*
X024612Y007080D01*
X024618Y007130D01*
X024628Y007180D01*
X024641Y007228D01*
X024658Y007276D01*
X024679Y007322D01*
X024703Y007366D01*
X024731Y007408D01*
X024762Y007448D01*
X024796Y007485D01*
X024833Y007520D01*
X024872Y007551D01*
X024913Y007580D01*
X024957Y007605D01*
X025003Y007627D01*
X025050Y007645D01*
X025098Y007659D01*
X025147Y007670D01*
X025197Y007677D01*
X025247Y007680D01*
X025298Y007679D01*
X025348Y007674D01*
X025398Y007665D01*
X025446Y007653D01*
X025494Y007636D01*
X025540Y007616D01*
X025585Y007593D01*
X025628Y007566D01*
X025668Y007536D01*
X025706Y007503D01*
X025741Y007467D01*
X025774Y007428D01*
X025803Y007387D01*
X025829Y007344D01*
X025852Y007299D01*
X025871Y007252D01*
X025886Y007204D01*
X025898Y007155D01*
X025906Y007105D01*
X025910Y007055D01*
X025910Y007005D01*
X025906Y006955D01*
X025898Y006905D01*
X025886Y006856D01*
X025871Y006808D01*
X025852Y006761D01*
X025829Y006716D01*
X025803Y006673D01*
X025774Y006632D01*
X025741Y006593D01*
X025706Y006557D01*
X025668Y006524D01*
X025628Y006494D01*
X025585Y006467D01*
X025540Y006444D01*
X025494Y006424D01*
X025446Y006407D01*
X025398Y006395D01*
X025348Y006386D01*
X025298Y006381D01*
X025247Y006380D01*
X025197Y006383D01*
X025147Y006390D01*
X025098Y006401D01*
X025050Y006415D01*
X025003Y006433D01*
X024957Y006455D01*
X024913Y006480D01*
X024872Y006509D01*
X024833Y006540D01*
X024796Y006575D01*
X024762Y006612D01*
X024731Y006652D01*
X024703Y006694D01*
X024679Y006738D01*
X024658Y006784D01*
X024641Y006832D01*
X024628Y006880D01*
X024618Y006930D01*
X024612Y006980D01*
X024610Y007030D01*
X027350Y009770D02*
X027352Y009820D01*
X027358Y009870D01*
X027368Y009920D01*
X027381Y009968D01*
X027398Y010016D01*
X027419Y010062D01*
X027443Y010106D01*
X027471Y010148D01*
X027502Y010188D01*
X027536Y010225D01*
X027573Y010260D01*
X027612Y010291D01*
X027653Y010320D01*
X027697Y010345D01*
X027743Y010367D01*
X027790Y010385D01*
X027838Y010399D01*
X027887Y010410D01*
X027937Y010417D01*
X027987Y010420D01*
X028038Y010419D01*
X028088Y010414D01*
X028138Y010405D01*
X028186Y010393D01*
X028234Y010376D01*
X028280Y010356D01*
X028325Y010333D01*
X028368Y010306D01*
X028408Y010276D01*
X028446Y010243D01*
X028481Y010207D01*
X028514Y010168D01*
X028543Y010127D01*
X028569Y010084D01*
X028592Y010039D01*
X028611Y009992D01*
X028626Y009944D01*
X028638Y009895D01*
X028646Y009845D01*
X028650Y009795D01*
X028650Y009745D01*
X028646Y009695D01*
X028638Y009645D01*
X028626Y009596D01*
X028611Y009548D01*
X028592Y009501D01*
X028569Y009456D01*
X028543Y009413D01*
X028514Y009372D01*
X028481Y009333D01*
X028446Y009297D01*
X028408Y009264D01*
X028368Y009234D01*
X028325Y009207D01*
X028280Y009184D01*
X028234Y009164D01*
X028186Y009147D01*
X028138Y009135D01*
X028088Y009126D01*
X028038Y009121D01*
X027987Y009120D01*
X027937Y009123D01*
X027887Y009130D01*
X027838Y009141D01*
X027790Y009155D01*
X027743Y009173D01*
X027697Y009195D01*
X027653Y009220D01*
X027612Y009249D01*
X027573Y009280D01*
X027536Y009315D01*
X027502Y009352D01*
X027471Y009392D01*
X027443Y009434D01*
X027419Y009478D01*
X027398Y009524D01*
X027381Y009572D01*
X027368Y009620D01*
X027358Y009670D01*
X027352Y009720D01*
X027350Y009770D01*
X027620Y006780D02*
X027622Y006830D01*
X027628Y006880D01*
X027638Y006929D01*
X027652Y006977D01*
X027669Y007024D01*
X027690Y007069D01*
X027715Y007113D01*
X027743Y007154D01*
X027775Y007193D01*
X027809Y007230D01*
X027846Y007264D01*
X027886Y007294D01*
X027928Y007321D01*
X027972Y007345D01*
X028018Y007366D01*
X028065Y007382D01*
X028113Y007395D01*
X028163Y007404D01*
X028212Y007409D01*
X028263Y007410D01*
X028313Y007407D01*
X028362Y007400D01*
X028411Y007389D01*
X028459Y007374D01*
X028505Y007356D01*
X028550Y007334D01*
X028593Y007308D01*
X028634Y007279D01*
X028673Y007247D01*
X028709Y007212D01*
X028741Y007174D01*
X028771Y007134D01*
X028798Y007091D01*
X028821Y007047D01*
X028840Y007001D01*
X028856Y006953D01*
X028868Y006904D01*
X028876Y006855D01*
X028880Y006805D01*
X028880Y006755D01*
X028876Y006705D01*
X028868Y006656D01*
X028856Y006607D01*
X028840Y006559D01*
X028821Y006513D01*
X028798Y006469D01*
X028771Y006426D01*
X028741Y006386D01*
X028709Y006348D01*
X028673Y006313D01*
X028634Y006281D01*
X028593Y006252D01*
X028550Y006226D01*
X028505Y006204D01*
X028459Y006186D01*
X028411Y006171D01*
X028362Y006160D01*
X028313Y006153D01*
X028263Y006150D01*
X028212Y006151D01*
X028163Y006156D01*
X028113Y006165D01*
X028065Y006178D01*
X028018Y006194D01*
X027972Y006215D01*
X027928Y006239D01*
X027886Y006266D01*
X027846Y006296D01*
X027809Y006330D01*
X027775Y006367D01*
X027743Y006406D01*
X027715Y006447D01*
X027690Y006491D01*
X027669Y006536D01*
X027652Y006583D01*
X027638Y006631D01*
X027628Y006680D01*
X027622Y006730D01*
X027620Y006780D01*
X027350Y028290D02*
X027352Y028340D01*
X027358Y028390D01*
X027368Y028440D01*
X027381Y028488D01*
X027398Y028536D01*
X027419Y028582D01*
X027443Y028626D01*
X027471Y028668D01*
X027502Y028708D01*
X027536Y028745D01*
X027573Y028780D01*
X027612Y028811D01*
X027653Y028840D01*
X027697Y028865D01*
X027743Y028887D01*
X027790Y028905D01*
X027838Y028919D01*
X027887Y028930D01*
X027937Y028937D01*
X027987Y028940D01*
X028038Y028939D01*
X028088Y028934D01*
X028138Y028925D01*
X028186Y028913D01*
X028234Y028896D01*
X028280Y028876D01*
X028325Y028853D01*
X028368Y028826D01*
X028408Y028796D01*
X028446Y028763D01*
X028481Y028727D01*
X028514Y028688D01*
X028543Y028647D01*
X028569Y028604D01*
X028592Y028559D01*
X028611Y028512D01*
X028626Y028464D01*
X028638Y028415D01*
X028646Y028365D01*
X028650Y028315D01*
X028650Y028265D01*
X028646Y028215D01*
X028638Y028165D01*
X028626Y028116D01*
X028611Y028068D01*
X028592Y028021D01*
X028569Y027976D01*
X028543Y027933D01*
X028514Y027892D01*
X028481Y027853D01*
X028446Y027817D01*
X028408Y027784D01*
X028368Y027754D01*
X028325Y027727D01*
X028280Y027704D01*
X028234Y027684D01*
X028186Y027667D01*
X028138Y027655D01*
X028088Y027646D01*
X028038Y027641D01*
X027987Y027640D01*
X027937Y027643D01*
X027887Y027650D01*
X027838Y027661D01*
X027790Y027675D01*
X027743Y027693D01*
X027697Y027715D01*
X027653Y027740D01*
X027612Y027769D01*
X027573Y027800D01*
X027536Y027835D01*
X027502Y027872D01*
X027471Y027912D01*
X027443Y027954D01*
X027419Y027998D01*
X027398Y028044D01*
X027381Y028092D01*
X027368Y028140D01*
X027358Y028190D01*
X027352Y028240D01*
X027350Y028290D01*
X024610Y031030D02*
X024612Y031080D01*
X024618Y031130D01*
X024628Y031180D01*
X024641Y031228D01*
X024658Y031276D01*
X024679Y031322D01*
X024703Y031366D01*
X024731Y031408D01*
X024762Y031448D01*
X024796Y031485D01*
X024833Y031520D01*
X024872Y031551D01*
X024913Y031580D01*
X024957Y031605D01*
X025003Y031627D01*
X025050Y031645D01*
X025098Y031659D01*
X025147Y031670D01*
X025197Y031677D01*
X025247Y031680D01*
X025298Y031679D01*
X025348Y031674D01*
X025398Y031665D01*
X025446Y031653D01*
X025494Y031636D01*
X025540Y031616D01*
X025585Y031593D01*
X025628Y031566D01*
X025668Y031536D01*
X025706Y031503D01*
X025741Y031467D01*
X025774Y031428D01*
X025803Y031387D01*
X025829Y031344D01*
X025852Y031299D01*
X025871Y031252D01*
X025886Y031204D01*
X025898Y031155D01*
X025906Y031105D01*
X025910Y031055D01*
X025910Y031005D01*
X025906Y030955D01*
X025898Y030905D01*
X025886Y030856D01*
X025871Y030808D01*
X025852Y030761D01*
X025829Y030716D01*
X025803Y030673D01*
X025774Y030632D01*
X025741Y030593D01*
X025706Y030557D01*
X025668Y030524D01*
X025628Y030494D01*
X025585Y030467D01*
X025540Y030444D01*
X025494Y030424D01*
X025446Y030407D01*
X025398Y030395D01*
X025348Y030386D01*
X025298Y030381D01*
X025247Y030380D01*
X025197Y030383D01*
X025147Y030390D01*
X025098Y030401D01*
X025050Y030415D01*
X025003Y030433D01*
X024957Y030455D01*
X024913Y030480D01*
X024872Y030509D01*
X024833Y030540D01*
X024796Y030575D01*
X024762Y030612D01*
X024731Y030652D01*
X024703Y030694D01*
X024679Y030738D01*
X024658Y030784D01*
X024641Y030832D01*
X024628Y030880D01*
X024618Y030930D01*
X024612Y030980D01*
X024610Y031030D01*
X027620Y031280D02*
X027622Y031330D01*
X027628Y031380D01*
X027638Y031429D01*
X027652Y031477D01*
X027669Y031524D01*
X027690Y031569D01*
X027715Y031613D01*
X027743Y031654D01*
X027775Y031693D01*
X027809Y031730D01*
X027846Y031764D01*
X027886Y031794D01*
X027928Y031821D01*
X027972Y031845D01*
X028018Y031866D01*
X028065Y031882D01*
X028113Y031895D01*
X028163Y031904D01*
X028212Y031909D01*
X028263Y031910D01*
X028313Y031907D01*
X028362Y031900D01*
X028411Y031889D01*
X028459Y031874D01*
X028505Y031856D01*
X028550Y031834D01*
X028593Y031808D01*
X028634Y031779D01*
X028673Y031747D01*
X028709Y031712D01*
X028741Y031674D01*
X028771Y031634D01*
X028798Y031591D01*
X028821Y031547D01*
X028840Y031501D01*
X028856Y031453D01*
X028868Y031404D01*
X028876Y031355D01*
X028880Y031305D01*
X028880Y031255D01*
X028876Y031205D01*
X028868Y031156D01*
X028856Y031107D01*
X028840Y031059D01*
X028821Y031013D01*
X028798Y030969D01*
X028771Y030926D01*
X028741Y030886D01*
X028709Y030848D01*
X028673Y030813D01*
X028634Y030781D01*
X028593Y030752D01*
X028550Y030726D01*
X028505Y030704D01*
X028459Y030686D01*
X028411Y030671D01*
X028362Y030660D01*
X028313Y030653D01*
X028263Y030650D01*
X028212Y030651D01*
X028163Y030656D01*
X028113Y030665D01*
X028065Y030678D01*
X028018Y030694D01*
X027972Y030715D01*
X027928Y030739D01*
X027886Y030766D01*
X027846Y030796D01*
X027809Y030830D01*
X027775Y030867D01*
X027743Y030906D01*
X027715Y030947D01*
X027690Y030991D01*
X027669Y031036D01*
X027652Y031083D01*
X027638Y031131D01*
X027628Y031180D01*
X027622Y031230D01*
X027620Y031280D01*
X006090Y031030D02*
X006092Y031080D01*
X006098Y031130D01*
X006108Y031180D01*
X006121Y031228D01*
X006138Y031276D01*
X006159Y031322D01*
X006183Y031366D01*
X006211Y031408D01*
X006242Y031448D01*
X006276Y031485D01*
X006313Y031520D01*
X006352Y031551D01*
X006393Y031580D01*
X006437Y031605D01*
X006483Y031627D01*
X006530Y031645D01*
X006578Y031659D01*
X006627Y031670D01*
X006677Y031677D01*
X006727Y031680D01*
X006778Y031679D01*
X006828Y031674D01*
X006878Y031665D01*
X006926Y031653D01*
X006974Y031636D01*
X007020Y031616D01*
X007065Y031593D01*
X007108Y031566D01*
X007148Y031536D01*
X007186Y031503D01*
X007221Y031467D01*
X007254Y031428D01*
X007283Y031387D01*
X007309Y031344D01*
X007332Y031299D01*
X007351Y031252D01*
X007366Y031204D01*
X007378Y031155D01*
X007386Y031105D01*
X007390Y031055D01*
X007390Y031005D01*
X007386Y030955D01*
X007378Y030905D01*
X007366Y030856D01*
X007351Y030808D01*
X007332Y030761D01*
X007309Y030716D01*
X007283Y030673D01*
X007254Y030632D01*
X007221Y030593D01*
X007186Y030557D01*
X007148Y030524D01*
X007108Y030494D01*
X007065Y030467D01*
X007020Y030444D01*
X006974Y030424D01*
X006926Y030407D01*
X006878Y030395D01*
X006828Y030386D01*
X006778Y030381D01*
X006727Y030380D01*
X006677Y030383D01*
X006627Y030390D01*
X006578Y030401D01*
X006530Y030415D01*
X006483Y030433D01*
X006437Y030455D01*
X006393Y030480D01*
X006352Y030509D01*
X006313Y030540D01*
X006276Y030575D01*
X006242Y030612D01*
X006211Y030652D01*
X006183Y030694D01*
X006159Y030738D01*
X006138Y030784D01*
X006121Y030832D01*
X006108Y030880D01*
X006098Y030930D01*
X006092Y030980D01*
X006090Y031030D01*
X003120Y031280D02*
X003122Y031330D01*
X003128Y031380D01*
X003138Y031429D01*
X003152Y031477D01*
X003169Y031524D01*
X003190Y031569D01*
X003215Y031613D01*
X003243Y031654D01*
X003275Y031693D01*
X003309Y031730D01*
X003346Y031764D01*
X003386Y031794D01*
X003428Y031821D01*
X003472Y031845D01*
X003518Y031866D01*
X003565Y031882D01*
X003613Y031895D01*
X003663Y031904D01*
X003712Y031909D01*
X003763Y031910D01*
X003813Y031907D01*
X003862Y031900D01*
X003911Y031889D01*
X003959Y031874D01*
X004005Y031856D01*
X004050Y031834D01*
X004093Y031808D01*
X004134Y031779D01*
X004173Y031747D01*
X004209Y031712D01*
X004241Y031674D01*
X004271Y031634D01*
X004298Y031591D01*
X004321Y031547D01*
X004340Y031501D01*
X004356Y031453D01*
X004368Y031404D01*
X004376Y031355D01*
X004380Y031305D01*
X004380Y031255D01*
X004376Y031205D01*
X004368Y031156D01*
X004356Y031107D01*
X004340Y031059D01*
X004321Y031013D01*
X004298Y030969D01*
X004271Y030926D01*
X004241Y030886D01*
X004209Y030848D01*
X004173Y030813D01*
X004134Y030781D01*
X004093Y030752D01*
X004050Y030726D01*
X004005Y030704D01*
X003959Y030686D01*
X003911Y030671D01*
X003862Y030660D01*
X003813Y030653D01*
X003763Y030650D01*
X003712Y030651D01*
X003663Y030656D01*
X003613Y030665D01*
X003565Y030678D01*
X003518Y030694D01*
X003472Y030715D01*
X003428Y030739D01*
X003386Y030766D01*
X003346Y030796D01*
X003309Y030830D01*
X003275Y030867D01*
X003243Y030906D01*
X003215Y030947D01*
X003190Y030991D01*
X003169Y031036D01*
X003152Y031083D01*
X003138Y031131D01*
X003128Y031180D01*
X003122Y031230D01*
X003120Y031280D01*
D11*
X003160Y023370D02*
X003275Y023370D01*
X003313Y023332D01*
X003313Y023255D01*
X003275Y023217D01*
X003160Y023217D01*
X003237Y023217D02*
X003313Y023140D01*
X003390Y023178D02*
X003429Y023140D01*
X003505Y023140D01*
X003544Y023178D01*
X003544Y023217D01*
X003505Y023255D01*
X003429Y023255D01*
X003390Y023293D01*
X003390Y023332D01*
X003429Y023370D01*
X003505Y023370D01*
X003544Y023332D01*
X003620Y023370D02*
X003774Y023370D01*
X003697Y023370D02*
X003697Y023140D01*
X003160Y023140D02*
X003160Y023370D01*
X003198Y022370D02*
X003275Y022370D01*
X003313Y022332D01*
X003313Y022293D01*
X003275Y022255D01*
X003313Y022217D01*
X003313Y022178D01*
X003275Y022140D01*
X003198Y022140D01*
X003160Y022178D01*
X003237Y022255D02*
X003275Y022255D01*
X003160Y022332D02*
X003198Y022370D01*
X003390Y022178D02*
X003429Y022178D01*
X003429Y022140D01*
X003390Y022140D01*
X003390Y022178D01*
X003505Y022178D02*
X003544Y022140D01*
X003620Y022140D01*
X003659Y022178D01*
X003659Y022217D01*
X003620Y022255D01*
X003582Y022255D01*
X003620Y022255D02*
X003659Y022293D01*
X003659Y022332D01*
X003620Y022370D01*
X003544Y022370D01*
X003505Y022332D01*
X003735Y022293D02*
X003812Y022140D01*
X003889Y022293D01*
X003735Y021445D02*
X003620Y021445D01*
X003620Y021215D01*
X003735Y021215D01*
X003774Y021253D01*
X003774Y021407D01*
X003735Y021445D01*
X003544Y021445D02*
X003544Y021215D01*
X003390Y021445D01*
X003390Y021215D01*
X003313Y021253D02*
X003313Y021330D01*
X003237Y021330D01*
X003313Y021253D02*
X003275Y021215D01*
X003198Y021215D01*
X003160Y021253D01*
X003160Y021407D01*
X003198Y021445D01*
X003275Y021445D01*
X003313Y021407D01*
X003275Y020358D02*
X003160Y020358D01*
X003160Y020128D01*
X003160Y020204D02*
X003275Y020204D01*
X003313Y020243D01*
X003313Y020319D01*
X003275Y020358D01*
X003390Y020319D02*
X003390Y020166D01*
X003429Y020128D01*
X003505Y020128D01*
X003544Y020166D01*
X003544Y020243D01*
X003467Y020243D01*
X003544Y020319D02*
X003505Y020358D01*
X003429Y020358D01*
X003390Y020319D01*
X003620Y020358D02*
X003620Y020128D01*
X003774Y020128D01*
X003851Y020128D02*
X003966Y020128D01*
X004004Y020166D01*
X004004Y020319D01*
X003966Y020358D01*
X003851Y020358D01*
X003851Y020128D01*
X003697Y020243D02*
X003620Y020243D01*
X003620Y020358D02*
X003774Y020358D01*
X003774Y019358D02*
X003620Y019358D01*
X003620Y019128D01*
X003774Y019128D01*
X003851Y019166D02*
X003889Y019128D01*
X003966Y019128D01*
X004004Y019166D01*
X004004Y019319D02*
X003966Y019358D01*
X003889Y019358D01*
X003851Y019319D01*
X003851Y019166D01*
X003697Y019243D02*
X003620Y019243D01*
X003544Y019243D02*
X003467Y019243D01*
X003544Y019243D02*
X003544Y019166D01*
X003505Y019128D01*
X003429Y019128D01*
X003390Y019166D01*
X003390Y019319D01*
X003429Y019358D01*
X003505Y019358D01*
X003544Y019319D01*
X003313Y019319D02*
X003313Y019243D01*
X003275Y019204D01*
X003160Y019204D01*
X003160Y019128D02*
X003160Y019358D01*
X003275Y019358D01*
X003313Y019319D01*
X003074Y016658D02*
X002920Y016504D01*
X002959Y016543D02*
X003074Y016428D01*
X002920Y016428D02*
X002920Y016658D01*
X002690Y016658D02*
X002690Y016428D01*
X002844Y016428D01*
X002613Y016466D02*
X002575Y016428D01*
X002460Y016428D01*
X002460Y016658D01*
X002575Y016658D01*
X002613Y016619D01*
X002613Y016581D01*
X002575Y016543D01*
X002460Y016543D01*
X002575Y016543D02*
X002613Y016504D01*
X002613Y016466D01*
X003372Y015965D02*
X003372Y015850D01*
X003603Y015850D01*
X003603Y015965D01*
X003564Y016004D01*
X003411Y016004D01*
X003372Y015965D01*
X003372Y015774D02*
X003603Y015774D01*
X003372Y015620D01*
X003603Y015620D01*
X003564Y015543D02*
X003487Y015543D01*
X003487Y015467D01*
X003411Y015543D02*
X003372Y015505D01*
X003372Y015428D01*
X003411Y015390D01*
X003564Y015390D01*
X003603Y015428D01*
X003603Y015505D01*
X003564Y015543D01*
X003564Y014104D02*
X003603Y014065D01*
X003603Y013989D01*
X003564Y013950D01*
X003526Y013874D02*
X003372Y013874D01*
X003411Y013950D02*
X003372Y013989D01*
X003372Y014065D01*
X003411Y014104D01*
X003449Y014104D01*
X003487Y014065D01*
X003526Y014104D01*
X003564Y014104D01*
X003487Y014065D02*
X003487Y014027D01*
X003526Y013874D02*
X003603Y013797D01*
X003526Y013720D01*
X003372Y013720D01*
X003411Y013643D02*
X003449Y013643D01*
X003487Y013605D01*
X003526Y013643D01*
X003564Y013643D01*
X003603Y013605D01*
X003603Y013528D01*
X003564Y013490D01*
X003487Y013567D02*
X003487Y013605D01*
X003411Y013643D02*
X003372Y013605D01*
X003372Y013528D01*
X003411Y013490D01*
X003372Y012974D02*
X003603Y012820D01*
X003603Y012743D02*
X003526Y012667D01*
X003526Y012705D02*
X003526Y012590D01*
X003603Y012590D02*
X003372Y012590D01*
X003372Y012705D01*
X003411Y012743D01*
X003487Y012743D01*
X003526Y012705D01*
X003372Y012820D02*
X003603Y012974D01*
X003603Y011974D02*
X003372Y011820D01*
X003372Y011743D02*
X003372Y011590D01*
X003372Y011667D02*
X003603Y011667D01*
X003603Y011820D02*
X003372Y011974D01*
X002974Y010158D02*
X002974Y009928D01*
X002820Y010158D01*
X002820Y009928D01*
X002744Y009928D02*
X002667Y010004D01*
X002705Y010004D02*
X002590Y010004D01*
X002590Y009928D02*
X002590Y010158D01*
X002705Y010158D01*
X002744Y010119D01*
X002744Y010043D01*
X002705Y010004D01*
X002513Y009966D02*
X002513Y010043D01*
X002437Y010043D01*
X002513Y010119D02*
X002475Y010158D01*
X002398Y010158D01*
X002360Y010119D01*
X002360Y009966D01*
X002398Y009928D01*
X002475Y009928D01*
X002513Y009966D01*
X005260Y014455D02*
X005260Y014570D01*
X005298Y014608D01*
X005375Y014608D01*
X005413Y014570D01*
X005413Y014455D01*
X005413Y014531D02*
X005490Y014608D01*
X005490Y014685D02*
X005260Y014838D01*
X005260Y014685D02*
X005490Y014838D01*
X005490Y014455D02*
X005260Y014455D01*
X006810Y014430D02*
X006810Y014583D01*
X006810Y014506D02*
X007040Y014506D01*
X007040Y014660D02*
X006810Y014813D01*
X006810Y014660D02*
X007040Y014813D01*
X011548Y008374D02*
X011587Y008374D01*
X011625Y008335D01*
X011625Y008259D01*
X011587Y008220D01*
X011548Y008220D01*
X011510Y008259D01*
X011510Y008335D01*
X011548Y008374D01*
X011625Y008335D02*
X011663Y008374D01*
X011702Y008374D01*
X011740Y008335D01*
X011740Y008259D01*
X011702Y008220D01*
X011663Y008220D01*
X011625Y008259D01*
X011548Y008143D02*
X011702Y007990D01*
X011740Y007990D01*
X011510Y007990D02*
X011510Y008143D01*
X011548Y008143D01*
X012010Y008143D02*
X012010Y007990D01*
X012010Y008143D02*
X012048Y008143D01*
X012202Y007990D01*
X012240Y007990D01*
X012240Y008220D02*
X012202Y008220D01*
X012048Y008374D01*
X012010Y008374D01*
X012010Y008220D01*
X012610Y008143D02*
X012610Y007990D01*
X012610Y008143D02*
X012648Y008143D01*
X012802Y007990D01*
X012840Y007990D01*
X012802Y008220D02*
X012840Y008259D01*
X012840Y008335D01*
X012802Y008374D01*
X012763Y008374D01*
X012725Y008335D01*
X012725Y008220D01*
X012802Y008220D01*
X012725Y008220D02*
X012648Y008297D01*
X012610Y008374D01*
X013110Y008335D02*
X013148Y008374D01*
X013187Y008374D01*
X013225Y008335D01*
X013263Y008374D01*
X013302Y008374D01*
X013340Y008335D01*
X013340Y008259D01*
X013302Y008220D01*
X013225Y008297D02*
X013225Y008335D01*
X013110Y008335D02*
X013110Y008259D01*
X013148Y008220D01*
X013148Y008143D02*
X013302Y007990D01*
X013340Y007990D01*
X013110Y007990D02*
X013110Y008143D01*
X013148Y008143D01*
X013710Y008143D02*
X013710Y007990D01*
X013710Y008143D02*
X013748Y008143D01*
X013902Y007990D01*
X013940Y007990D01*
X013940Y008220D02*
X013787Y008374D01*
X013748Y008374D01*
X013710Y008335D01*
X013710Y008259D01*
X013748Y008220D01*
X013940Y008220D02*
X013940Y008374D01*
X014210Y008297D02*
X014440Y008297D01*
X014440Y008220D02*
X014440Y008374D01*
X014287Y008220D02*
X014210Y008297D01*
X014210Y008143D02*
X014248Y008143D01*
X014402Y007990D01*
X014440Y007990D01*
X014210Y007990D02*
X014210Y008143D01*
X014810Y008143D02*
X014810Y007990D01*
X014810Y008143D02*
X014848Y008143D01*
X015002Y007990D01*
X015040Y007990D01*
X015002Y008220D02*
X014848Y008374D01*
X015002Y008374D01*
X015040Y008335D01*
X015040Y008259D01*
X015002Y008220D01*
X014848Y008220D01*
X014810Y008259D01*
X014810Y008335D01*
X014848Y008374D01*
X015310Y008335D02*
X015310Y008259D01*
X015348Y008220D01*
X015387Y008220D01*
X015425Y008259D01*
X015425Y008374D01*
X015502Y008374D02*
X015348Y008374D01*
X015310Y008335D01*
X015310Y008143D02*
X015348Y008067D01*
X015425Y007990D01*
X015425Y008105D01*
X015463Y008143D01*
X015502Y008143D01*
X015540Y008105D01*
X015540Y008028D01*
X015502Y007990D01*
X015425Y007990D01*
X015502Y008220D02*
X015540Y008259D01*
X015540Y008335D01*
X015502Y008374D01*
X015910Y008374D02*
X015910Y008220D01*
X016025Y008220D01*
X015987Y008297D01*
X015987Y008335D01*
X016025Y008374D01*
X016102Y008374D01*
X016140Y008335D01*
X016140Y008259D01*
X016102Y008220D01*
X016102Y008143D02*
X016063Y008143D01*
X016025Y008105D01*
X016025Y007990D01*
X016102Y007990D01*
X016140Y008028D01*
X016140Y008105D01*
X016102Y008143D01*
X015948Y008067D02*
X016025Y007990D01*
X015948Y008067D02*
X015910Y008143D01*
X016410Y008143D02*
X016448Y008067D01*
X016525Y007990D01*
X016525Y008105D01*
X016563Y008143D01*
X016602Y008143D01*
X016640Y008105D01*
X016640Y008028D01*
X016602Y007990D01*
X016525Y007990D01*
X016525Y008220D02*
X016410Y008335D01*
X016640Y008335D01*
X016525Y008374D02*
X016525Y008220D01*
X016910Y008259D02*
X016910Y008335D01*
X016948Y008374D01*
X016987Y008374D01*
X017025Y008335D01*
X017063Y008374D01*
X017102Y008374D01*
X017140Y008335D01*
X017140Y008259D01*
X017102Y008220D01*
X017102Y008143D02*
X017063Y008143D01*
X017025Y008105D01*
X017025Y007990D01*
X017102Y007990D01*
X017140Y008028D01*
X017140Y008105D01*
X017102Y008143D01*
X016948Y008067D02*
X017025Y007990D01*
X016948Y008067D02*
X016910Y008143D01*
X016948Y008220D02*
X016910Y008259D01*
X017025Y008297D02*
X017025Y008335D01*
X017510Y008335D02*
X017510Y008259D01*
X017548Y008220D01*
X017510Y008143D02*
X017548Y008067D01*
X017625Y007990D01*
X017625Y008105D01*
X017663Y008143D01*
X017702Y008143D01*
X017740Y008105D01*
X017740Y008028D01*
X017702Y007990D01*
X017625Y007990D01*
X017740Y008220D02*
X017587Y008374D01*
X017548Y008374D01*
X017510Y008335D01*
X017740Y008374D02*
X017740Y008220D01*
X018010Y008143D02*
X018048Y008067D01*
X018125Y007990D01*
X018125Y008105D01*
X018163Y008143D01*
X018202Y008143D01*
X018240Y008105D01*
X018240Y008028D01*
X018202Y007990D01*
X018125Y007990D01*
X018087Y008220D02*
X018010Y008297D01*
X018240Y008297D01*
X018240Y008220D02*
X018240Y008374D01*
X018610Y008335D02*
X018648Y008374D01*
X018802Y008220D01*
X018840Y008259D01*
X018840Y008335D01*
X018802Y008374D01*
X018648Y008374D01*
X018610Y008335D02*
X018610Y008259D01*
X018648Y008220D01*
X018802Y008220D01*
X018802Y008143D02*
X018763Y008143D01*
X018725Y008105D01*
X018725Y007990D01*
X018802Y007990D01*
X018840Y008028D01*
X018840Y008105D01*
X018802Y008143D01*
X018648Y008067D02*
X018725Y007990D01*
X018648Y008067D02*
X018610Y008143D01*
X019110Y008143D02*
X019110Y007990D01*
X019225Y007990D01*
X019187Y008067D01*
X019187Y008105D01*
X019225Y008143D01*
X019302Y008143D01*
X019340Y008105D01*
X019340Y008028D01*
X019302Y007990D01*
X019302Y008220D02*
X019340Y008259D01*
X019340Y008335D01*
X019302Y008374D01*
X019148Y008374D01*
X019110Y008335D01*
X019110Y008259D01*
X019148Y008220D01*
X019187Y008220D01*
X019225Y008259D01*
X019225Y008374D01*
X019610Y008335D02*
X019648Y008374D01*
X019687Y008374D01*
X019725Y008335D01*
X019725Y008259D01*
X019687Y008220D01*
X019648Y008220D01*
X019610Y008259D01*
X019610Y008335D01*
X019725Y008335D02*
X019763Y008374D01*
X019802Y008374D01*
X019840Y008335D01*
X019840Y008259D01*
X019802Y008220D01*
X019763Y008220D01*
X019725Y008259D01*
X019725Y008143D02*
X019802Y008143D01*
X019840Y008105D01*
X019840Y008028D01*
X019802Y007990D01*
X019725Y007990D02*
X019687Y008067D01*
X019687Y008105D01*
X019725Y008143D01*
X019610Y008143D02*
X019610Y007990D01*
X019725Y007990D01*
X020210Y007990D02*
X020210Y008143D01*
X020210Y008220D02*
X020210Y008374D01*
X020248Y008374D01*
X020402Y008220D01*
X020440Y008220D01*
X020402Y008143D02*
X020440Y008105D01*
X020440Y008028D01*
X020402Y007990D01*
X020325Y007990D02*
X020287Y008067D01*
X020287Y008105D01*
X020325Y008143D01*
X020402Y008143D01*
X020325Y007990D02*
X020210Y007990D01*
X022172Y011315D02*
X022172Y011468D01*
X022172Y011392D02*
X022403Y011392D01*
X022403Y011545D02*
X022172Y011545D01*
X022172Y011660D01*
X022211Y011699D01*
X022287Y011699D01*
X022326Y011660D01*
X022326Y011545D01*
X022326Y011622D02*
X022403Y011699D01*
X022364Y011775D02*
X022403Y011814D01*
X022403Y011890D01*
X022364Y011929D01*
X022326Y011929D01*
X022287Y011890D01*
X022287Y011814D01*
X022249Y011775D01*
X022211Y011775D01*
X022172Y011814D01*
X022172Y011890D01*
X022211Y011929D01*
X022172Y012006D02*
X022172Y012159D01*
X022172Y012082D02*
X022403Y012082D01*
X023160Y012108D02*
X023160Y012031D01*
X023198Y011993D01*
X023352Y011993D01*
X023390Y012031D01*
X023390Y012108D01*
X023352Y012147D01*
X023275Y012147D01*
X023275Y012070D01*
X023198Y012147D02*
X023160Y012108D01*
X023160Y011916D02*
X023160Y011763D01*
X023160Y011840D02*
X023390Y011840D01*
X023352Y011648D02*
X023160Y011648D01*
X023160Y011686D02*
X023160Y011609D01*
X023160Y011456D02*
X023313Y011456D01*
X023390Y011379D01*
X023313Y011303D01*
X023160Y011303D01*
X023352Y011533D02*
X023390Y011571D01*
X023390Y011609D01*
X023352Y011648D01*
X024197Y011659D02*
X024236Y011620D01*
X024389Y011620D01*
X024428Y011659D01*
X024428Y011735D01*
X024389Y011774D01*
X024236Y011774D02*
X024197Y011735D01*
X024197Y011659D01*
X024197Y011543D02*
X024428Y011543D01*
X024197Y011390D01*
X024428Y011390D01*
X024110Y013990D02*
X024110Y014143D01*
X024110Y014067D02*
X024340Y014067D01*
X024340Y014220D02*
X024110Y014220D01*
X024110Y014335D01*
X024148Y014374D01*
X024302Y014374D01*
X024340Y014335D01*
X024340Y014220D01*
X024302Y014450D02*
X024340Y014489D01*
X024340Y014565D01*
X024302Y014604D01*
X024148Y014604D01*
X024110Y014565D01*
X024110Y014489D01*
X024148Y014450D01*
X024302Y014450D01*
X023340Y014489D02*
X023302Y014450D01*
X023340Y014489D02*
X023340Y014565D01*
X023302Y014604D01*
X023263Y014604D01*
X023225Y014565D01*
X023225Y014489D01*
X023187Y014450D01*
X023148Y014450D01*
X023110Y014489D01*
X023110Y014565D01*
X023148Y014604D01*
X023110Y014374D02*
X023340Y014374D01*
X023340Y014220D02*
X023110Y014220D01*
X023187Y014297D01*
X023110Y014374D01*
X023110Y014143D02*
X023110Y013990D01*
X023110Y014067D02*
X023340Y014067D01*
X022340Y014067D02*
X022263Y014143D01*
X022110Y014143D01*
X022110Y014220D02*
X022110Y014335D01*
X022148Y014374D01*
X022225Y014374D01*
X022263Y014335D01*
X022263Y014220D01*
X022340Y014220D02*
X022110Y014220D01*
X022110Y013990D02*
X022263Y013990D01*
X022340Y014067D01*
X022340Y014450D02*
X022110Y014450D01*
X022187Y014527D01*
X022110Y014604D01*
X022340Y014604D01*
X022340Y014681D02*
X022110Y014681D01*
X022110Y014796D01*
X022148Y014834D01*
X022225Y014834D01*
X022263Y014796D01*
X022263Y014681D01*
X021340Y014527D02*
X021340Y014450D01*
X021340Y014489D02*
X021110Y014489D01*
X021110Y014527D02*
X021110Y014450D01*
X021148Y014374D02*
X021110Y014335D01*
X021110Y014220D01*
X021340Y014220D01*
X021340Y014335D01*
X021302Y014374D01*
X021148Y014374D01*
X021110Y014143D02*
X021110Y013990D01*
X021110Y014067D02*
X021340Y014067D01*
X019502Y017840D02*
X019540Y017878D01*
X019540Y017955D01*
X019502Y017993D01*
X019502Y018070D02*
X019540Y018109D01*
X019540Y018185D01*
X019502Y018224D01*
X019425Y018224D01*
X019387Y018185D01*
X019387Y018147D01*
X019425Y018070D01*
X019310Y018070D01*
X019310Y018224D01*
X019348Y017993D02*
X019310Y017955D01*
X019310Y017878D01*
X019348Y017840D01*
X019502Y017840D01*
X020638Y019140D02*
X020715Y019140D01*
X020753Y019178D01*
X020830Y019178D02*
X020868Y019140D01*
X020945Y019140D01*
X020983Y019178D01*
X020983Y019217D01*
X020945Y019255D01*
X020830Y019255D01*
X020830Y019178D01*
X020830Y019255D02*
X020907Y019332D01*
X020983Y019370D01*
X020753Y019332D02*
X020715Y019370D01*
X020638Y019370D01*
X020600Y019332D01*
X020600Y019178D01*
X020638Y019140D01*
X021260Y018482D02*
X021260Y018328D01*
X021298Y018290D01*
X021375Y018290D01*
X021413Y018328D01*
X021490Y018405D02*
X021644Y018405D01*
X021605Y018290D02*
X021605Y018520D01*
X021490Y018405D01*
X021413Y018482D02*
X021375Y018520D01*
X021298Y018520D01*
X021260Y018482D01*
X025110Y014604D02*
X025263Y014450D01*
X025225Y014489D02*
X025340Y014604D01*
X025340Y014450D02*
X025110Y014450D01*
X025148Y014374D02*
X025110Y014335D01*
X025110Y014259D01*
X025148Y014220D01*
X025302Y014220D01*
X025340Y014259D01*
X025340Y014335D01*
X025302Y014374D01*
X025110Y014143D02*
X025110Y013990D01*
X025110Y014067D02*
X025340Y014067D01*
X026760Y014705D02*
X026913Y014705D01*
X026990Y014705D02*
X027067Y014743D01*
X027105Y014743D01*
X027144Y014705D01*
X027144Y014628D01*
X027105Y014590D01*
X027029Y014590D01*
X026990Y014628D01*
X026990Y014705D02*
X026990Y014820D01*
X027144Y014820D01*
X026875Y014820D02*
X026760Y014705D01*
X026875Y014590D02*
X026875Y014820D01*
X026875Y015140D02*
X026875Y015370D01*
X026760Y015255D01*
X026913Y015255D01*
X026990Y015255D02*
X027144Y015255D01*
X027105Y015140D02*
X027105Y015370D01*
X026990Y015255D01*
X027029Y015640D02*
X026990Y015678D01*
X027029Y015640D02*
X027105Y015640D01*
X027144Y015678D01*
X027144Y015717D01*
X027105Y015755D01*
X027067Y015755D01*
X027105Y015755D02*
X027144Y015793D01*
X027144Y015832D01*
X027105Y015870D01*
X027029Y015870D01*
X026990Y015832D01*
X026913Y015755D02*
X026760Y015755D01*
X026875Y015870D01*
X026875Y015640D01*
X026875Y016190D02*
X026875Y016420D01*
X026760Y016305D01*
X026913Y016305D01*
X026990Y016382D02*
X027029Y016420D01*
X027105Y016420D01*
X027144Y016382D01*
X027144Y016343D01*
X026990Y016190D01*
X027144Y016190D01*
X027144Y016740D02*
X026990Y016740D01*
X027067Y016740D02*
X027067Y016970D01*
X026990Y016893D01*
X026913Y016855D02*
X026760Y016855D01*
X026875Y016970D01*
X026875Y016740D01*
X026875Y017290D02*
X026875Y017520D01*
X026760Y017405D01*
X026913Y017405D01*
X026990Y017328D02*
X027144Y017482D01*
X027144Y017328D01*
X027105Y017290D01*
X027029Y017290D01*
X026990Y017328D01*
X026990Y017482D01*
X027029Y017520D01*
X027105Y017520D01*
X027144Y017482D01*
X027105Y017890D02*
X027144Y017928D01*
X027144Y017967D01*
X027105Y018005D01*
X026990Y018005D01*
X026990Y017928D01*
X027029Y017890D01*
X027105Y017890D01*
X026990Y018005D02*
X027067Y018082D01*
X027144Y018120D01*
X026913Y018082D02*
X026913Y018043D01*
X026875Y018005D01*
X026913Y017967D01*
X026913Y017928D01*
X026875Y017890D01*
X026798Y017890D01*
X026760Y017928D01*
X026837Y018005D02*
X026875Y018005D01*
X026913Y018082D02*
X026875Y018120D01*
X026798Y018120D01*
X026760Y018082D01*
X026798Y018390D02*
X026760Y018428D01*
X026798Y018390D02*
X026875Y018390D01*
X026913Y018428D01*
X026913Y018467D01*
X026875Y018505D01*
X026837Y018505D01*
X026875Y018505D02*
X026913Y018543D01*
X026913Y018582D01*
X026875Y018620D01*
X026798Y018620D01*
X026760Y018582D01*
X026990Y018620D02*
X026990Y018505D01*
X027067Y018543D01*
X027105Y018543D01*
X027144Y018505D01*
X027144Y018428D01*
X027105Y018390D01*
X027029Y018390D01*
X026990Y018428D01*
X026990Y018620D02*
X027144Y018620D01*
X027105Y018890D02*
X027105Y019120D01*
X026990Y019005D01*
X027144Y019005D01*
X026913Y018967D02*
X026913Y018928D01*
X026875Y018890D01*
X026798Y018890D01*
X026760Y018928D01*
X026837Y019005D02*
X026875Y019005D01*
X026913Y018967D01*
X026875Y019005D02*
X026913Y019043D01*
X026913Y019082D01*
X026875Y019120D01*
X026798Y019120D01*
X026760Y019082D01*
X026798Y019440D02*
X026760Y019478D01*
X026798Y019440D02*
X026875Y019440D01*
X026913Y019478D01*
X026913Y019517D01*
X026875Y019555D01*
X026837Y019555D01*
X026875Y019555D02*
X026913Y019593D01*
X026913Y019632D01*
X026875Y019670D01*
X026798Y019670D01*
X026760Y019632D01*
X026990Y019632D02*
X027029Y019670D01*
X027105Y019670D01*
X027144Y019632D01*
X027144Y019593D01*
X027105Y019555D01*
X027144Y019517D01*
X027144Y019478D01*
X027105Y019440D01*
X027029Y019440D01*
X026990Y019478D01*
X027067Y019555D02*
X027105Y019555D01*
X027144Y019990D02*
X026990Y019990D01*
X027144Y020143D01*
X027144Y020182D01*
X027105Y020220D01*
X027029Y020220D01*
X026990Y020182D01*
X026913Y020182D02*
X026913Y020143D01*
X026875Y020105D01*
X026913Y020067D01*
X026913Y020028D01*
X026875Y019990D01*
X026798Y019990D01*
X026760Y020028D01*
X026837Y020105D02*
X026875Y020105D01*
X026913Y020182D02*
X026875Y020220D01*
X026798Y020220D01*
X026760Y020182D01*
X026798Y020540D02*
X026760Y020578D01*
X026798Y020540D02*
X026875Y020540D01*
X026913Y020578D01*
X026913Y020617D01*
X026875Y020655D01*
X026837Y020655D01*
X026875Y020655D02*
X026913Y020693D01*
X026913Y020732D01*
X026875Y020770D01*
X026798Y020770D01*
X026760Y020732D01*
X026990Y020693D02*
X027067Y020770D01*
X027067Y020540D01*
X026990Y020540D02*
X027144Y020540D01*
X027105Y021090D02*
X027029Y021090D01*
X026990Y021128D01*
X027144Y021282D01*
X027144Y021128D01*
X027105Y021090D01*
X026990Y021128D02*
X026990Y021282D01*
X027029Y021320D01*
X027105Y021320D01*
X027144Y021282D01*
X026913Y021282D02*
X026913Y021243D01*
X026875Y021205D01*
X026913Y021167D01*
X026913Y021128D01*
X026875Y021090D01*
X026798Y021090D01*
X026760Y021128D01*
X026837Y021205D02*
X026875Y021205D01*
X026913Y021282D02*
X026875Y021320D01*
X026798Y021320D01*
X026760Y021282D01*
X026760Y021640D02*
X026913Y021793D01*
X026913Y021832D01*
X026875Y021870D01*
X026798Y021870D01*
X026760Y021832D01*
X026760Y021640D02*
X026913Y021640D01*
X026990Y021678D02*
X027029Y021640D01*
X027105Y021640D01*
X027144Y021678D01*
X027144Y021832D01*
X027105Y021870D01*
X027029Y021870D01*
X026990Y021832D01*
X026990Y021793D01*
X027029Y021755D01*
X027144Y021755D01*
X027105Y022190D02*
X027029Y022190D01*
X026990Y022228D01*
X026990Y022267D01*
X027029Y022305D01*
X027105Y022305D01*
X027144Y022267D01*
X027144Y022228D01*
X027105Y022190D01*
X027105Y022305D02*
X027144Y022343D01*
X027144Y022382D01*
X027105Y022420D01*
X027029Y022420D01*
X026990Y022382D01*
X026990Y022343D01*
X027029Y022305D01*
X026913Y022343D02*
X026913Y022382D01*
X026875Y022420D01*
X026798Y022420D01*
X026760Y022382D01*
X026913Y022343D02*
X026760Y022190D01*
X026913Y022190D01*
X026913Y022740D02*
X026760Y022740D01*
X026913Y022893D01*
X026913Y022932D01*
X026875Y022970D01*
X026798Y022970D01*
X026760Y022932D01*
X026990Y022970D02*
X027144Y022970D01*
X027144Y022932D01*
X026990Y022778D01*
X026990Y022740D01*
X027029Y023290D02*
X027105Y023290D01*
X027144Y023328D01*
X027144Y023367D01*
X027105Y023405D01*
X026990Y023405D01*
X026990Y023328D01*
X027029Y023290D01*
X026913Y023290D02*
X026760Y023290D01*
X026913Y023443D01*
X026913Y023482D01*
X026875Y023520D01*
X026798Y023520D01*
X026760Y023482D01*
X026990Y023405D02*
X027067Y023482D01*
X027144Y023520D01*
X025371Y027040D02*
X025295Y027040D01*
X025256Y027078D01*
X025180Y027078D02*
X025180Y027040D01*
X025141Y027040D01*
X025141Y027078D01*
X025180Y027078D01*
X025256Y027155D02*
X025333Y027193D01*
X025371Y027193D01*
X025410Y027155D01*
X025410Y027078D01*
X025371Y027040D01*
X025256Y027155D02*
X025256Y027270D01*
X025410Y027270D01*
X025064Y027040D02*
X024911Y027040D01*
X024988Y027040D02*
X024988Y027270D01*
X024911Y027193D01*
X024604Y027155D02*
X024527Y027155D01*
X024604Y027155D02*
X024604Y027078D01*
X024566Y027040D01*
X024489Y027040D01*
X024451Y027078D01*
X024451Y027232D01*
X024489Y027270D01*
X024566Y027270D01*
X024604Y027232D01*
X024374Y027270D02*
X024220Y027270D01*
X024220Y027040D01*
X024374Y027040D01*
X024297Y027155D02*
X024220Y027155D01*
X024144Y027155D02*
X024105Y027117D01*
X023990Y027117D01*
X023913Y027117D02*
X023913Y027270D01*
X023990Y027270D02*
X024105Y027270D01*
X024144Y027232D01*
X024144Y027155D01*
X024067Y027117D02*
X024144Y027040D01*
X023990Y027040D02*
X023990Y027270D01*
X023913Y027117D02*
X023837Y027040D01*
X023760Y027117D01*
X023760Y027270D01*
X020990Y025401D02*
X020990Y025325D01*
X020952Y025286D01*
X020952Y025210D02*
X020990Y025210D01*
X020990Y025171D01*
X020952Y025171D01*
X020952Y025210D01*
X020952Y025094D02*
X020990Y025056D01*
X020990Y024979D01*
X020952Y024941D01*
X020875Y025018D02*
X020875Y025056D01*
X020913Y025094D01*
X020952Y025094D01*
X020875Y025056D02*
X020837Y025094D01*
X020798Y025094D01*
X020760Y025056D01*
X020760Y024979D01*
X020798Y024941D01*
X020798Y024634D02*
X020760Y024596D01*
X020760Y024519D01*
X020798Y024481D01*
X020952Y024481D01*
X020990Y024519D01*
X020990Y024596D01*
X020952Y024634D01*
X020875Y024634D01*
X020875Y024557D01*
X020990Y024404D02*
X020990Y024250D01*
X020760Y024250D01*
X020760Y024404D01*
X020875Y024327D02*
X020875Y024250D01*
X020875Y024174D02*
X020913Y024135D01*
X020913Y024020D01*
X020913Y023943D02*
X020760Y023943D01*
X020760Y024020D02*
X020760Y024135D01*
X020798Y024174D01*
X020875Y024174D01*
X020913Y024097D02*
X020990Y024174D01*
X020990Y024020D02*
X020760Y024020D01*
X020913Y023943D02*
X020990Y023867D01*
X020913Y023790D01*
X020760Y023790D01*
X020798Y025286D02*
X020760Y025325D01*
X020760Y025401D01*
X020798Y025440D01*
X020837Y025440D01*
X020875Y025401D01*
X020913Y025440D01*
X020952Y025440D01*
X020990Y025401D01*
X020875Y025401D02*
X020875Y025363D01*
X019740Y026328D02*
X019740Y026405D01*
X019702Y026443D01*
X019702Y026520D02*
X019663Y026520D01*
X019625Y026559D01*
X019625Y026635D01*
X019663Y026674D01*
X019702Y026674D01*
X019740Y026635D01*
X019740Y026559D01*
X019702Y026520D01*
X019625Y026559D02*
X019587Y026520D01*
X019548Y026520D01*
X019510Y026559D01*
X019510Y026635D01*
X019548Y026674D01*
X019587Y026674D01*
X019625Y026635D01*
X019548Y026443D02*
X019510Y026405D01*
X019510Y026328D01*
X019548Y026290D01*
X019702Y026290D01*
X019740Y026328D01*
X016990Y025401D02*
X016990Y025325D01*
X016952Y025286D01*
X016798Y025440D01*
X016952Y025440D01*
X016990Y025401D01*
X016952Y025286D02*
X016798Y025286D01*
X016760Y025325D01*
X016760Y025401D01*
X016798Y025440D01*
X016952Y025210D02*
X016990Y025210D01*
X016990Y025171D01*
X016952Y025171D01*
X016952Y025210D01*
X016952Y025094D02*
X016990Y025056D01*
X016990Y024979D01*
X016952Y024941D01*
X016875Y024941D02*
X016837Y025018D01*
X016837Y025056D01*
X016875Y025094D01*
X016952Y025094D01*
X016875Y024941D02*
X016760Y024941D01*
X016760Y025094D01*
X016798Y024634D02*
X016760Y024596D01*
X016760Y024519D01*
X016798Y024481D01*
X016952Y024481D01*
X016990Y024519D01*
X016990Y024596D01*
X016952Y024634D01*
X016875Y024634D01*
X016875Y024557D01*
X016990Y024404D02*
X016990Y024250D01*
X016760Y024250D01*
X016760Y024404D01*
X016875Y024327D02*
X016875Y024250D01*
X016875Y024174D02*
X016913Y024135D01*
X016913Y024020D01*
X016913Y023943D02*
X016760Y023943D01*
X016760Y024020D02*
X016760Y024135D01*
X016798Y024174D01*
X016875Y024174D01*
X016913Y024097D02*
X016990Y024174D01*
X016990Y024020D02*
X016760Y024020D01*
X016913Y023943D02*
X016990Y023867D01*
X016913Y023790D01*
X016760Y023790D01*
X016790Y021320D02*
X016760Y021290D01*
X016760Y021260D01*
X016790Y021230D01*
X016880Y021230D01*
X016880Y021170D02*
X016880Y021290D01*
X016850Y021320D01*
X016790Y021320D01*
X016760Y021170D02*
X016790Y021140D01*
X016850Y021140D01*
X016880Y021170D01*
X016944Y021170D02*
X016974Y021140D01*
X017034Y021140D01*
X017064Y021170D01*
X017064Y021200D01*
X017034Y021230D01*
X016944Y021230D01*
X016944Y021170D01*
X016944Y021230D02*
X017004Y021290D01*
X017064Y021320D01*
X017064Y021020D02*
X016944Y021020D01*
X016944Y020930D01*
X017004Y020960D01*
X017034Y020960D01*
X017064Y020930D01*
X017064Y020870D01*
X017034Y020840D01*
X016974Y020840D01*
X016944Y020870D01*
X016880Y020870D02*
X016880Y020990D01*
X016850Y021020D01*
X016790Y021020D01*
X016760Y020990D01*
X016760Y020960D01*
X016790Y020930D01*
X016880Y020930D01*
X016880Y020870D02*
X016850Y020840D01*
X016790Y020840D01*
X016760Y020870D01*
X016790Y020720D02*
X016760Y020690D01*
X016760Y020660D01*
X016790Y020630D01*
X016880Y020630D01*
X016880Y020570D02*
X016880Y020690D01*
X016850Y020720D01*
X016790Y020720D01*
X016760Y020570D02*
X016790Y020540D01*
X016850Y020540D01*
X016880Y020570D01*
X016944Y020630D02*
X017064Y020630D01*
X017034Y020540D02*
X017034Y020720D01*
X016944Y020630D01*
X016974Y020470D02*
X017034Y020470D01*
X017064Y020440D01*
X017064Y020410D01*
X017034Y020380D01*
X017064Y020350D01*
X017064Y020320D01*
X017034Y020290D01*
X016974Y020290D01*
X016944Y020320D01*
X016880Y020320D02*
X016880Y020440D01*
X016850Y020470D01*
X016790Y020470D01*
X016760Y020440D01*
X016760Y020410D01*
X016790Y020380D01*
X016880Y020380D01*
X016880Y020320D02*
X016850Y020290D01*
X016790Y020290D01*
X016760Y020320D01*
X016790Y020170D02*
X016760Y020140D01*
X016760Y020110D01*
X016790Y020080D01*
X016880Y020080D01*
X016880Y020020D02*
X016880Y020140D01*
X016850Y020170D01*
X016790Y020170D01*
X016760Y020020D02*
X016790Y019990D01*
X016850Y019990D01*
X016880Y020020D01*
X016944Y019990D02*
X017064Y020110D01*
X017064Y020140D01*
X017034Y020170D01*
X016974Y020170D01*
X016944Y020140D01*
X016944Y019990D02*
X017064Y019990D01*
X017004Y019920D02*
X017004Y019740D01*
X016974Y019720D02*
X017034Y019720D01*
X017064Y019690D01*
X016944Y019570D01*
X016974Y019540D01*
X017034Y019540D01*
X017064Y019570D01*
X017064Y019690D01*
X017064Y019740D02*
X016944Y019740D01*
X016974Y019720D02*
X016944Y019690D01*
X016944Y019570D01*
X016880Y019570D02*
X016880Y019690D01*
X016850Y019720D01*
X016790Y019720D01*
X016760Y019690D01*
X016760Y019660D01*
X016790Y019630D01*
X016880Y019630D01*
X016880Y019570D02*
X016850Y019540D01*
X016790Y019540D01*
X016760Y019570D01*
X016790Y019740D02*
X016850Y019740D01*
X016880Y019770D01*
X016880Y019890D01*
X016850Y019920D01*
X016790Y019920D01*
X016760Y019890D01*
X016760Y019860D01*
X016790Y019830D01*
X016880Y019830D01*
X016944Y019860D02*
X017004Y019920D01*
X016790Y019740D02*
X016760Y019770D01*
X017004Y020380D02*
X017034Y020380D01*
X016944Y020440D02*
X016974Y020470D01*
X015783Y020470D02*
X015662Y020470D01*
X015662Y020380D01*
X015723Y020410D01*
X015753Y020410D01*
X015783Y020380D01*
X015783Y020320D01*
X015753Y020290D01*
X015692Y020290D01*
X015662Y020320D01*
X015598Y020290D02*
X015598Y020410D01*
X015538Y020470D01*
X015478Y020410D01*
X015478Y020290D01*
X015414Y020290D02*
X015414Y020470D01*
X015354Y020410D01*
X015294Y020470D01*
X015294Y020290D01*
X015294Y020220D02*
X015354Y020160D01*
X015414Y020220D01*
X015414Y020040D01*
X015478Y020040D02*
X015568Y020040D01*
X015598Y020070D01*
X015598Y020190D01*
X015568Y020220D01*
X015478Y020220D01*
X015478Y020040D01*
X015478Y019970D02*
X015568Y019970D01*
X015598Y019940D01*
X015598Y019820D01*
X015568Y019790D01*
X015478Y019790D01*
X015478Y019970D01*
X015414Y019970D02*
X015414Y019790D01*
X015414Y019720D02*
X015414Y019540D01*
X015478Y019540D02*
X015568Y019540D01*
X015598Y019570D01*
X015598Y019690D01*
X015568Y019720D01*
X015478Y019720D01*
X015478Y019540D01*
X015354Y019660D02*
X015414Y019720D01*
X015354Y019660D02*
X015294Y019720D01*
X015294Y019540D01*
X015230Y019630D02*
X015200Y019600D01*
X015110Y019600D01*
X015110Y019540D02*
X015110Y019720D01*
X015200Y019720D01*
X015230Y019690D01*
X015230Y019630D01*
X015294Y019790D02*
X015294Y019970D01*
X015354Y019910D01*
X015414Y019970D01*
X015294Y020040D02*
X015294Y020220D01*
X015230Y020190D02*
X015230Y020130D01*
X015200Y020100D01*
X015110Y020100D01*
X015110Y020040D02*
X015110Y020220D01*
X015200Y020220D01*
X015230Y020190D01*
X015110Y020290D02*
X015110Y020470D01*
X015200Y020470D01*
X015230Y020440D01*
X015230Y020380D01*
X015200Y020350D01*
X015110Y020350D01*
X015110Y020540D02*
X015110Y020720D01*
X015200Y020720D01*
X015230Y020690D01*
X015230Y020630D01*
X015200Y020600D01*
X015110Y020600D01*
X015294Y020540D02*
X015294Y020720D01*
X015354Y020660D01*
X015414Y020720D01*
X015414Y020540D01*
X015478Y020540D02*
X015478Y020660D01*
X015538Y020720D01*
X015598Y020660D01*
X015598Y020540D01*
X015598Y020630D02*
X015478Y020630D01*
X015662Y020630D02*
X015783Y020630D01*
X015753Y020540D02*
X015753Y020720D01*
X015662Y020630D01*
X015692Y020840D02*
X015662Y020870D01*
X015692Y020840D02*
X015753Y020840D01*
X015783Y020870D01*
X015783Y020900D01*
X015753Y020930D01*
X015723Y020930D01*
X015753Y020930D02*
X015783Y020960D01*
X015783Y020990D01*
X015753Y021020D01*
X015692Y021020D01*
X015662Y020990D01*
X015598Y020960D02*
X015598Y020840D01*
X015598Y020930D02*
X015478Y020930D01*
X015478Y020960D02*
X015478Y020840D01*
X015414Y020840D02*
X015414Y021020D01*
X015354Y020960D01*
X015294Y021020D01*
X015294Y020840D01*
X015230Y020930D02*
X015200Y020900D01*
X015110Y020900D01*
X015110Y020840D02*
X015110Y021020D01*
X015200Y021020D01*
X015230Y020990D01*
X015230Y020930D01*
X015294Y021090D02*
X015294Y021270D01*
X015354Y021210D01*
X015414Y021270D01*
X015414Y021090D01*
X015478Y021090D02*
X015478Y021210D01*
X015538Y021270D01*
X015598Y021210D01*
X015598Y021090D01*
X015662Y021090D02*
X015783Y021210D01*
X015783Y021240D01*
X015753Y021270D01*
X015692Y021270D01*
X015662Y021240D01*
X015598Y021180D02*
X015478Y021180D01*
X015538Y021020D02*
X015598Y020960D01*
X015538Y021020D02*
X015478Y020960D01*
X015662Y021090D02*
X015783Y021090D01*
X015230Y021180D02*
X015200Y021150D01*
X015110Y021150D01*
X015110Y021090D02*
X015110Y021270D01*
X015200Y021270D01*
X015230Y021240D01*
X015230Y021180D01*
X015478Y020380D02*
X015598Y020380D01*
X015662Y020220D02*
X015783Y020220D01*
X015783Y020190D01*
X015662Y020070D01*
X015662Y020040D01*
X015723Y019940D02*
X015662Y019880D01*
X015753Y019880D01*
X015783Y019850D01*
X015783Y019820D01*
X015753Y019790D01*
X015692Y019790D01*
X015662Y019820D01*
X015662Y019880D01*
X015723Y019940D02*
X015783Y019970D01*
X015783Y019720D02*
X015662Y019720D01*
X015662Y019630D01*
X015723Y019660D01*
X015753Y019660D01*
X015783Y019630D01*
X015783Y019570D01*
X015753Y019540D01*
X015692Y019540D01*
X015662Y019570D01*
X015230Y019880D02*
X015200Y019850D01*
X015110Y019850D01*
X015110Y019790D02*
X015110Y019970D01*
X015200Y019970D01*
X015230Y019940D01*
X015230Y019880D01*
X015194Y018970D02*
X015254Y018910D01*
X015314Y018970D01*
X015314Y018790D01*
X015378Y018790D02*
X015468Y018790D01*
X015498Y018820D01*
X015498Y018940D01*
X015468Y018970D01*
X015378Y018970D01*
X015378Y018790D01*
X015378Y018720D02*
X015468Y018720D01*
X015498Y018690D01*
X015498Y018570D01*
X015468Y018540D01*
X015378Y018540D01*
X015378Y018720D01*
X015314Y018720D02*
X015314Y018540D01*
X015314Y018470D02*
X015314Y018290D01*
X015378Y018290D02*
X015468Y018290D01*
X015498Y018320D01*
X015498Y018440D01*
X015468Y018470D01*
X015378Y018470D01*
X015378Y018290D01*
X015378Y018220D02*
X015468Y018220D01*
X015498Y018190D01*
X015498Y018070D01*
X015468Y018040D01*
X015378Y018040D01*
X015378Y018220D01*
X015314Y018220D02*
X015314Y018040D01*
X015314Y017970D02*
X015314Y017790D01*
X015378Y017790D02*
X015378Y017970D01*
X015468Y017970D01*
X015498Y017940D01*
X015498Y017820D01*
X015468Y017790D01*
X015378Y017790D01*
X015378Y017720D02*
X015468Y017720D01*
X015498Y017690D01*
X015498Y017630D01*
X015468Y017600D01*
X015378Y017600D01*
X015378Y017540D02*
X015378Y017720D01*
X015438Y017600D02*
X015498Y017540D01*
X015562Y017540D02*
X015623Y017600D01*
X015683Y017540D01*
X015683Y017720D01*
X015653Y017790D02*
X015592Y017790D01*
X015562Y017820D01*
X015683Y017940D01*
X015683Y017820D01*
X015653Y017790D01*
X015562Y017820D02*
X015562Y017940D01*
X015592Y017970D01*
X015653Y017970D01*
X015683Y017940D01*
X015683Y018040D02*
X015562Y018040D01*
X015623Y018040D02*
X015623Y018220D01*
X015562Y018160D01*
X015562Y018290D02*
X015683Y018410D01*
X015683Y018440D01*
X015653Y018470D01*
X015592Y018470D01*
X015562Y018440D01*
X015592Y018540D02*
X015562Y018570D01*
X015592Y018540D02*
X015653Y018540D01*
X015683Y018570D01*
X015683Y018600D01*
X015653Y018630D01*
X015623Y018630D01*
X015653Y018630D02*
X015683Y018660D01*
X015683Y018690D01*
X015653Y018720D01*
X015592Y018720D01*
X015562Y018690D01*
X015653Y018790D02*
X015653Y018970D01*
X015562Y018880D01*
X015683Y018880D01*
X015314Y018720D02*
X015254Y018660D01*
X015194Y018720D01*
X015194Y018540D01*
X015194Y018470D02*
X015254Y018410D01*
X015314Y018470D01*
X015194Y018470D02*
X015194Y018290D01*
X015194Y018220D02*
X015254Y018160D01*
X015314Y018220D01*
X015194Y018220D02*
X015194Y018040D01*
X015194Y017970D02*
X015254Y017910D01*
X015314Y017970D01*
X015194Y017970D02*
X015194Y017790D01*
X015130Y017880D02*
X015100Y017850D01*
X015010Y017850D01*
X015010Y017790D02*
X015010Y017970D01*
X015100Y017970D01*
X015130Y017940D01*
X015130Y017880D01*
X015100Y017720D02*
X015010Y017720D01*
X015010Y017540D01*
X015100Y017540D01*
X015130Y017570D01*
X015130Y017690D01*
X015100Y017720D01*
X015194Y017510D02*
X015314Y017510D01*
X015284Y017445D02*
X015224Y017445D01*
X015194Y017415D01*
X015194Y017385D01*
X015224Y017355D01*
X015284Y017355D01*
X015314Y017325D01*
X015314Y017295D01*
X015284Y017265D01*
X015224Y017265D01*
X015194Y017295D01*
X015130Y017295D02*
X015130Y017415D01*
X015100Y017445D01*
X015010Y017445D01*
X015010Y017265D01*
X015100Y017265D01*
X015130Y017295D01*
X015100Y017195D02*
X015130Y017165D01*
X015130Y017105D01*
X015100Y017075D01*
X015010Y017075D01*
X015010Y017015D02*
X015010Y017195D01*
X015100Y017195D01*
X015194Y017165D02*
X015194Y017045D01*
X015224Y017015D01*
X015284Y017015D01*
X015314Y017045D01*
X015378Y017015D02*
X015378Y017195D01*
X015314Y017165D02*
X015284Y017195D01*
X015224Y017195D01*
X015194Y017165D01*
X015070Y017075D02*
X015130Y017015D01*
X015378Y017015D02*
X015498Y017015D01*
X015562Y017015D02*
X015562Y017195D01*
X015562Y017265D02*
X015653Y017265D01*
X015683Y017295D01*
X015683Y017325D01*
X015653Y017355D01*
X015562Y017355D01*
X015562Y017265D02*
X015562Y017445D01*
X015653Y017445D01*
X015683Y017415D01*
X015683Y017385D01*
X015653Y017355D01*
X015683Y017195D02*
X015562Y017075D01*
X015592Y017105D02*
X015683Y017015D01*
X015438Y017265D02*
X015438Y017445D01*
X015378Y017445D02*
X015498Y017445D01*
X015562Y017540D02*
X015562Y017720D01*
X015284Y017445D02*
X015314Y017415D01*
X015010Y018040D02*
X015010Y018220D01*
X015100Y018220D01*
X015130Y018190D01*
X015130Y018130D01*
X015100Y018100D01*
X015010Y018100D01*
X015010Y018290D02*
X015010Y018470D01*
X015100Y018470D01*
X015130Y018440D01*
X015130Y018380D01*
X015100Y018350D01*
X015010Y018350D01*
X015010Y018540D02*
X015010Y018720D01*
X015100Y018720D01*
X015130Y018690D01*
X015130Y018630D01*
X015100Y018600D01*
X015010Y018600D01*
X015010Y018790D02*
X015010Y018970D01*
X015100Y018970D01*
X015130Y018940D01*
X015130Y018880D01*
X015100Y018850D01*
X015010Y018850D01*
X015194Y018790D02*
X015194Y018970D01*
X015562Y018290D02*
X015683Y018290D01*
X016760Y018295D02*
X016790Y018265D01*
X016850Y018265D01*
X016880Y018295D01*
X016880Y018325D01*
X016850Y018355D01*
X016790Y018355D01*
X016760Y018385D01*
X016760Y018415D01*
X016790Y018445D01*
X016850Y018445D01*
X016880Y018415D01*
X016880Y018385D01*
X016850Y018355D01*
X016790Y018355D02*
X016760Y018325D01*
X016760Y018295D01*
X016790Y018195D02*
X016850Y018195D01*
X016880Y018165D01*
X016880Y018135D01*
X016850Y018105D01*
X016790Y018105D01*
X016760Y018135D01*
X016760Y018165D01*
X016790Y018195D01*
X016790Y018105D02*
X016760Y018075D01*
X016760Y018045D01*
X016790Y018015D01*
X016850Y018015D01*
X016880Y018045D01*
X016880Y018075D01*
X016850Y018105D01*
X016944Y018045D02*
X016974Y018015D01*
X017034Y018015D01*
X017064Y018045D01*
X017064Y018075D01*
X017034Y018105D01*
X017004Y018105D01*
X017034Y018105D02*
X017064Y018135D01*
X017064Y018165D01*
X017034Y018195D01*
X016974Y018195D01*
X016944Y018165D01*
X017034Y018265D02*
X017034Y018445D01*
X016944Y018355D01*
X017064Y018355D01*
X017034Y018515D02*
X016974Y018515D01*
X016944Y018545D01*
X016944Y018605D02*
X017004Y018635D01*
X017034Y018635D01*
X017064Y018605D01*
X017064Y018545D01*
X017034Y018515D01*
X016944Y018605D02*
X016944Y018695D01*
X017064Y018695D01*
X017034Y018765D02*
X017064Y018795D01*
X017064Y018825D01*
X017034Y018855D01*
X016944Y018855D01*
X016944Y018795D01*
X016974Y018765D01*
X017034Y018765D01*
X016944Y018855D02*
X017004Y018915D01*
X017064Y018945D01*
X016880Y018915D02*
X016880Y018885D01*
X016850Y018855D01*
X016790Y018855D01*
X016760Y018885D01*
X016760Y018915D01*
X016790Y018945D01*
X016850Y018945D01*
X016880Y018915D01*
X016850Y018855D02*
X016880Y018825D01*
X016880Y018795D01*
X016850Y018765D01*
X016790Y018765D01*
X016760Y018795D01*
X016760Y018825D01*
X016790Y018855D01*
X016790Y018695D02*
X016850Y018695D01*
X016880Y018665D01*
X016880Y018635D01*
X016850Y018605D01*
X016790Y018605D01*
X016760Y018635D01*
X016760Y018665D01*
X016790Y018695D01*
X016790Y018605D02*
X016760Y018575D01*
X016760Y018545D01*
X016790Y018515D01*
X016850Y018515D01*
X016880Y018545D01*
X016880Y018575D01*
X016850Y018605D01*
X016850Y017945D02*
X016790Y017945D01*
X016760Y017915D01*
X016760Y017885D01*
X016790Y017855D01*
X016850Y017855D01*
X016880Y017825D01*
X016880Y017795D01*
X016850Y017765D01*
X016790Y017765D01*
X016760Y017795D01*
X016760Y017825D01*
X016790Y017855D01*
X016850Y017855D02*
X016880Y017885D01*
X016880Y017915D01*
X016850Y017945D01*
X016944Y017915D02*
X016974Y017945D01*
X017034Y017945D01*
X017064Y017915D01*
X017064Y017885D01*
X016944Y017765D01*
X017064Y017765D01*
X017004Y017695D02*
X017004Y017515D01*
X016974Y017470D02*
X017034Y017470D01*
X017064Y017440D01*
X016944Y017320D01*
X016974Y017290D01*
X017034Y017290D01*
X017064Y017320D01*
X017064Y017440D01*
X017064Y017515D02*
X016944Y017515D01*
X016974Y017470D02*
X016944Y017440D01*
X016944Y017320D01*
X016880Y017320D02*
X016850Y017290D01*
X016790Y017290D01*
X016760Y017320D01*
X016760Y017350D01*
X016790Y017380D01*
X016850Y017380D01*
X016880Y017350D01*
X016880Y017320D01*
X016850Y017380D02*
X016880Y017410D01*
X016880Y017440D01*
X016850Y017470D01*
X016790Y017470D01*
X016760Y017440D01*
X016760Y017410D01*
X016790Y017380D01*
X016790Y017515D02*
X016760Y017545D01*
X016760Y017575D01*
X016790Y017605D01*
X016850Y017605D01*
X016880Y017575D01*
X016880Y017545D01*
X016850Y017515D01*
X016790Y017515D01*
X016790Y017605D02*
X016760Y017635D01*
X016760Y017665D01*
X016790Y017695D01*
X016850Y017695D01*
X016880Y017665D01*
X016880Y017635D01*
X016850Y017605D01*
X016944Y017635D02*
X017004Y017695D01*
X016974Y017220D02*
X016944Y017190D01*
X016944Y017160D01*
X016974Y017130D01*
X017064Y017130D01*
X017064Y017070D02*
X017064Y017190D01*
X017034Y017220D01*
X016974Y017220D01*
X016880Y017220D02*
X016880Y017190D01*
X016760Y017070D01*
X016760Y017040D01*
X016760Y017220D02*
X016880Y017220D01*
X016944Y017070D02*
X016974Y017040D01*
X017034Y017040D01*
X017064Y017070D01*
X012194Y023290D02*
X012194Y023320D01*
X012314Y023440D01*
X012314Y023470D01*
X012194Y023470D01*
X012130Y023440D02*
X012100Y023470D01*
X012040Y023470D01*
X012010Y023440D01*
X012010Y023410D01*
X012040Y023380D01*
X012130Y023380D01*
X012130Y023320D02*
X012130Y023440D01*
X012100Y023540D02*
X012130Y023570D01*
X012130Y023690D01*
X012100Y023720D01*
X012040Y023720D01*
X012010Y023690D01*
X012010Y023660D01*
X012040Y023630D01*
X012130Y023630D01*
X012194Y023600D02*
X012194Y023570D01*
X012224Y023540D01*
X012284Y023540D01*
X012314Y023570D01*
X012314Y023600D01*
X012284Y023630D01*
X012224Y023630D01*
X012194Y023660D01*
X012194Y023690D01*
X012224Y023720D01*
X012284Y023720D01*
X012314Y023690D01*
X012314Y023660D01*
X012284Y023630D01*
X012224Y023630D02*
X012194Y023600D01*
X012100Y023540D02*
X012040Y023540D01*
X012010Y023570D01*
X012010Y023320D02*
X012040Y023290D01*
X012100Y023290D01*
X012130Y023320D01*
X011183Y023290D02*
X011062Y023290D01*
X011123Y023290D02*
X011123Y023470D01*
X011062Y023410D01*
X010998Y023410D02*
X010998Y023290D01*
X010998Y023380D02*
X010878Y023380D01*
X010878Y023410D02*
X010938Y023470D01*
X010998Y023410D01*
X010878Y023410D02*
X010878Y023290D01*
X010814Y023290D02*
X010814Y023470D01*
X010754Y023410D01*
X010694Y023470D01*
X010694Y023290D01*
X010630Y023380D02*
X010600Y023350D01*
X010510Y023350D01*
X010510Y023290D02*
X010510Y023470D01*
X010600Y023470D01*
X010630Y023440D01*
X010630Y023380D01*
X010694Y023540D02*
X010694Y023720D01*
X010754Y023660D01*
X010814Y023720D01*
X010814Y023540D01*
X010878Y023540D02*
X010878Y023660D01*
X010938Y023720D01*
X010998Y023660D01*
X010998Y023540D01*
X011062Y023570D02*
X011183Y023690D01*
X011183Y023570D01*
X011153Y023540D01*
X011092Y023540D01*
X011062Y023570D01*
X011062Y023690D01*
X011092Y023720D01*
X011153Y023720D01*
X011183Y023690D01*
X010998Y023630D02*
X010878Y023630D01*
X010630Y023630D02*
X010600Y023600D01*
X010510Y023600D01*
X010510Y023540D02*
X010510Y023720D01*
X010600Y023720D01*
X010630Y023690D01*
X010630Y023630D01*
X016010Y026368D02*
X016048Y026330D01*
X016202Y026330D01*
X016240Y026368D01*
X016240Y026445D01*
X016202Y026483D01*
X016240Y026560D02*
X016240Y026713D01*
X016240Y026637D02*
X016010Y026637D01*
X016087Y026560D01*
X016048Y026483D02*
X016010Y026445D01*
X016010Y026368D01*
X016510Y026368D02*
X016548Y026330D01*
X016702Y026330D01*
X016740Y026368D01*
X016740Y026445D01*
X016702Y026483D01*
X016740Y026560D02*
X016587Y026713D01*
X016548Y026713D01*
X016510Y026675D01*
X016510Y026598D01*
X016548Y026560D01*
X016548Y026483D02*
X016510Y026445D01*
X016510Y026368D01*
X016740Y026560D02*
X016740Y026713D01*
X016690Y029840D02*
X016690Y029993D01*
X016690Y029917D02*
X016460Y029917D01*
X016537Y029840D01*
X016498Y030070D02*
X016460Y030109D01*
X016460Y030185D01*
X016498Y030224D01*
X016537Y030224D01*
X016575Y030185D01*
X016613Y030224D01*
X016652Y030224D01*
X016690Y030185D01*
X016690Y030109D01*
X016652Y030070D01*
X016575Y030147D02*
X016575Y030185D01*
X016960Y030224D02*
X016960Y030070D01*
X017075Y030070D01*
X017037Y030147D01*
X017037Y030185D01*
X017075Y030224D01*
X017152Y030224D01*
X017190Y030185D01*
X017190Y030109D01*
X017152Y030070D01*
X017190Y029993D02*
X017190Y029840D01*
X017190Y029917D02*
X016960Y029917D01*
X017037Y029840D01*
X017560Y029917D02*
X017790Y029917D01*
X017790Y029993D02*
X017790Y029840D01*
X017637Y029840D02*
X017560Y029917D01*
X017675Y030070D02*
X017675Y030185D01*
X017713Y030224D01*
X017752Y030224D01*
X017790Y030185D01*
X017790Y030109D01*
X017752Y030070D01*
X017675Y030070D01*
X017598Y030147D01*
X017560Y030224D01*
X018060Y030185D02*
X018060Y030109D01*
X018098Y030070D01*
X018137Y030070D01*
X018175Y030109D01*
X018175Y030224D01*
X018252Y030224D02*
X018098Y030224D01*
X018060Y030185D01*
X018252Y030224D02*
X018290Y030185D01*
X018290Y030109D01*
X018252Y030070D01*
X018290Y029993D02*
X018290Y029840D01*
X018290Y029917D02*
X018060Y029917D01*
X018137Y029840D01*
X018660Y029878D02*
X018698Y029840D01*
X018660Y029878D02*
X018660Y029955D01*
X018698Y029993D01*
X018737Y029993D01*
X018890Y029840D01*
X018890Y029993D01*
X018852Y030070D02*
X018698Y030224D01*
X018852Y030224D01*
X018890Y030185D01*
X018890Y030109D01*
X018852Y030070D01*
X018698Y030070D01*
X018660Y030109D01*
X018660Y030185D01*
X018698Y030224D01*
X019160Y030147D02*
X019390Y030147D01*
X019390Y030070D02*
X019390Y030224D01*
X019237Y030070D02*
X019160Y030147D01*
X019198Y029993D02*
X019160Y029955D01*
X019160Y029878D01*
X019198Y029840D01*
X019198Y029993D02*
X019237Y029993D01*
X019390Y029840D01*
X019390Y029993D01*
X019660Y029955D02*
X019660Y029878D01*
X019698Y029840D01*
X019660Y029955D02*
X019698Y029993D01*
X019737Y029993D01*
X019890Y029840D01*
X019890Y029993D01*
X019890Y030070D02*
X019737Y030224D01*
X019698Y030224D01*
X019660Y030185D01*
X019660Y030109D01*
X019698Y030070D01*
X019890Y030070D02*
X019890Y030224D01*
X020247Y030185D02*
X020286Y030224D01*
X020324Y030224D01*
X020362Y030185D01*
X020401Y030224D01*
X020439Y030224D01*
X020478Y030185D01*
X020478Y030109D01*
X020439Y030070D01*
X020478Y029993D02*
X020478Y029840D01*
X020324Y029993D01*
X020286Y029993D01*
X020247Y029955D01*
X020247Y029878D01*
X020286Y029840D01*
X020286Y030070D02*
X020247Y030109D01*
X020247Y030185D01*
X020362Y030185D02*
X020362Y030147D01*
X016090Y030147D02*
X015860Y030147D01*
X015937Y030070D01*
X016090Y030070D02*
X016090Y030224D01*
X016090Y029993D02*
X016090Y029840D01*
X016090Y029917D02*
X015860Y029917D01*
X015937Y029840D01*
X015490Y029840D02*
X015490Y029993D01*
X015490Y029917D02*
X015260Y029917D01*
X015337Y029840D01*
X015298Y030070D02*
X015260Y030109D01*
X015260Y030185D01*
X015298Y030224D01*
X015452Y030070D01*
X015490Y030109D01*
X015490Y030185D01*
X015452Y030224D01*
X015298Y030224D01*
X015298Y030070D02*
X015452Y030070D01*
X014990Y029955D02*
X014990Y029878D01*
X014952Y029840D01*
X014913Y029840D01*
X014875Y029878D01*
X014875Y029955D01*
X014913Y029993D01*
X014952Y029993D01*
X014990Y029955D01*
X014875Y029955D02*
X014837Y029993D01*
X014798Y029993D01*
X014760Y029955D01*
X014760Y029878D01*
X014798Y029840D01*
X014837Y029840D01*
X014875Y029878D01*
X014490Y029840D02*
X014452Y029840D01*
X014298Y029993D01*
X014260Y029993D01*
X014260Y029840D01*
X013890Y029878D02*
X013890Y029955D01*
X013852Y029993D01*
X013813Y029993D01*
X013775Y029955D01*
X013775Y029840D01*
X013852Y029840D01*
X013890Y029878D01*
X013775Y029840D02*
X013698Y029917D01*
X013660Y029993D01*
X013390Y029955D02*
X013390Y029878D01*
X013352Y029840D01*
X013275Y029840D02*
X013237Y029917D01*
X013237Y029955D01*
X013275Y029993D01*
X013352Y029993D01*
X013390Y029955D01*
X013275Y029840D02*
X013160Y029840D01*
X013160Y029993D01*
X012790Y029955D02*
X012560Y029955D01*
X012675Y029840D01*
X012675Y029993D01*
X012290Y029955D02*
X012290Y029878D01*
X012252Y029840D01*
X012175Y029917D02*
X012175Y029955D01*
X012213Y029993D01*
X012252Y029993D01*
X012290Y029955D01*
X012175Y029955D02*
X012137Y029993D01*
X012098Y029993D01*
X012060Y029955D01*
X012060Y029878D01*
X012098Y029840D01*
X011790Y029840D02*
X011637Y029993D01*
X011598Y029993D01*
X011560Y029955D01*
X011560Y029878D01*
X011598Y029840D01*
X011790Y029840D02*
X011790Y029993D01*
D12*
X012170Y027874D02*
X012170Y027647D01*
X012170Y027760D02*
X011830Y027760D01*
X011943Y027647D01*
X011851Y027242D02*
X011681Y027242D01*
X011681Y027015D01*
X011549Y027015D02*
X011435Y027015D01*
X011492Y027015D02*
X011492Y027355D01*
X011435Y027355D02*
X011549Y027355D01*
X011851Y027242D02*
X011908Y027185D01*
X011908Y027015D01*
X011170Y027647D02*
X010943Y027874D01*
X010886Y027874D01*
X010830Y027817D01*
X010830Y027703D01*
X010886Y027647D01*
X011170Y027647D02*
X011170Y027874D01*
X010926Y027242D02*
X010756Y027242D01*
X010699Y027185D01*
X010699Y027072D01*
X010756Y027015D01*
X010926Y027015D01*
X010926Y026958D02*
X010926Y027242D01*
X010926Y026958D02*
X010869Y026902D01*
X010812Y026902D01*
X010557Y027072D02*
X010557Y027185D01*
X010501Y027242D01*
X010387Y027242D01*
X010330Y027185D01*
X010330Y027072D01*
X010387Y027015D01*
X010501Y027015D01*
X010557Y027072D01*
X010198Y027015D02*
X010085Y027015D01*
X010142Y027015D02*
X010142Y027355D01*
X010085Y027355D01*
X009943Y027185D02*
X009943Y027015D01*
X009773Y027015D01*
X009717Y027072D01*
X009773Y027128D01*
X009943Y027128D01*
X009943Y027185D02*
X009887Y027242D01*
X009773Y027242D01*
X009575Y027185D02*
X009575Y027015D01*
X009575Y027185D02*
X009518Y027242D01*
X009348Y027242D01*
X009348Y027015D01*
X009207Y027015D02*
X009207Y027242D01*
X009093Y027355D01*
X008980Y027242D01*
X008980Y027015D01*
X008980Y027185D02*
X009207Y027185D01*
X009000Y027647D02*
X009000Y027874D01*
X009170Y027817D02*
X008830Y027817D01*
X009000Y027647D01*
X009830Y027703D02*
X009830Y027817D01*
X009886Y027874D01*
X009943Y027874D01*
X010000Y027817D01*
X010057Y027874D01*
X010113Y027874D01*
X010170Y027817D01*
X010170Y027703D01*
X010113Y027647D01*
X010000Y027760D02*
X010000Y027817D01*
X009886Y027647D02*
X009830Y027703D01*
X008400Y026680D02*
X008250Y026680D01*
X008250Y026530D01*
X008250Y026680D02*
X008100Y026680D01*
X008250Y026680D02*
X008250Y026830D01*
X008113Y027647D02*
X008170Y027703D01*
X008170Y027817D01*
X008113Y027874D01*
X008000Y027874D01*
X007943Y027817D01*
X007943Y027760D01*
X008000Y027647D01*
X007830Y027647D01*
X007830Y027874D01*
X006650Y026030D02*
X006652Y026096D01*
X006658Y026161D01*
X006668Y026226D01*
X006681Y026291D01*
X006699Y026354D01*
X006720Y026417D01*
X006745Y026477D01*
X006774Y026537D01*
X006806Y026594D01*
X006841Y026650D01*
X006880Y026703D01*
X006922Y026754D01*
X006966Y026802D01*
X007014Y026847D01*
X007064Y026890D01*
X007117Y026929D01*
X007172Y026966D01*
X007229Y026999D01*
X007288Y027028D01*
X007348Y027054D01*
X007410Y027076D01*
X007473Y027095D01*
X007537Y027109D01*
X007602Y027120D01*
X007668Y027127D01*
X007734Y027130D01*
X007799Y027129D01*
X007865Y027124D01*
X007930Y027115D01*
X007995Y027102D01*
X008058Y027086D01*
X008121Y027066D01*
X008182Y027041D01*
X008242Y027014D01*
X008300Y026983D01*
X008356Y026948D01*
X008410Y026910D01*
X008461Y026869D01*
X008510Y026825D01*
X008556Y026778D01*
X008600Y026729D01*
X008640Y026677D01*
X008677Y026622D01*
X008711Y026566D01*
X008741Y026507D01*
X008768Y026447D01*
X008791Y026386D01*
X008810Y026323D01*
X008826Y026259D01*
X008838Y026194D01*
X008846Y026129D01*
X008850Y026063D01*
X008850Y025997D01*
X008846Y025931D01*
X008838Y025866D01*
X008826Y025801D01*
X008810Y025737D01*
X008791Y025674D01*
X008768Y025613D01*
X008741Y025553D01*
X008711Y025494D01*
X008677Y025438D01*
X008640Y025383D01*
X008600Y025331D01*
X008556Y025282D01*
X008510Y025235D01*
X008461Y025191D01*
X008410Y025150D01*
X008356Y025112D01*
X008300Y025077D01*
X008242Y025046D01*
X008182Y025019D01*
X008121Y024994D01*
X008058Y024974D01*
X007995Y024958D01*
X007930Y024945D01*
X007865Y024936D01*
X007799Y024931D01*
X007734Y024930D01*
X007668Y024933D01*
X007602Y024940D01*
X007537Y024951D01*
X007473Y024965D01*
X007410Y024984D01*
X007348Y025006D01*
X007288Y025032D01*
X007229Y025061D01*
X007172Y025094D01*
X007117Y025131D01*
X007064Y025170D01*
X007014Y025213D01*
X006966Y025258D01*
X006922Y025306D01*
X006880Y025357D01*
X006841Y025410D01*
X006806Y025466D01*
X006774Y025523D01*
X006745Y025583D01*
X006720Y025643D01*
X006699Y025706D01*
X006681Y025769D01*
X006668Y025834D01*
X006658Y025899D01*
X006652Y025964D01*
X006650Y026030D01*
X009240Y023460D02*
X009240Y023370D01*
X009640Y023370D01*
X009640Y023460D01*
X009240Y023460D01*
X009240Y023310D02*
X009240Y023220D01*
X009640Y023220D01*
X009640Y023310D01*
X009240Y023310D01*
X009240Y023150D02*
X009240Y023060D01*
X009640Y023060D01*
X009640Y023150D01*
X009240Y023150D01*
X009240Y022990D02*
X009240Y022900D01*
X009640Y022900D01*
X009640Y022990D01*
X009240Y022990D01*
X009240Y022830D02*
X009240Y022740D01*
X009640Y022740D01*
X009640Y022830D01*
X009240Y022830D01*
X009240Y022680D02*
X009240Y022590D01*
X009640Y022590D01*
X009640Y022680D01*
X009240Y022680D01*
X009240Y022520D02*
X009240Y022430D01*
X009640Y022430D01*
X009640Y022520D01*
X009240Y022520D01*
X009240Y022360D02*
X009240Y022270D01*
X009640Y022270D01*
X009640Y022360D01*
X009240Y022360D01*
X009240Y022200D02*
X009240Y022110D01*
X009640Y022110D01*
X009640Y022200D01*
X009240Y022200D01*
X009240Y022050D02*
X009240Y021960D01*
X009640Y021960D01*
X009640Y022050D01*
X009240Y022050D01*
X009240Y021890D02*
X009240Y021800D01*
X009640Y021800D01*
X009640Y021890D01*
X009240Y021890D01*
X009240Y021730D02*
X009240Y021640D01*
X009640Y021640D01*
X009640Y021730D01*
X009240Y021730D01*
X009240Y021580D02*
X009240Y021490D01*
X009640Y021490D01*
X009640Y021580D01*
X009240Y021580D01*
X009240Y021420D02*
X009240Y021330D01*
X009640Y021330D01*
X009640Y021420D01*
X009240Y021420D01*
X009240Y021260D02*
X009240Y021170D01*
X009640Y021170D01*
X009640Y021260D01*
X009240Y021260D01*
X009240Y021100D02*
X009240Y021010D01*
X009640Y021010D01*
X009640Y021100D01*
X009240Y021100D01*
X009240Y020950D02*
X009240Y020860D01*
X009640Y020860D01*
X009640Y020950D01*
X009240Y020950D01*
X009240Y020790D02*
X009240Y020700D01*
X009640Y020700D01*
X009640Y020790D01*
X009240Y020790D01*
X009240Y020630D02*
X009240Y020540D01*
X009640Y020540D01*
X009640Y020630D01*
X009240Y020630D01*
X009240Y020470D02*
X009240Y020380D01*
X009640Y020380D01*
X009640Y020470D01*
X009240Y020470D01*
X009240Y020320D02*
X009240Y020230D01*
X009640Y020230D01*
X009640Y020320D01*
X009240Y020320D01*
X009240Y020160D02*
X009240Y020070D01*
X009640Y020070D01*
X009640Y020160D01*
X009240Y020160D01*
X009240Y020000D02*
X009240Y019910D01*
X009640Y019910D01*
X009640Y020000D01*
X009240Y020000D01*
X009240Y019840D02*
X009240Y019750D01*
X009640Y019750D01*
X009640Y019840D01*
X009240Y019840D01*
X009240Y019690D02*
X009240Y019600D01*
X009640Y019600D01*
X009640Y019690D01*
X009240Y019690D01*
X009640Y019170D02*
X014360Y019170D01*
X014360Y023890D01*
X009640Y023890D01*
X009640Y019170D01*
X010070Y019170D02*
X010070Y018770D01*
X010160Y018770D01*
X010160Y019170D01*
X010070Y019170D01*
X010220Y019170D02*
X010220Y018770D01*
X010310Y018770D01*
X010310Y019170D01*
X010220Y019170D01*
X010380Y019170D02*
X010380Y018770D01*
X010470Y018770D01*
X010470Y019170D01*
X010380Y019170D01*
X010540Y019170D02*
X010540Y018770D01*
X010630Y018770D01*
X010630Y019170D01*
X010540Y019170D01*
X010700Y019170D02*
X010700Y018770D01*
X010790Y018770D01*
X010790Y019170D01*
X010700Y019170D01*
X010850Y019170D02*
X010850Y018770D01*
X010940Y018770D01*
X010940Y019170D01*
X010850Y019170D01*
X011010Y019170D02*
X011010Y018770D01*
X011100Y018770D01*
X011100Y019170D01*
X011010Y019170D01*
X011170Y019170D02*
X011170Y018770D01*
X011260Y018770D01*
X011260Y019170D01*
X011170Y019170D01*
X011330Y019170D02*
X011330Y018770D01*
X011420Y018770D01*
X011420Y019170D01*
X011330Y019170D01*
X011480Y019170D02*
X011480Y018770D01*
X011570Y018770D01*
X011570Y019170D01*
X011480Y019170D01*
X011640Y019170D02*
X011640Y018770D01*
X011730Y018770D01*
X011730Y019170D01*
X011640Y019170D01*
X011800Y019170D02*
X011800Y018770D01*
X011890Y018770D01*
X011890Y019170D01*
X011800Y019170D01*
X011950Y019170D02*
X011950Y018770D01*
X012040Y018770D01*
X012040Y019170D01*
X011950Y019170D01*
X012110Y019170D02*
X012110Y018770D01*
X012200Y018770D01*
X012200Y019170D01*
X012110Y019170D01*
X012270Y019170D02*
X012270Y018770D01*
X012360Y018770D01*
X012360Y019170D01*
X012270Y019170D01*
X012430Y019170D02*
X012430Y018770D01*
X012520Y018770D01*
X012520Y019170D01*
X012430Y019170D01*
X012580Y019170D02*
X012580Y018770D01*
X012670Y018770D01*
X012670Y019170D01*
X012580Y019170D01*
X012740Y019170D02*
X012740Y018770D01*
X012830Y018770D01*
X012830Y019170D01*
X012740Y019170D01*
X012900Y019170D02*
X012900Y018770D01*
X012990Y018770D01*
X012990Y019170D01*
X012900Y019170D01*
X013060Y019170D02*
X013060Y018770D01*
X013150Y018770D01*
X013150Y019170D01*
X013060Y019170D01*
X013210Y019170D02*
X013210Y018770D01*
X013300Y018770D01*
X013300Y019170D01*
X013210Y019170D01*
X013370Y019170D02*
X013370Y018770D01*
X013460Y018770D01*
X013460Y019170D01*
X013370Y019170D01*
X013530Y019170D02*
X013530Y018770D01*
X013620Y018770D01*
X013620Y019170D01*
X013530Y019170D01*
X013690Y019170D02*
X013690Y018770D01*
X013780Y018770D01*
X013780Y019170D01*
X013690Y019170D01*
X013840Y019170D02*
X013840Y018770D01*
X013930Y018770D01*
X013930Y019170D01*
X013860Y019170D01*
X014360Y019670D01*
X014360Y019600D01*
X014360Y019670D02*
X014360Y019690D01*
X014360Y019750D02*
X014360Y019840D01*
X014360Y019910D02*
X014760Y019910D01*
X014760Y020000D01*
X014360Y020000D01*
X014360Y019910D01*
X014360Y020070D02*
X014760Y020070D01*
X014760Y020160D01*
X014360Y020160D01*
X014360Y020070D01*
X014360Y020230D02*
X014760Y020230D01*
X014760Y020320D01*
X014360Y020320D01*
X014360Y020230D01*
X014360Y020380D02*
X014760Y020380D01*
X014760Y020470D01*
X014360Y020470D01*
X014360Y020380D01*
X014360Y020540D02*
X014760Y020540D01*
X014760Y020630D01*
X014360Y020630D01*
X014360Y020540D01*
X014360Y020700D02*
X014760Y020700D01*
X014760Y020790D01*
X014360Y020790D01*
X014360Y020700D01*
X014360Y020860D02*
X014760Y020860D01*
X014760Y020950D01*
X014360Y020950D01*
X014360Y020860D01*
X014360Y021010D02*
X014760Y021010D01*
X014760Y021100D01*
X014360Y021100D01*
X014360Y021010D01*
X014360Y021170D02*
X014760Y021170D01*
X014760Y021260D01*
X014360Y021260D01*
X014360Y021170D01*
X014360Y021330D02*
X014760Y021330D01*
X014760Y021420D01*
X014360Y021420D01*
X014360Y021330D01*
X014360Y021480D02*
X014760Y021480D01*
X014760Y021570D01*
X014360Y021570D01*
X014360Y021480D01*
X014360Y021640D02*
X014760Y021640D01*
X014760Y021730D01*
X014360Y021730D01*
X014360Y021640D01*
X014360Y021800D02*
X014760Y021800D01*
X014760Y021890D01*
X014360Y021890D01*
X014360Y021800D01*
X014360Y021960D02*
X014760Y021960D01*
X014760Y022050D01*
X014360Y022050D01*
X014360Y021960D01*
X014360Y022110D02*
X014760Y022110D01*
X014760Y022200D01*
X014360Y022200D01*
X014360Y022110D01*
X014360Y022270D02*
X014760Y022270D01*
X014760Y022360D01*
X014360Y022360D01*
X014360Y022270D01*
X014360Y022430D02*
X014760Y022430D01*
X014760Y022520D01*
X014360Y022520D01*
X014360Y022430D01*
X014360Y022590D02*
X014760Y022590D01*
X014760Y022680D01*
X014360Y022680D01*
X014360Y022590D01*
X014360Y022740D02*
X014760Y022740D01*
X014760Y022830D01*
X014360Y022830D01*
X014360Y022740D01*
X014360Y022900D02*
X014760Y022900D01*
X014760Y022990D01*
X014360Y022990D01*
X014360Y022900D01*
X014360Y023060D02*
X014760Y023060D01*
X014760Y023150D01*
X014360Y023150D01*
X014360Y023060D01*
X014360Y023220D02*
X014760Y023220D01*
X014760Y023310D01*
X014360Y023310D01*
X014360Y023220D01*
X014360Y023370D02*
X014760Y023370D01*
X014760Y023460D01*
X014360Y023460D01*
X014360Y023370D01*
X013930Y023890D02*
X013930Y024290D01*
X013840Y024290D01*
X013840Y023890D01*
X013930Y023890D01*
X013780Y023890D02*
X013780Y024290D01*
X013690Y024290D01*
X013690Y023890D01*
X013780Y023890D01*
X013620Y023890D02*
X013620Y024290D01*
X013530Y024290D01*
X013530Y023890D01*
X013620Y023890D01*
X013460Y023890D02*
X013460Y024290D01*
X013370Y024290D01*
X013370Y023890D01*
X013460Y023890D01*
X013300Y023890D02*
X013300Y024290D01*
X013210Y024290D01*
X013210Y023890D01*
X013300Y023890D01*
X013150Y023890D02*
X013150Y024290D01*
X013060Y024290D01*
X013060Y023890D01*
X013150Y023890D01*
X012990Y023890D02*
X012990Y024290D01*
X012900Y024290D01*
X012900Y023890D01*
X012990Y023890D01*
X012830Y023890D02*
X012830Y024290D01*
X012740Y024290D01*
X012740Y023890D01*
X012830Y023890D01*
X012670Y023890D02*
X012670Y024290D01*
X012580Y024290D01*
X012580Y023890D01*
X012670Y023890D01*
X012520Y023890D02*
X012520Y024290D01*
X012430Y024290D01*
X012430Y023890D01*
X012520Y023890D01*
X012360Y023890D02*
X012360Y024290D01*
X012270Y024290D01*
X012270Y023890D01*
X012360Y023890D01*
X012200Y023890D02*
X012200Y024290D01*
X012110Y024290D01*
X012110Y023890D01*
X012200Y023890D01*
X012050Y023890D02*
X012050Y024290D01*
X011960Y024290D01*
X011960Y023890D01*
X012050Y023890D01*
X011890Y023890D02*
X011890Y024290D01*
X011800Y024290D01*
X011800Y023890D01*
X011890Y023890D01*
X011730Y023890D02*
X011730Y024290D01*
X011640Y024290D01*
X011640Y023890D01*
X011730Y023890D01*
X011570Y023890D02*
X011570Y024290D01*
X011480Y024290D01*
X011480Y023890D01*
X011570Y023890D01*
X011420Y023890D02*
X011420Y024290D01*
X011330Y024290D01*
X011330Y023890D01*
X011420Y023890D01*
X011260Y023890D02*
X011260Y024290D01*
X011170Y024290D01*
X011170Y023890D01*
X011260Y023890D01*
X011100Y023890D02*
X011100Y024290D01*
X011010Y024290D01*
X011010Y023890D01*
X011100Y023890D01*
X010940Y023890D02*
X010940Y024290D01*
X010850Y024290D01*
X010850Y023890D01*
X010940Y023890D01*
X010790Y023890D02*
X010790Y024290D01*
X010700Y024290D01*
X010700Y023890D01*
X010790Y023890D01*
X010630Y023890D02*
X010630Y024290D01*
X010540Y024290D01*
X010540Y023890D01*
X010630Y023890D01*
X010470Y023890D02*
X010470Y024290D01*
X010380Y024290D01*
X010380Y023890D01*
X010470Y023890D01*
X010310Y023890D02*
X010310Y024290D01*
X010220Y024290D01*
X010220Y023890D01*
X010310Y023890D01*
X010160Y023890D02*
X010160Y024290D01*
X010070Y024290D01*
X010070Y023890D01*
X010160Y023890D01*
X012886Y027647D02*
X012830Y027703D01*
X012830Y027817D01*
X012886Y027874D01*
X013113Y027647D01*
X013170Y027703D01*
X013170Y027817D01*
X013113Y027874D01*
X012886Y027874D01*
X012886Y027647D02*
X013113Y027647D01*
X014830Y027647D02*
X015170Y027874D01*
X014830Y027874D01*
X014830Y027647D02*
X015170Y027647D01*
X015170Y027515D02*
X015170Y027401D01*
X015170Y027458D02*
X014830Y027458D01*
X014830Y027401D02*
X014830Y027515D01*
X014830Y027260D02*
X015057Y027260D01*
X015170Y027146D01*
X015057Y027033D01*
X014830Y027033D01*
X015830Y027080D02*
X015830Y026967D01*
X015886Y026910D01*
X016113Y026910D01*
X016170Y026967D01*
X016170Y027080D01*
X016113Y027137D01*
X016000Y027137D01*
X016000Y027023D01*
X015886Y027137D02*
X015830Y027080D01*
X015830Y027278D02*
X016170Y027505D01*
X015830Y027505D01*
X015830Y027647D02*
X015830Y027817D01*
X015886Y027874D01*
X016113Y027874D01*
X016170Y027817D01*
X016170Y027647D01*
X015830Y027647D01*
X015830Y027278D02*
X016170Y027278D01*
X016830Y027278D02*
X017170Y027505D01*
X016830Y027505D01*
X016830Y027647D02*
X016830Y027817D01*
X016886Y027874D01*
X017113Y027874D01*
X017170Y027817D01*
X017170Y027647D01*
X016830Y027647D01*
X016830Y027278D02*
X017170Y027278D01*
X017113Y027137D02*
X017170Y027080D01*
X017170Y026967D01*
X017113Y026910D01*
X016886Y026910D01*
X016830Y026967D01*
X016830Y027080D01*
X016886Y027137D01*
X017000Y027137D02*
X017000Y027023D01*
X017000Y027137D02*
X017113Y027137D01*
X017830Y027278D02*
X018000Y027278D01*
X017943Y027392D01*
X017943Y027449D01*
X018000Y027505D01*
X018113Y027505D01*
X018170Y027449D01*
X018170Y027335D01*
X018113Y027278D01*
X018000Y027137D02*
X018000Y026910D01*
X018113Y027023D02*
X017886Y027023D01*
X017830Y027278D02*
X017830Y027505D01*
X017830Y027647D02*
X018057Y027647D01*
X018170Y027760D01*
X018057Y027874D01*
X017830Y027874D01*
X018830Y027874D02*
X019057Y027874D01*
X019170Y027760D01*
X019057Y027647D01*
X018830Y027647D01*
X018886Y027505D02*
X018943Y027505D01*
X019000Y027449D01*
X019057Y027505D01*
X019113Y027505D01*
X019170Y027449D01*
X019170Y027335D01*
X019113Y027278D01*
X019113Y027151D02*
X019170Y027151D01*
X019170Y027094D01*
X019113Y027094D01*
X019113Y027151D01*
X019113Y026953D02*
X019170Y026896D01*
X019170Y026783D01*
X019113Y026726D01*
X019000Y026839D02*
X019000Y026896D01*
X019057Y026953D01*
X019113Y026953D01*
X019000Y026896D02*
X018943Y026953D01*
X018886Y026953D01*
X018830Y026896D01*
X018830Y026783D01*
X018886Y026726D01*
X019000Y026584D02*
X019000Y026358D01*
X019113Y026471D02*
X018886Y026471D01*
X018886Y027278D02*
X018830Y027335D01*
X018830Y027449D01*
X018886Y027505D01*
X019000Y027449D02*
X019000Y027392D01*
X019830Y027449D02*
X019830Y027335D01*
X019886Y027278D01*
X019943Y027278D01*
X020000Y027335D01*
X020000Y027449D01*
X020057Y027505D01*
X020113Y027505D01*
X020170Y027449D01*
X020170Y027335D01*
X020113Y027278D01*
X020170Y027137D02*
X020057Y027023D01*
X020057Y027080D02*
X020057Y026910D01*
X020170Y026910D02*
X019830Y026910D01*
X019830Y027080D01*
X019886Y027137D01*
X020000Y027137D01*
X020057Y027080D01*
X019830Y027449D02*
X019886Y027505D01*
X019830Y027647D02*
X019830Y027874D01*
X019830Y027760D02*
X020170Y027760D01*
X020830Y027647D02*
X020830Y027874D01*
X021000Y027760D02*
X021000Y027647D01*
X021170Y027647D02*
X020830Y027647D01*
X020830Y027505D02*
X020830Y027278D01*
X021170Y027278D01*
X021170Y027505D01*
X021000Y027392D02*
X021000Y027278D01*
X021000Y027137D02*
X021057Y027080D01*
X021057Y026910D01*
X021170Y026910D02*
X020830Y026910D01*
X020830Y027080D01*
X020886Y027137D01*
X021000Y027137D01*
X021057Y027023D02*
X021170Y027137D01*
X021113Y026769D02*
X020886Y026769D01*
X020830Y026712D01*
X020830Y026598D01*
X020886Y026542D01*
X021113Y026542D01*
X021170Y026598D01*
X021170Y026712D01*
X021113Y026769D01*
X021170Y026410D02*
X021170Y026296D01*
X021170Y026353D02*
X020830Y026353D01*
X020830Y026296D02*
X020830Y026410D01*
X024300Y029780D02*
X026250Y029780D01*
X026450Y029980D01*
X026450Y033980D01*
X026450Y034030D01*
X024450Y034030D01*
X024100Y034030D01*
X024100Y029980D01*
X024300Y029780D01*
X024610Y031030D02*
X024612Y031080D01*
X024618Y031130D01*
X024628Y031180D01*
X024641Y031228D01*
X024658Y031276D01*
X024679Y031322D01*
X024703Y031366D01*
X024731Y031408D01*
X024762Y031448D01*
X024796Y031485D01*
X024833Y031520D01*
X024872Y031551D01*
X024913Y031580D01*
X024957Y031605D01*
X025003Y031627D01*
X025050Y031645D01*
X025098Y031659D01*
X025147Y031670D01*
X025197Y031677D01*
X025247Y031680D01*
X025298Y031679D01*
X025348Y031674D01*
X025398Y031665D01*
X025446Y031653D01*
X025494Y031636D01*
X025540Y031616D01*
X025585Y031593D01*
X025628Y031566D01*
X025668Y031536D01*
X025706Y031503D01*
X025741Y031467D01*
X025774Y031428D01*
X025803Y031387D01*
X025829Y031344D01*
X025852Y031299D01*
X025871Y031252D01*
X025886Y031204D01*
X025898Y031155D01*
X025906Y031105D01*
X025910Y031055D01*
X025910Y031005D01*
X025906Y030955D01*
X025898Y030905D01*
X025886Y030856D01*
X025871Y030808D01*
X025852Y030761D01*
X025829Y030716D01*
X025803Y030673D01*
X025774Y030632D01*
X025741Y030593D01*
X025706Y030557D01*
X025668Y030524D01*
X025628Y030494D01*
X025585Y030467D01*
X025540Y030444D01*
X025494Y030424D01*
X025446Y030407D01*
X025398Y030395D01*
X025348Y030386D01*
X025298Y030381D01*
X025247Y030380D01*
X025197Y030383D01*
X025147Y030390D01*
X025098Y030401D01*
X025050Y030415D01*
X025003Y030433D01*
X024957Y030455D01*
X024913Y030480D01*
X024872Y030509D01*
X024833Y030540D01*
X024796Y030575D01*
X024762Y030612D01*
X024731Y030652D01*
X024703Y030694D01*
X024679Y030738D01*
X024658Y030784D01*
X024641Y030832D01*
X024628Y030880D01*
X024618Y030930D01*
X024612Y030980D01*
X024610Y031030D01*
X026750Y029230D02*
X026750Y027330D01*
X026950Y027130D01*
X031000Y027130D01*
X031000Y027030D01*
X031000Y011030D01*
X031000Y010930D01*
X026950Y010930D01*
X026750Y010730D01*
X026750Y008780D01*
X026950Y008580D01*
X030950Y008580D01*
X031000Y008580D01*
X031000Y010580D01*
X031000Y010930D01*
X031000Y011030D02*
X030700Y011030D01*
X030700Y027030D01*
X031000Y027030D01*
X031000Y027130D02*
X031000Y027480D01*
X031000Y029480D01*
X030950Y029480D01*
X027000Y029480D01*
X026750Y029230D01*
X027350Y028290D02*
X027352Y028340D01*
X027358Y028390D01*
X027368Y028440D01*
X027381Y028488D01*
X027398Y028536D01*
X027419Y028582D01*
X027443Y028626D01*
X027471Y028668D01*
X027502Y028708D01*
X027536Y028745D01*
X027573Y028780D01*
X027612Y028811D01*
X027653Y028840D01*
X027697Y028865D01*
X027743Y028887D01*
X027790Y028905D01*
X027838Y028919D01*
X027887Y028930D01*
X027937Y028937D01*
X027987Y028940D01*
X028038Y028939D01*
X028088Y028934D01*
X028138Y028925D01*
X028186Y028913D01*
X028234Y028896D01*
X028280Y028876D01*
X028325Y028853D01*
X028368Y028826D01*
X028408Y028796D01*
X028446Y028763D01*
X028481Y028727D01*
X028514Y028688D01*
X028543Y028647D01*
X028569Y028604D01*
X028592Y028559D01*
X028611Y028512D01*
X028626Y028464D01*
X028638Y028415D01*
X028646Y028365D01*
X028650Y028315D01*
X028650Y028265D01*
X028646Y028215D01*
X028638Y028165D01*
X028626Y028116D01*
X028611Y028068D01*
X028592Y028021D01*
X028569Y027976D01*
X028543Y027933D01*
X028514Y027892D01*
X028481Y027853D01*
X028446Y027817D01*
X028408Y027784D01*
X028368Y027754D01*
X028325Y027727D01*
X028280Y027704D01*
X028234Y027684D01*
X028186Y027667D01*
X028138Y027655D01*
X028088Y027646D01*
X028038Y027641D01*
X027987Y027640D01*
X027937Y027643D01*
X027887Y027650D01*
X027838Y027661D01*
X027790Y027675D01*
X027743Y027693D01*
X027697Y027715D01*
X027653Y027740D01*
X027612Y027769D01*
X027573Y027800D01*
X027536Y027835D01*
X027502Y027872D01*
X027471Y027912D01*
X027443Y027954D01*
X027419Y027998D01*
X027398Y028044D01*
X027381Y028092D01*
X027368Y028140D01*
X027358Y028190D01*
X027352Y028240D01*
X027350Y028290D01*
X031000Y029480D02*
X032200Y029480D01*
X032400Y029480D01*
X032600Y029480D01*
X032600Y026680D01*
X032600Y011380D01*
X032600Y008580D01*
X032400Y008580D01*
X032200Y008580D01*
X031000Y008580D01*
X031250Y010630D02*
X032200Y010630D01*
X032200Y010580D01*
X032400Y010580D01*
X032600Y010980D02*
X032602Y011010D01*
X032607Y011040D01*
X032616Y011069D01*
X032629Y011096D01*
X032644Y011122D01*
X032663Y011146D01*
X032684Y011167D01*
X032708Y011186D01*
X032734Y011201D01*
X032761Y011214D01*
X032790Y011223D01*
X032820Y011228D01*
X032850Y011230D01*
X034700Y011230D01*
X034726Y011232D01*
X034752Y011237D01*
X034777Y011245D01*
X034800Y011257D01*
X034822Y011271D01*
X034841Y011289D01*
X034859Y011308D01*
X034873Y011330D01*
X034885Y011353D01*
X034893Y011378D01*
X034898Y011404D01*
X034900Y011430D01*
X034900Y011530D01*
X034900Y026530D01*
X034900Y026630D01*
X034898Y026656D01*
X034893Y026682D01*
X034885Y026707D01*
X034873Y026730D01*
X034859Y026752D01*
X034841Y026771D01*
X034822Y026789D01*
X034800Y026803D01*
X034777Y026815D01*
X034752Y026823D01*
X034726Y026828D01*
X034700Y026830D01*
X032850Y026830D01*
X032820Y026832D01*
X032790Y026837D01*
X032761Y026846D01*
X032734Y026859D01*
X032708Y026874D01*
X032684Y026893D01*
X032663Y026914D01*
X032644Y026938D01*
X032629Y026964D01*
X032616Y026991D01*
X032607Y027020D01*
X032602Y027050D01*
X032600Y027080D01*
X032400Y027480D02*
X032200Y027480D01*
X032200Y027430D01*
X031250Y027430D01*
X031220Y027428D01*
X031190Y027423D01*
X031161Y027414D01*
X031134Y027401D01*
X031108Y027386D01*
X031084Y027367D01*
X031063Y027346D01*
X031044Y027322D01*
X031029Y027296D01*
X031016Y027269D01*
X031007Y027240D01*
X031002Y027210D01*
X031000Y027180D01*
X026450Y034030D02*
X026450Y035230D01*
X026450Y035430D01*
X026450Y035630D01*
X023650Y035630D01*
X008350Y035630D01*
X005550Y035630D01*
X005550Y035430D01*
X005550Y035230D01*
X005550Y034030D01*
X005550Y033980D01*
X005550Y030030D01*
X005800Y029780D01*
X007700Y029780D01*
X007900Y029980D01*
X007900Y034030D01*
X008000Y034030D01*
X024000Y034030D01*
X024100Y034030D01*
X024000Y034030D02*
X024000Y033730D01*
X008000Y033730D01*
X008000Y034030D01*
X007900Y034030D02*
X007550Y034030D01*
X005550Y034030D01*
X007600Y034280D02*
X007600Y035230D01*
X007550Y035230D01*
X007550Y035430D01*
X007950Y035630D02*
X007980Y035632D01*
X008010Y035637D01*
X008039Y035646D01*
X008066Y035659D01*
X008092Y035674D01*
X008116Y035693D01*
X008137Y035714D01*
X008156Y035738D01*
X008171Y035764D01*
X008184Y035791D01*
X008193Y035820D01*
X008198Y035850D01*
X008200Y035880D01*
X008200Y037730D01*
X008202Y037756D01*
X008207Y037782D01*
X008215Y037807D01*
X008227Y037830D01*
X008241Y037852D01*
X008259Y037871D01*
X008278Y037889D01*
X008300Y037903D01*
X008323Y037915D01*
X008348Y037923D01*
X008374Y037928D01*
X008400Y037930D01*
X008500Y037930D01*
X023500Y037930D01*
X023600Y037930D01*
X023626Y037928D01*
X023652Y037923D01*
X023677Y037915D01*
X023700Y037903D01*
X023722Y037889D01*
X023741Y037871D01*
X023759Y037852D01*
X023773Y037830D01*
X023785Y037807D01*
X023793Y037782D01*
X023798Y037756D01*
X023800Y037730D01*
X023800Y035880D01*
X023802Y035850D01*
X023807Y035820D01*
X023816Y035791D01*
X023829Y035764D01*
X023844Y035738D01*
X023863Y035714D01*
X023884Y035693D01*
X023908Y035674D01*
X023934Y035659D01*
X023961Y035646D01*
X023990Y035637D01*
X024020Y035632D01*
X024050Y035630D01*
X024450Y035430D02*
X024450Y035230D01*
X024400Y035230D01*
X024400Y034280D01*
X024398Y034250D01*
X024393Y034220D01*
X024384Y034191D01*
X024371Y034164D01*
X024356Y034138D01*
X024337Y034114D01*
X024316Y034093D01*
X024292Y034074D01*
X024266Y034059D01*
X024239Y034046D01*
X024210Y034037D01*
X024180Y034032D01*
X024150Y034030D01*
X022787Y022624D02*
X022787Y022501D01*
X022787Y022254D02*
X022787Y021760D01*
X022664Y021760D02*
X022911Y021760D01*
X023155Y021760D02*
X023155Y022254D01*
X023525Y022254D01*
X023648Y022130D01*
X023648Y021760D01*
X023891Y021883D02*
X024015Y021760D01*
X024262Y021760D01*
X024385Y021883D01*
X024385Y022130D01*
X024262Y022254D01*
X024015Y022254D01*
X023891Y022130D01*
X023891Y021883D01*
X022787Y022254D02*
X022664Y022254D01*
X022421Y022254D02*
X022421Y021760D01*
X022050Y021760D01*
X021927Y021883D01*
X021927Y022254D01*
X021684Y022377D02*
X021684Y021883D01*
X021561Y021760D01*
X021190Y021760D01*
X021190Y022501D01*
X021561Y022501D01*
X021684Y022377D01*
X020947Y022254D02*
X020823Y022254D01*
X020577Y022007D01*
X020334Y022007D02*
X020334Y022130D01*
X020210Y022254D01*
X019963Y022254D01*
X019840Y022130D01*
X019840Y021883D01*
X019963Y021760D01*
X020210Y021760D01*
X020334Y022007D02*
X019840Y022007D01*
X019597Y022130D02*
X019597Y021883D01*
X019474Y021760D01*
X019103Y021760D01*
X018860Y021760D02*
X018860Y022254D01*
X019103Y022254D02*
X019474Y022254D01*
X019597Y022130D01*
X019103Y022254D02*
X019103Y021513D01*
X018860Y021760D02*
X018490Y021760D01*
X018367Y021883D01*
X018367Y022254D01*
X018124Y022377D02*
X018000Y022501D01*
X017753Y022501D01*
X017630Y022377D01*
X017630Y022254D01*
X017753Y022130D01*
X018000Y022130D01*
X018124Y022007D01*
X018124Y021883D01*
X018000Y021760D01*
X017753Y021760D01*
X017630Y021883D01*
X020577Y021760D02*
X020577Y022254D01*
X022005Y016163D02*
X022595Y016163D01*
X022595Y016164D02*
X022614Y016160D01*
X022631Y016154D01*
X022648Y016144D01*
X022662Y016132D01*
X022674Y016117D01*
X022684Y016101D01*
X022690Y016083D01*
X022694Y016064D01*
X022694Y016045D01*
X022694Y015415D01*
X022695Y015415D02*
X022695Y015396D01*
X022691Y015377D01*
X022685Y015359D01*
X022676Y015343D01*
X022663Y015328D01*
X022649Y015316D01*
X022632Y015306D01*
X022614Y015300D01*
X022596Y015296D01*
X022595Y015297D02*
X022005Y015297D01*
X022005Y015296D02*
X021986Y015300D01*
X021969Y015306D01*
X021952Y015316D01*
X021938Y015328D01*
X021926Y015343D01*
X021916Y015359D01*
X021910Y015377D01*
X021906Y015396D01*
X021906Y015415D01*
X021906Y016045D01*
X021906Y016064D01*
X021910Y016083D01*
X021916Y016101D01*
X021926Y016117D01*
X021938Y016132D01*
X021952Y016144D01*
X021969Y016154D01*
X021986Y016160D01*
X022005Y016164D01*
X024406Y015345D02*
X024406Y014715D01*
X024406Y014696D01*
X024410Y014677D01*
X024416Y014659D01*
X024426Y014643D01*
X024438Y014628D01*
X024452Y014616D01*
X024469Y014606D01*
X024486Y014600D01*
X024505Y014596D01*
X024505Y014597D02*
X025095Y014597D01*
X025096Y014596D02*
X025114Y014600D01*
X025132Y014606D01*
X025149Y014616D01*
X025163Y014628D01*
X025176Y014643D01*
X025185Y014659D01*
X025191Y014677D01*
X025195Y014696D01*
X025195Y014715D01*
X025194Y014715D02*
X025194Y015345D01*
X025194Y015364D01*
X025190Y015383D01*
X025184Y015401D01*
X025174Y015417D01*
X025162Y015432D01*
X025148Y015444D01*
X025131Y015454D01*
X025114Y015460D01*
X025095Y015464D01*
X025095Y015463D02*
X024505Y015463D01*
X024505Y015464D02*
X024486Y015460D01*
X024469Y015454D01*
X024452Y015444D01*
X024438Y015432D01*
X024426Y015417D01*
X024416Y015401D01*
X024410Y015383D01*
X024406Y015364D01*
X024406Y015345D01*
X025579Y013930D02*
X025581Y013946D01*
X025587Y013962D01*
X025596Y013976D01*
X025608Y013987D01*
X025622Y013995D01*
X025638Y014000D01*
X025654Y014001D01*
X025670Y013998D01*
X025685Y013991D01*
X025699Y013982D01*
X025709Y013969D01*
X025717Y013954D01*
X025721Y013938D01*
X025721Y013922D01*
X025717Y013906D01*
X025709Y013891D01*
X025699Y013878D01*
X025686Y013869D01*
X025670Y013862D01*
X025654Y013859D01*
X025638Y013860D01*
X025622Y013865D01*
X025608Y013873D01*
X025596Y013884D01*
X025587Y013898D01*
X025581Y013914D01*
X025579Y013930D01*
X023670Y011165D02*
X023330Y011165D01*
X023330Y011392D01*
X023500Y011278D02*
X023500Y011165D01*
X023670Y011023D02*
X023670Y010797D01*
X023330Y010797D01*
X023330Y011023D01*
X023500Y010910D02*
X023500Y010797D01*
X023500Y010655D02*
X023557Y010598D01*
X023557Y010428D01*
X023670Y010428D02*
X023330Y010428D01*
X023330Y010598D01*
X023386Y010655D01*
X023500Y010655D01*
X023557Y010542D02*
X023670Y010655D01*
X023670Y010287D02*
X023443Y010287D01*
X023330Y010173D01*
X023443Y010060D01*
X023670Y010060D01*
X023500Y010060D02*
X023500Y010287D01*
X022670Y010230D02*
X022613Y010287D01*
X022500Y010287D01*
X022500Y010173D01*
X022613Y010060D02*
X022386Y010060D01*
X022330Y010117D01*
X022330Y010230D01*
X022386Y010287D01*
X022330Y010428D02*
X022670Y010655D01*
X022330Y010655D01*
X022330Y010797D02*
X022330Y010967D01*
X022386Y011023D01*
X022613Y011023D01*
X022670Y010967D01*
X022670Y010797D01*
X022330Y010797D01*
X022330Y010428D02*
X022670Y010428D01*
X022670Y010230D02*
X022670Y010117D01*
X022613Y010060D01*
X021670Y010060D02*
X021670Y010287D01*
X021670Y010173D02*
X021330Y010173D01*
X021443Y010060D01*
X021386Y010428D02*
X021330Y010485D01*
X021330Y010598D01*
X021386Y010655D01*
X021443Y010655D01*
X021500Y010598D01*
X021557Y010655D01*
X021613Y010655D01*
X021670Y010598D01*
X021670Y010485D01*
X021613Y010428D01*
X021500Y010542D02*
X021500Y010598D01*
X020670Y010655D02*
X020670Y010428D01*
X020443Y010655D01*
X020386Y010655D01*
X020330Y010598D01*
X020330Y010485D01*
X020386Y010428D01*
X020330Y010173D02*
X020670Y010173D01*
X020670Y010060D02*
X020670Y010287D01*
X020443Y010060D02*
X020330Y010173D01*
X019670Y010173D02*
X019330Y010173D01*
X019443Y010060D01*
X019670Y010060D02*
X019670Y010287D01*
X019670Y010428D02*
X019670Y010655D01*
X019670Y010542D02*
X019330Y010542D01*
X019443Y010428D01*
X018670Y010485D02*
X018613Y010428D01*
X018386Y010655D01*
X018613Y010655D01*
X018670Y010598D01*
X018670Y010485D01*
X018613Y010428D02*
X018386Y010428D01*
X018330Y010485D01*
X018330Y010598D01*
X018386Y010655D01*
X018670Y010287D02*
X018670Y010060D01*
X018670Y010173D02*
X018330Y010173D01*
X018443Y010060D01*
X017670Y010117D02*
X017670Y010230D01*
X017613Y010287D01*
X017386Y010287D01*
X017330Y010230D01*
X017330Y010117D01*
X017386Y010060D01*
X017443Y010060D01*
X017500Y010117D01*
X017500Y010287D01*
X017670Y010117D02*
X017613Y010060D01*
X016670Y010117D02*
X016613Y010060D01*
X016557Y010060D01*
X016500Y010117D01*
X016500Y010230D01*
X016557Y010287D01*
X016613Y010287D01*
X016670Y010230D01*
X016670Y010117D01*
X016500Y010117D02*
X016443Y010060D01*
X016386Y010060D01*
X016330Y010117D01*
X016330Y010230D01*
X016386Y010287D01*
X016443Y010287D01*
X016500Y010230D01*
X015170Y010060D02*
X015113Y010060D01*
X014886Y010287D01*
X014830Y010287D01*
X014830Y010060D01*
X014170Y010117D02*
X014170Y010230D01*
X014113Y010287D01*
X014057Y010287D01*
X014000Y010230D01*
X014000Y010060D01*
X014113Y010060D01*
X014170Y010117D01*
X014000Y010060D02*
X013886Y010173D01*
X013830Y010287D01*
X013170Y010230D02*
X013170Y010117D01*
X013113Y010060D01*
X013000Y010060D02*
X012943Y010173D01*
X012943Y010230D01*
X013000Y010287D01*
X013113Y010287D01*
X013170Y010230D01*
X013000Y010060D02*
X012830Y010060D01*
X012830Y010287D01*
X012170Y010230D02*
X011830Y010230D01*
X012000Y010060D01*
X012000Y010287D01*
X011170Y010230D02*
X011170Y010117D01*
X011113Y010060D01*
X011000Y010173D02*
X011000Y010230D01*
X011057Y010287D01*
X011113Y010287D01*
X011170Y010230D01*
X011000Y010230D02*
X010943Y010287D01*
X010886Y010287D01*
X010830Y010230D01*
X010830Y010117D01*
X010886Y010060D01*
X010170Y010060D02*
X009943Y010287D01*
X009886Y010287D01*
X009830Y010230D01*
X009830Y010117D01*
X009886Y010060D01*
X010170Y010060D02*
X010170Y010287D01*
X009170Y010173D02*
X008830Y010173D01*
X008830Y010060D02*
X008830Y010287D01*
X008830Y010428D02*
X009170Y010655D01*
X009170Y010428D02*
X008830Y010655D01*
X008170Y010655D02*
X007830Y010428D01*
X007886Y010287D02*
X007830Y010230D01*
X007830Y010060D01*
X008170Y010060D01*
X008057Y010060D02*
X008057Y010230D01*
X008000Y010287D01*
X007886Y010287D01*
X008057Y010173D02*
X008170Y010287D01*
X008170Y010428D02*
X007830Y010655D01*
X007700Y008280D02*
X005750Y008280D01*
X005550Y008080D01*
X005550Y004080D01*
X005550Y004030D01*
X007550Y004030D01*
X007900Y004030D01*
X007900Y008080D01*
X007700Y008280D01*
X006090Y007030D02*
X006092Y007080D01*
X006098Y007130D01*
X006108Y007180D01*
X006121Y007228D01*
X006138Y007276D01*
X006159Y007322D01*
X006183Y007366D01*
X006211Y007408D01*
X006242Y007448D01*
X006276Y007485D01*
X006313Y007520D01*
X006352Y007551D01*
X006393Y007580D01*
X006437Y007605D01*
X006483Y007627D01*
X006530Y007645D01*
X006578Y007659D01*
X006627Y007670D01*
X006677Y007677D01*
X006727Y007680D01*
X006778Y007679D01*
X006828Y007674D01*
X006878Y007665D01*
X006926Y007653D01*
X006974Y007636D01*
X007020Y007616D01*
X007065Y007593D01*
X007108Y007566D01*
X007148Y007536D01*
X007186Y007503D01*
X007221Y007467D01*
X007254Y007428D01*
X007283Y007387D01*
X007309Y007344D01*
X007332Y007299D01*
X007351Y007252D01*
X007366Y007204D01*
X007378Y007155D01*
X007386Y007105D01*
X007390Y007055D01*
X007390Y007005D01*
X007386Y006955D01*
X007378Y006905D01*
X007366Y006856D01*
X007351Y006808D01*
X007332Y006761D01*
X007309Y006716D01*
X007283Y006673D01*
X007254Y006632D01*
X007221Y006593D01*
X007186Y006557D01*
X007148Y006524D01*
X007108Y006494D01*
X007065Y006467D01*
X007020Y006444D01*
X006974Y006424D01*
X006926Y006407D01*
X006878Y006395D01*
X006828Y006386D01*
X006778Y006381D01*
X006727Y006380D01*
X006677Y006383D01*
X006627Y006390D01*
X006578Y006401D01*
X006530Y006415D01*
X006483Y006433D01*
X006437Y006455D01*
X006393Y006480D01*
X006352Y006509D01*
X006313Y006540D01*
X006276Y006575D01*
X006242Y006612D01*
X006211Y006652D01*
X006183Y006694D01*
X006159Y006738D01*
X006138Y006784D01*
X006121Y006832D01*
X006108Y006880D01*
X006098Y006930D01*
X006092Y006980D01*
X006090Y007030D01*
X008000Y004330D02*
X008000Y004030D01*
X007900Y004030D01*
X008000Y004030D02*
X024000Y004030D01*
X024000Y004330D01*
X008000Y004330D01*
X007850Y004030D02*
X007820Y004028D01*
X007790Y004023D01*
X007761Y004014D01*
X007734Y004001D01*
X007708Y003986D01*
X007684Y003967D01*
X007663Y003946D01*
X007644Y003922D01*
X007629Y003896D01*
X007616Y003869D01*
X007607Y003840D01*
X007602Y003810D01*
X007600Y003780D01*
X007600Y002830D01*
X007550Y002830D01*
X007550Y002630D01*
X007950Y002430D02*
X007980Y002428D01*
X008010Y002423D01*
X008039Y002414D01*
X008066Y002401D01*
X008092Y002386D01*
X008116Y002367D01*
X008137Y002346D01*
X008156Y002322D01*
X008171Y002296D01*
X008184Y002269D01*
X008193Y002240D01*
X008198Y002210D01*
X008200Y002180D01*
X008200Y000330D01*
X008202Y000304D01*
X008207Y000278D01*
X008215Y000253D01*
X008227Y000230D01*
X008241Y000208D01*
X008259Y000189D01*
X008278Y000171D01*
X008300Y000157D01*
X008323Y000145D01*
X008348Y000137D01*
X008374Y000132D01*
X008400Y000130D01*
X008500Y000130D01*
X023500Y000130D01*
X023600Y000130D01*
X023626Y000132D01*
X023652Y000137D01*
X023677Y000145D01*
X023700Y000157D01*
X023722Y000171D01*
X023741Y000189D01*
X023759Y000208D01*
X023773Y000230D01*
X023785Y000253D01*
X023793Y000278D01*
X023798Y000304D01*
X023800Y000330D01*
X023800Y002180D01*
X023802Y002210D01*
X023807Y002240D01*
X023816Y002269D01*
X023829Y002296D01*
X023844Y002322D01*
X023863Y002346D01*
X023884Y002367D01*
X023908Y002386D01*
X023934Y002401D01*
X023961Y002414D01*
X023990Y002423D01*
X024020Y002428D01*
X024050Y002430D01*
X023650Y002430D02*
X026450Y002430D01*
X026450Y002630D01*
X026450Y002830D01*
X026450Y004030D01*
X026450Y004080D01*
X026450Y008030D01*
X026200Y008280D01*
X024300Y008280D01*
X024100Y008080D01*
X024100Y004030D01*
X024000Y004030D01*
X024100Y004030D02*
X024450Y004030D01*
X026450Y004030D01*
X024400Y003780D02*
X024400Y002830D01*
X024450Y002830D01*
X024450Y002630D01*
X023650Y002430D02*
X008350Y002430D01*
X005550Y002430D01*
X005550Y002630D01*
X005550Y002830D01*
X005550Y004030D01*
X004320Y010310D02*
X003679Y010310D01*
X003679Y010737D01*
X003679Y010955D02*
X003679Y011382D01*
X003679Y011168D02*
X004320Y011168D01*
X004320Y011599D02*
X004320Y011919D01*
X004213Y012026D01*
X003786Y012026D01*
X003679Y011919D01*
X003679Y011599D01*
X004320Y011599D01*
X004320Y012244D02*
X004320Y012457D01*
X004320Y012350D02*
X003679Y012350D01*
X003679Y012244D02*
X003679Y012457D01*
X003786Y013318D02*
X003893Y013318D01*
X004000Y013425D01*
X004000Y013638D01*
X004106Y013745D01*
X004213Y013745D01*
X004320Y013638D01*
X004320Y013425D01*
X004213Y013318D01*
X003786Y013318D02*
X003679Y013425D01*
X003679Y013638D01*
X003786Y013745D01*
X003679Y013962D02*
X004320Y013962D01*
X004320Y014389D01*
X004320Y014607D02*
X003679Y014607D01*
X003679Y014927D01*
X003786Y015034D01*
X004000Y015034D01*
X004106Y014927D01*
X004106Y014607D01*
X004106Y014821D02*
X004320Y015034D01*
X004320Y015252D02*
X004320Y015465D01*
X004320Y015358D02*
X003679Y015358D01*
X003679Y015252D02*
X003679Y015465D01*
X003893Y015681D02*
X003679Y015895D01*
X003893Y016108D01*
X004320Y016108D01*
X004320Y016326D02*
X004320Y016753D01*
X004320Y016326D02*
X003679Y016326D01*
X004000Y016108D02*
X004000Y015681D01*
X003893Y015681D02*
X004320Y015681D01*
X003679Y014389D02*
X003679Y013962D01*
X004000Y013962D02*
X004000Y014176D01*
X004000Y010524D02*
X004000Y010310D01*
X004379Y018510D02*
X004379Y018830D01*
X004486Y018937D01*
X004700Y018937D01*
X004806Y018830D01*
X004806Y018510D01*
X005020Y018510D02*
X004379Y018510D01*
X004379Y019155D02*
X004379Y019368D01*
X004379Y019261D02*
X005020Y019261D01*
X005020Y019155D02*
X005020Y019368D01*
X004913Y019584D02*
X005020Y019691D01*
X005020Y019905D01*
X004913Y020011D01*
X004913Y019584D02*
X004486Y019584D01*
X004379Y019691D01*
X004379Y019905D01*
X004486Y020011D01*
X004379Y020873D02*
X004379Y021087D01*
X004379Y020980D02*
X005020Y020980D01*
X005020Y020873D02*
X005020Y021087D01*
X004913Y021303D02*
X005020Y021410D01*
X005020Y021623D01*
X004913Y021730D01*
X004913Y021948D02*
X005020Y022054D01*
X005020Y022268D01*
X004913Y022375D01*
X004806Y022375D01*
X004700Y022268D01*
X004700Y022054D01*
X004593Y021948D01*
X004486Y021948D01*
X004379Y022054D01*
X004379Y022268D01*
X004486Y022375D01*
X004379Y022592D02*
X004379Y022912D01*
X004486Y023019D01*
X004700Y023019D01*
X004806Y022912D01*
X004806Y022592D01*
X005020Y022592D02*
X004379Y022592D01*
X003879Y022830D02*
X003881Y022846D01*
X003887Y022862D01*
X003896Y022876D01*
X003908Y022887D01*
X003922Y022895D01*
X003938Y022900D01*
X003954Y022901D01*
X003970Y022898D01*
X003985Y022891D01*
X003999Y022882D01*
X004009Y022869D01*
X004017Y022854D01*
X004021Y022838D01*
X004021Y022822D01*
X004017Y022806D01*
X004009Y022791D01*
X003999Y022778D01*
X003986Y022769D01*
X003970Y022762D01*
X003954Y022759D01*
X003938Y022760D01*
X003922Y022765D01*
X003908Y022773D01*
X003896Y022784D01*
X003887Y022798D01*
X003881Y022814D01*
X003879Y022830D01*
X004486Y021730D02*
X004379Y021623D01*
X004379Y021410D01*
X004486Y021303D01*
X004913Y021303D01*
X011600Y018180D02*
X011600Y015480D01*
X011602Y015463D01*
X011606Y015446D01*
X011613Y015430D01*
X011623Y015416D01*
X011636Y015403D01*
X011650Y015393D01*
X011666Y015386D01*
X011683Y015382D01*
X011700Y015380D01*
X012900Y015380D01*
X012917Y015382D01*
X012934Y015386D01*
X012950Y015393D01*
X012964Y015403D01*
X012977Y015416D01*
X012987Y015430D01*
X012994Y015446D01*
X012998Y015463D01*
X013000Y015480D01*
X013000Y018180D01*
X012998Y018197D01*
X012994Y018214D01*
X012987Y018230D01*
X012977Y018244D01*
X012964Y018257D01*
X012950Y018267D01*
X012934Y018274D01*
X012917Y018278D01*
X012900Y018280D01*
X011700Y018280D01*
X011683Y018278D01*
X011666Y018274D01*
X011650Y018267D01*
X011636Y018257D01*
X011623Y018244D01*
X011613Y018230D01*
X011606Y018214D01*
X011602Y018197D01*
X011600Y018180D01*
X012300Y017430D02*
X012300Y016950D01*
X012300Y016700D02*
X012300Y016230D01*
X013840Y019170D02*
X013860Y019170D01*
X015600Y015930D02*
X015600Y015780D01*
X015750Y015780D01*
X015600Y015780D02*
X015600Y015630D01*
X015600Y015780D02*
X015450Y015780D01*
X015150Y015280D02*
X015152Y015346D01*
X015158Y015411D01*
X015168Y015476D01*
X015181Y015541D01*
X015199Y015604D01*
X015220Y015667D01*
X015245Y015727D01*
X015274Y015787D01*
X015306Y015844D01*
X015341Y015900D01*
X015380Y015953D01*
X015422Y016004D01*
X015466Y016052D01*
X015514Y016097D01*
X015564Y016140D01*
X015617Y016179D01*
X015672Y016216D01*
X015729Y016249D01*
X015788Y016278D01*
X015848Y016304D01*
X015910Y016326D01*
X015973Y016345D01*
X016037Y016359D01*
X016102Y016370D01*
X016168Y016377D01*
X016234Y016380D01*
X016299Y016379D01*
X016365Y016374D01*
X016430Y016365D01*
X016495Y016352D01*
X016558Y016336D01*
X016621Y016316D01*
X016682Y016291D01*
X016742Y016264D01*
X016800Y016233D01*
X016856Y016198D01*
X016910Y016160D01*
X016961Y016119D01*
X017010Y016075D01*
X017056Y016028D01*
X017100Y015979D01*
X017140Y015927D01*
X017177Y015872D01*
X017211Y015816D01*
X017241Y015757D01*
X017268Y015697D01*
X017291Y015636D01*
X017310Y015573D01*
X017326Y015509D01*
X017338Y015444D01*
X017346Y015379D01*
X017350Y015313D01*
X017350Y015247D01*
X017346Y015181D01*
X017338Y015116D01*
X017326Y015051D01*
X017310Y014987D01*
X017291Y014924D01*
X017268Y014863D01*
X017241Y014803D01*
X017211Y014744D01*
X017177Y014688D01*
X017140Y014633D01*
X017100Y014581D01*
X017056Y014532D01*
X017010Y014485D01*
X016961Y014441D01*
X016910Y014400D01*
X016856Y014362D01*
X016800Y014327D01*
X016742Y014296D01*
X016682Y014269D01*
X016621Y014244D01*
X016558Y014224D01*
X016495Y014208D01*
X016430Y014195D01*
X016365Y014186D01*
X016299Y014181D01*
X016234Y014180D01*
X016168Y014183D01*
X016102Y014190D01*
X016037Y014201D01*
X015973Y014215D01*
X015910Y014234D01*
X015848Y014256D01*
X015788Y014282D01*
X015729Y014311D01*
X015672Y014344D01*
X015617Y014381D01*
X015564Y014420D01*
X015514Y014463D01*
X015466Y014508D01*
X015422Y014556D01*
X015380Y014607D01*
X015341Y014660D01*
X015306Y014716D01*
X015274Y014773D01*
X015245Y014833D01*
X015220Y014893D01*
X015199Y014956D01*
X015181Y015019D01*
X015168Y015084D01*
X015158Y015149D01*
X015152Y015214D01*
X015150Y015280D01*
X015150Y012780D02*
X015152Y012846D01*
X015158Y012911D01*
X015168Y012976D01*
X015181Y013041D01*
X015199Y013104D01*
X015220Y013167D01*
X015245Y013227D01*
X015274Y013287D01*
X015306Y013344D01*
X015341Y013400D01*
X015380Y013453D01*
X015422Y013504D01*
X015466Y013552D01*
X015514Y013597D01*
X015564Y013640D01*
X015617Y013679D01*
X015672Y013716D01*
X015729Y013749D01*
X015788Y013778D01*
X015848Y013804D01*
X015910Y013826D01*
X015973Y013845D01*
X016037Y013859D01*
X016102Y013870D01*
X016168Y013877D01*
X016234Y013880D01*
X016299Y013879D01*
X016365Y013874D01*
X016430Y013865D01*
X016495Y013852D01*
X016558Y013836D01*
X016621Y013816D01*
X016682Y013791D01*
X016742Y013764D01*
X016800Y013733D01*
X016856Y013698D01*
X016910Y013660D01*
X016961Y013619D01*
X017010Y013575D01*
X017056Y013528D01*
X017100Y013479D01*
X017140Y013427D01*
X017177Y013372D01*
X017211Y013316D01*
X017241Y013257D01*
X017268Y013197D01*
X017291Y013136D01*
X017310Y013073D01*
X017326Y013009D01*
X017338Y012944D01*
X017346Y012879D01*
X017350Y012813D01*
X017350Y012747D01*
X017346Y012681D01*
X017338Y012616D01*
X017326Y012551D01*
X017310Y012487D01*
X017291Y012424D01*
X017268Y012363D01*
X017241Y012303D01*
X017211Y012244D01*
X017177Y012188D01*
X017140Y012133D01*
X017100Y012081D01*
X017056Y012032D01*
X017010Y011985D01*
X016961Y011941D01*
X016910Y011900D01*
X016856Y011862D01*
X016800Y011827D01*
X016742Y011796D01*
X016682Y011769D01*
X016621Y011744D01*
X016558Y011724D01*
X016495Y011708D01*
X016430Y011695D01*
X016365Y011686D01*
X016299Y011681D01*
X016234Y011680D01*
X016168Y011683D01*
X016102Y011690D01*
X016037Y011701D01*
X015973Y011715D01*
X015910Y011734D01*
X015848Y011756D01*
X015788Y011782D01*
X015729Y011811D01*
X015672Y011844D01*
X015617Y011881D01*
X015564Y011920D01*
X015514Y011963D01*
X015466Y012008D01*
X015422Y012056D01*
X015380Y012107D01*
X015341Y012160D01*
X015306Y012216D01*
X015274Y012273D01*
X015245Y012333D01*
X015220Y012393D01*
X015199Y012456D01*
X015181Y012519D01*
X015168Y012584D01*
X015158Y012649D01*
X015152Y012714D01*
X015150Y012780D01*
X016750Y012280D02*
X016900Y012280D01*
X016900Y012130D01*
X016900Y012280D02*
X016900Y012430D01*
X016900Y012280D02*
X017050Y012280D01*
X024330Y010910D02*
X024443Y011023D01*
X024670Y011023D01*
X024500Y011023D02*
X024500Y010797D01*
X024443Y010797D02*
X024330Y010910D01*
X024443Y010797D02*
X024670Y010797D01*
X024613Y010655D02*
X024386Y010655D01*
X024330Y010598D01*
X024330Y010428D01*
X024670Y010428D01*
X024670Y010598D01*
X024613Y010655D01*
X024613Y010287D02*
X024670Y010230D01*
X024670Y010117D01*
X024613Y010060D01*
X024500Y010117D02*
X024500Y010230D01*
X024557Y010287D01*
X024613Y010287D01*
X024500Y010117D02*
X024443Y010060D01*
X024386Y010060D01*
X024330Y010117D01*
X024330Y010230D01*
X024386Y010287D01*
X025330Y010230D02*
X025330Y010117D01*
X025386Y010060D01*
X025443Y010060D01*
X025500Y010117D01*
X025500Y010230D01*
X025557Y010287D01*
X025613Y010287D01*
X025670Y010230D01*
X025670Y010117D01*
X025613Y010060D01*
X025386Y010287D02*
X025330Y010230D01*
X025386Y010428D02*
X025330Y010485D01*
X025330Y010598D01*
X025386Y010655D01*
X025330Y010797D02*
X025670Y010797D01*
X025670Y011023D01*
X025613Y010655D02*
X025670Y010598D01*
X025670Y010485D01*
X025613Y010428D01*
X025386Y010428D01*
X027350Y009770D02*
X027352Y009820D01*
X027358Y009870D01*
X027368Y009920D01*
X027381Y009968D01*
X027398Y010016D01*
X027419Y010062D01*
X027443Y010106D01*
X027471Y010148D01*
X027502Y010188D01*
X027536Y010225D01*
X027573Y010260D01*
X027612Y010291D01*
X027653Y010320D01*
X027697Y010345D01*
X027743Y010367D01*
X027790Y010385D01*
X027838Y010399D01*
X027887Y010410D01*
X027937Y010417D01*
X027987Y010420D01*
X028038Y010419D01*
X028088Y010414D01*
X028138Y010405D01*
X028186Y010393D01*
X028234Y010376D01*
X028280Y010356D01*
X028325Y010333D01*
X028368Y010306D01*
X028408Y010276D01*
X028446Y010243D01*
X028481Y010207D01*
X028514Y010168D01*
X028543Y010127D01*
X028569Y010084D01*
X028592Y010039D01*
X028611Y009992D01*
X028626Y009944D01*
X028638Y009895D01*
X028646Y009845D01*
X028650Y009795D01*
X028650Y009745D01*
X028646Y009695D01*
X028638Y009645D01*
X028626Y009596D01*
X028611Y009548D01*
X028592Y009501D01*
X028569Y009456D01*
X028543Y009413D01*
X028514Y009372D01*
X028481Y009333D01*
X028446Y009297D01*
X028408Y009264D01*
X028368Y009234D01*
X028325Y009207D01*
X028280Y009184D01*
X028234Y009164D01*
X028186Y009147D01*
X028138Y009135D01*
X028088Y009126D01*
X028038Y009121D01*
X027987Y009120D01*
X027937Y009123D01*
X027887Y009130D01*
X027838Y009141D01*
X027790Y009155D01*
X027743Y009173D01*
X027697Y009195D01*
X027653Y009220D01*
X027612Y009249D01*
X027573Y009280D01*
X027536Y009315D01*
X027502Y009352D01*
X027471Y009392D01*
X027443Y009434D01*
X027419Y009478D01*
X027398Y009524D01*
X027381Y009572D01*
X027368Y009620D01*
X027358Y009670D01*
X027352Y009720D01*
X027350Y009770D01*
X024610Y007030D02*
X024612Y007080D01*
X024618Y007130D01*
X024628Y007180D01*
X024641Y007228D01*
X024658Y007276D01*
X024679Y007322D01*
X024703Y007366D01*
X024731Y007408D01*
X024762Y007448D01*
X024796Y007485D01*
X024833Y007520D01*
X024872Y007551D01*
X024913Y007580D01*
X024957Y007605D01*
X025003Y007627D01*
X025050Y007645D01*
X025098Y007659D01*
X025147Y007670D01*
X025197Y007677D01*
X025247Y007680D01*
X025298Y007679D01*
X025348Y007674D01*
X025398Y007665D01*
X025446Y007653D01*
X025494Y007636D01*
X025540Y007616D01*
X025585Y007593D01*
X025628Y007566D01*
X025668Y007536D01*
X025706Y007503D01*
X025741Y007467D01*
X025774Y007428D01*
X025803Y007387D01*
X025829Y007344D01*
X025852Y007299D01*
X025871Y007252D01*
X025886Y007204D01*
X025898Y007155D01*
X025906Y007105D01*
X025910Y007055D01*
X025910Y007005D01*
X025906Y006955D01*
X025898Y006905D01*
X025886Y006856D01*
X025871Y006808D01*
X025852Y006761D01*
X025829Y006716D01*
X025803Y006673D01*
X025774Y006632D01*
X025741Y006593D01*
X025706Y006557D01*
X025668Y006524D01*
X025628Y006494D01*
X025585Y006467D01*
X025540Y006444D01*
X025494Y006424D01*
X025446Y006407D01*
X025398Y006395D01*
X025348Y006386D01*
X025298Y006381D01*
X025247Y006380D01*
X025197Y006383D01*
X025147Y006390D01*
X025098Y006401D01*
X025050Y006415D01*
X025003Y006433D01*
X024957Y006455D01*
X024913Y006480D01*
X024872Y006509D01*
X024833Y006540D01*
X024796Y006575D01*
X024762Y006612D01*
X024731Y006652D01*
X024703Y006694D01*
X024679Y006738D01*
X024658Y006784D01*
X024641Y006832D01*
X024628Y006880D01*
X024618Y006930D01*
X024612Y006980D01*
X024610Y007030D01*
X024150Y004030D02*
X024180Y004028D01*
X024210Y004023D01*
X024239Y004014D01*
X024266Y004001D01*
X024292Y003986D01*
X024316Y003967D01*
X024337Y003946D01*
X024356Y003922D01*
X024371Y003896D01*
X024384Y003869D01*
X024393Y003840D01*
X024398Y003810D01*
X024400Y003780D01*
X031250Y010630D02*
X031220Y010632D01*
X031190Y010637D01*
X031161Y010646D01*
X031134Y010659D01*
X031108Y010674D01*
X031084Y010693D01*
X031063Y010714D01*
X031044Y010738D01*
X031029Y010764D01*
X031016Y010791D01*
X031007Y010820D01*
X031002Y010850D01*
X031000Y010880D01*
X007850Y034030D02*
X007820Y034032D01*
X007790Y034037D01*
X007761Y034046D01*
X007734Y034059D01*
X007708Y034074D01*
X007684Y034093D01*
X007663Y034114D01*
X007644Y034138D01*
X007629Y034164D01*
X007616Y034191D01*
X007607Y034220D01*
X007602Y034250D01*
X007600Y034280D01*
X006090Y031030D02*
X006092Y031080D01*
X006098Y031130D01*
X006108Y031180D01*
X006121Y031228D01*
X006138Y031276D01*
X006159Y031322D01*
X006183Y031366D01*
X006211Y031408D01*
X006242Y031448D01*
X006276Y031485D01*
X006313Y031520D01*
X006352Y031551D01*
X006393Y031580D01*
X006437Y031605D01*
X006483Y031627D01*
X006530Y031645D01*
X006578Y031659D01*
X006627Y031670D01*
X006677Y031677D01*
X006727Y031680D01*
X006778Y031679D01*
X006828Y031674D01*
X006878Y031665D01*
X006926Y031653D01*
X006974Y031636D01*
X007020Y031616D01*
X007065Y031593D01*
X007108Y031566D01*
X007148Y031536D01*
X007186Y031503D01*
X007221Y031467D01*
X007254Y031428D01*
X007283Y031387D01*
X007309Y031344D01*
X007332Y031299D01*
X007351Y031252D01*
X007366Y031204D01*
X007378Y031155D01*
X007386Y031105D01*
X007390Y031055D01*
X007390Y031005D01*
X007386Y030955D01*
X007378Y030905D01*
X007366Y030856D01*
X007351Y030808D01*
X007332Y030761D01*
X007309Y030716D01*
X007283Y030673D01*
X007254Y030632D01*
X007221Y030593D01*
X007186Y030557D01*
X007148Y030524D01*
X007108Y030494D01*
X007065Y030467D01*
X007020Y030444D01*
X006974Y030424D01*
X006926Y030407D01*
X006878Y030395D01*
X006828Y030386D01*
X006778Y030381D01*
X006727Y030380D01*
X006677Y030383D01*
X006627Y030390D01*
X006578Y030401D01*
X006530Y030415D01*
X006483Y030433D01*
X006437Y030455D01*
X006393Y030480D01*
X006352Y030509D01*
X006313Y030540D01*
X006276Y030575D01*
X006242Y030612D01*
X006211Y030652D01*
X006183Y030694D01*
X006159Y030738D01*
X006138Y030784D01*
X006121Y030832D01*
X006108Y030880D01*
X006098Y030930D01*
X006092Y030980D01*
X006090Y031030D01*
D13*
X014111Y019717D02*
X014425Y019403D01*
X014268Y019403D02*
X014268Y019717D01*
X014425Y019717D02*
X014111Y019403D01*
X014111Y019560D02*
X014425Y019560D01*
X014752Y016165D02*
X014715Y016128D01*
X014715Y015982D01*
X014752Y015945D01*
X014825Y015945D01*
X014862Y015982D01*
X014945Y015945D02*
X015092Y015945D01*
X015019Y015945D02*
X015019Y016165D01*
X014945Y016092D01*
X014862Y016128D02*
X014825Y016165D01*
X014752Y016165D01*
X015175Y016092D02*
X015249Y016165D01*
X015249Y015945D01*
X015322Y015945D02*
X015175Y015945D01*
X017291Y012065D02*
X017255Y012028D01*
X017255Y011882D01*
X017291Y011845D01*
X017365Y011845D01*
X017401Y011882D01*
X017485Y011882D02*
X017522Y011845D01*
X017595Y011845D01*
X017632Y011882D01*
X017632Y012028D01*
X017595Y012065D01*
X017522Y012065D01*
X017485Y012028D01*
X017485Y011992D01*
X017522Y011955D01*
X017632Y011955D01*
X017401Y012028D02*
X017365Y012065D01*
X017291Y012065D01*
X020365Y020445D02*
X020612Y020692D01*
X020612Y020754D01*
X020550Y020815D01*
X020427Y020815D01*
X020365Y020754D01*
X020382Y021045D02*
X020320Y021107D01*
X020320Y021230D01*
X020382Y021292D01*
X020567Y021292D01*
X020689Y021230D02*
X020750Y021292D01*
X020874Y021292D01*
X020936Y021230D01*
X020936Y021045D01*
X021057Y021107D02*
X021119Y021168D01*
X021304Y021168D01*
X021304Y021230D02*
X021304Y021045D01*
X021119Y021045D01*
X021057Y021107D01*
X021119Y021292D02*
X021242Y021292D01*
X021304Y021230D01*
X021425Y021230D02*
X021425Y021107D01*
X021487Y021045D01*
X021672Y021045D01*
X021794Y021045D02*
X021794Y021415D01*
X021855Y021292D02*
X021794Y021230D01*
X021855Y021292D02*
X021979Y021292D01*
X022041Y021230D01*
X022041Y021045D01*
X022224Y021107D02*
X022224Y021354D01*
X022285Y021292D02*
X022162Y021292D01*
X022224Y021107D02*
X022285Y021045D01*
X022268Y020815D02*
X022207Y020754D01*
X022268Y020815D02*
X022392Y020815D01*
X022453Y020754D01*
X022453Y020692D01*
X022207Y020445D01*
X022453Y020445D01*
X022575Y020507D02*
X022822Y020754D01*
X022822Y020507D01*
X022760Y020445D01*
X022637Y020445D01*
X022575Y020507D01*
X022575Y020754D01*
X022637Y020815D01*
X022760Y020815D01*
X022822Y020754D01*
X022943Y020630D02*
X022943Y020507D01*
X023005Y020445D01*
X023128Y020445D01*
X023190Y020507D01*
X023190Y020568D01*
X023128Y020630D01*
X022943Y020630D01*
X023067Y020754D01*
X023190Y020815D01*
X022085Y020754D02*
X021838Y020507D01*
X021900Y020445D01*
X022023Y020445D01*
X022085Y020507D01*
X022085Y020754D01*
X022023Y020815D01*
X021900Y020815D01*
X021838Y020754D01*
X021838Y020507D01*
X021717Y020507D02*
X021717Y020568D01*
X021655Y020630D01*
X021470Y020630D01*
X021470Y020507D01*
X021532Y020445D01*
X021655Y020445D01*
X021717Y020507D01*
X021470Y020630D02*
X021593Y020754D01*
X021717Y020815D01*
X021672Y021292D02*
X021487Y021292D01*
X021425Y021230D01*
X021225Y020815D02*
X021225Y020445D01*
X021102Y020445D02*
X021349Y020445D01*
X021102Y020692D02*
X021225Y020815D01*
X020980Y020754D02*
X020980Y020507D01*
X020918Y020445D01*
X020795Y020445D01*
X020733Y020507D01*
X020980Y020754D01*
X020918Y020815D01*
X020795Y020815D01*
X020733Y020754D01*
X020733Y020507D01*
X020612Y020445D02*
X020365Y020445D01*
X020382Y021045D02*
X020567Y021045D01*
X020689Y021045D02*
X020689Y021415D01*
X020199Y021354D02*
X020137Y021415D01*
X020014Y021415D01*
X019952Y021354D01*
X019952Y021292D01*
X020014Y021230D01*
X020137Y021230D01*
X020199Y021168D01*
X020199Y021107D01*
X020137Y021045D01*
X020014Y021045D01*
X019952Y021107D01*
X019462Y021045D02*
X019277Y021168D01*
X019462Y021292D01*
X019277Y021415D02*
X019277Y021045D01*
X019155Y021168D02*
X018909Y021168D01*
X018909Y021107D02*
X018909Y021230D01*
X018970Y021292D01*
X019094Y021292D01*
X019155Y021230D01*
X019155Y021168D01*
X019094Y021045D02*
X018970Y021045D01*
X018909Y021107D01*
X018787Y021292D02*
X018725Y021292D01*
X018602Y021168D01*
X018480Y021168D02*
X018233Y021168D01*
X018233Y021107D02*
X018233Y021230D01*
X018295Y021292D01*
X018418Y021292D01*
X018480Y021230D01*
X018480Y021168D01*
X018418Y021045D02*
X018295Y021045D01*
X018233Y021107D01*
X018112Y021107D02*
X018112Y021354D01*
X018050Y021415D01*
X017865Y021415D01*
X017865Y021045D01*
X018050Y021045D01*
X018112Y021107D01*
X018602Y021045D02*
X018602Y021292D01*
D14*
X024570Y018191D02*
X024570Y018037D01*
X024646Y017960D01*
X024646Y017807D02*
X024800Y017807D01*
X024877Y017730D01*
X024877Y017500D01*
X025030Y017500D02*
X024570Y017500D01*
X024570Y017730D01*
X024646Y017807D01*
X024877Y017653D02*
X025030Y017807D01*
X025030Y017960D02*
X024723Y018267D01*
X024646Y018267D01*
X024570Y018191D01*
X025030Y018267D02*
X025030Y017960D01*
X009480Y015510D02*
X009403Y015510D01*
X009096Y015817D01*
X009020Y015817D01*
X009020Y015510D01*
X009096Y015357D02*
X009250Y015357D01*
X009327Y015280D01*
X009327Y015050D01*
X009480Y015050D02*
X009020Y015050D01*
X009020Y015280D01*
X009096Y015357D01*
X009327Y015203D02*
X009480Y015357D01*
X006818Y013360D02*
X006512Y013360D01*
X006665Y013360D02*
X006665Y012900D01*
X006358Y012900D02*
X006051Y012900D01*
X006051Y013360D01*
X006358Y013360D01*
X006205Y013130D02*
X006051Y013130D01*
X005898Y013053D02*
X005898Y012977D01*
X005821Y012900D01*
X005668Y012900D01*
X005591Y012977D01*
X005668Y013130D02*
X005821Y013130D01*
X005898Y013053D01*
X005898Y013284D02*
X005821Y013360D01*
X005668Y013360D01*
X005591Y013284D01*
X005591Y013207D01*
X005668Y013130D01*
X005437Y012900D02*
X005130Y012900D01*
X005130Y013360D01*
X005437Y013360D01*
X005284Y013130D02*
X005130Y013130D01*
X004977Y013130D02*
X004900Y013053D01*
X004670Y013053D01*
X004670Y012900D02*
X004670Y013360D01*
X004900Y013360D01*
X004977Y013284D01*
X004977Y013130D01*
X004823Y013053D02*
X004977Y012900D01*
X005270Y016879D02*
X005270Y017109D01*
X005346Y017186D01*
X005500Y017186D01*
X005577Y017109D01*
X005577Y016879D01*
X005730Y016879D02*
X005270Y016879D01*
X005577Y017033D02*
X005730Y017186D01*
X005653Y017340D02*
X005730Y017416D01*
X005730Y017570D01*
X005653Y017647D01*
X005577Y017647D01*
X005500Y017570D01*
X005500Y017340D01*
X005653Y017340D01*
X005500Y017340D02*
X005346Y017493D01*
X005270Y017647D01*
D15*
X003750Y017780D02*
X003750Y017280D01*
X001550Y017280D01*
X001550Y023280D01*
X003750Y023280D01*
X003750Y022780D01*
X003250Y022780D01*
X003250Y017780D01*
X003750Y017780D01*
X003750Y022780D01*
X009125Y025199D02*
X009200Y025124D01*
X009500Y025124D01*
X009575Y025199D01*
X009575Y025349D01*
X009500Y025424D01*
X009575Y025584D02*
X009575Y025884D01*
X009575Y025734D02*
X009125Y025734D01*
X009275Y025584D01*
X009200Y025424D02*
X009125Y025349D01*
X009125Y025199D01*
X009200Y026045D02*
X009125Y026120D01*
X009125Y026270D01*
X009200Y026345D01*
X009500Y026045D01*
X009575Y026120D01*
X009575Y026270D01*
X009500Y026345D01*
X009200Y026345D01*
X009200Y026045D02*
X009500Y026045D01*
X008740Y030305D02*
X008590Y030305D01*
X008515Y030380D01*
X008354Y030305D02*
X008054Y030305D01*
X008204Y030305D02*
X008204Y030755D01*
X008054Y030605D01*
X008515Y030680D02*
X008590Y030755D01*
X008740Y030755D01*
X008815Y030680D01*
X008815Y030605D01*
X008740Y030530D01*
X008815Y030455D01*
X008815Y030380D01*
X008740Y030305D01*
X008740Y030530D02*
X008665Y030530D01*
X008690Y031305D02*
X008615Y031380D01*
X008690Y031305D02*
X008840Y031305D01*
X008915Y031380D01*
X008915Y031530D01*
X008840Y031605D01*
X008765Y031605D01*
X008615Y031530D01*
X008615Y031755D01*
X008915Y031755D01*
X008454Y031680D02*
X008379Y031755D01*
X008229Y031755D01*
X008154Y031680D01*
X008454Y031680D02*
X008454Y031605D01*
X008154Y031305D01*
X008454Y031305D01*
X013175Y018095D02*
X013250Y018095D01*
X013550Y017795D01*
X013625Y017795D01*
X013550Y017634D02*
X013625Y017559D01*
X013625Y017409D01*
X013550Y017334D01*
X013250Y017334D01*
X013175Y017409D01*
X013175Y017559D01*
X013250Y017634D01*
X013175Y017795D02*
X013175Y018095D01*
X008825Y007755D02*
X008825Y007305D01*
X008675Y007305D02*
X008975Y007305D01*
X008675Y007605D02*
X008825Y007755D01*
X008911Y006705D02*
X008685Y006480D01*
X008986Y006480D01*
X008911Y006255D02*
X008911Y006705D01*
X008375Y006705D02*
X008375Y006255D01*
X008225Y006255D02*
X008525Y006255D01*
X008225Y006555D02*
X008375Y006705D01*
X006275Y005808D02*
X005825Y005808D01*
X006050Y005583D01*
X006050Y005883D01*
X006050Y005423D02*
X006200Y005423D01*
X006275Y005348D01*
X006275Y005197D01*
X006200Y005122D01*
X006050Y005122D02*
X005975Y005272D01*
X005975Y005348D01*
X006050Y005423D01*
X005825Y005423D02*
X005825Y005122D01*
X006050Y005122D01*
X006200Y004966D02*
X006200Y004890D01*
X006275Y004890D01*
X006275Y004966D01*
X006200Y004966D01*
X006275Y004966D02*
X006425Y004815D01*
X006275Y004655D02*
X006275Y004355D01*
X005975Y004655D01*
X005900Y004655D01*
X005825Y004580D01*
X005825Y004430D01*
X005900Y004355D01*
X008675Y003655D02*
X008675Y003205D01*
X008975Y003205D02*
X008975Y003655D01*
X008825Y003505D01*
X008675Y003655D01*
X009135Y003580D02*
X009210Y003655D01*
X009361Y003655D01*
X009436Y003580D01*
X009436Y003505D01*
X009135Y003205D01*
X009436Y003205D01*
X009596Y003280D02*
X009671Y003205D01*
X009821Y003205D01*
X009896Y003280D01*
X009896Y003430D01*
X009821Y003505D01*
X009746Y003505D01*
X009596Y003430D01*
X009596Y003655D01*
X009896Y003655D01*
X022975Y006305D02*
X023275Y006605D01*
X023275Y006680D01*
X023200Y006755D01*
X023050Y006755D01*
X022975Y006680D01*
X022975Y006305D02*
X023275Y006305D01*
X023435Y006380D02*
X023510Y006305D01*
X023661Y006305D01*
X023736Y006380D01*
X023736Y006530D01*
X023661Y006605D01*
X023586Y006605D01*
X023435Y006530D01*
X023435Y006755D01*
X023736Y006755D01*
X023761Y007305D02*
X023610Y007305D01*
X023535Y007380D01*
X023375Y007305D02*
X023075Y007305D01*
X023225Y007305D02*
X023225Y007755D01*
X023075Y007605D01*
X023535Y007680D02*
X023610Y007755D01*
X023761Y007755D01*
X023836Y007680D01*
X023836Y007605D01*
X023761Y007530D01*
X023836Y007455D01*
X023836Y007380D01*
X023761Y007305D01*
X023761Y007530D02*
X023686Y007530D01*
X027425Y011705D02*
X027275Y011855D01*
X027725Y011855D01*
X027725Y011705D02*
X027725Y012005D01*
X028325Y011941D02*
X028550Y011715D01*
X028550Y012016D01*
X028775Y011941D02*
X028325Y011941D01*
X028775Y011555D02*
X028775Y011255D01*
X028775Y011405D02*
X028325Y011405D01*
X028475Y011255D01*
X029112Y009305D02*
X029037Y009230D01*
X029112Y009305D02*
X029262Y009305D01*
X029337Y009230D01*
X029337Y009155D01*
X029037Y008855D01*
X029337Y008855D01*
X029497Y008705D02*
X029647Y008855D01*
X029572Y008855D01*
X029572Y008930D01*
X029647Y008930D01*
X029647Y008855D01*
X029804Y008930D02*
X029879Y008855D01*
X030029Y008855D01*
X030104Y008930D01*
X030104Y009080D01*
X030029Y009155D01*
X029954Y009155D01*
X029804Y009080D01*
X029804Y009305D01*
X030104Y009305D01*
X030265Y009080D02*
X030565Y009080D01*
X030490Y008855D02*
X030490Y009305D01*
X030265Y009080D01*
X031375Y011705D02*
X031525Y011855D01*
X031375Y012005D01*
X031825Y012005D01*
X031825Y012165D02*
X031525Y012466D01*
X031450Y012466D01*
X031375Y012391D01*
X031375Y012240D01*
X031450Y012165D01*
X031375Y011705D02*
X031825Y011705D01*
X031825Y012165D02*
X031825Y012466D01*
X031750Y012626D02*
X031825Y012701D01*
X031825Y012851D01*
X031750Y012926D01*
X031600Y012926D01*
X031525Y012851D01*
X031525Y012776D01*
X031600Y012626D01*
X031375Y012626D01*
X031375Y012926D01*
X028725Y026005D02*
X028425Y026305D01*
X028350Y026305D01*
X028275Y026230D01*
X028275Y026080D01*
X028350Y026005D01*
X028725Y026005D02*
X028725Y026305D01*
X028650Y026465D02*
X028725Y026540D01*
X028725Y026691D01*
X028650Y026766D01*
X028500Y026766D01*
X028425Y026691D01*
X028425Y026616D01*
X028500Y026465D01*
X028275Y026465D01*
X028275Y026766D01*
X027725Y026791D02*
X027725Y026640D01*
X027650Y026565D01*
X027725Y026405D02*
X027725Y026105D01*
X027725Y026255D02*
X027275Y026255D01*
X027425Y026105D01*
X027350Y026565D02*
X027275Y026640D01*
X027275Y026791D01*
X027350Y026866D01*
X027425Y026866D01*
X027500Y026791D01*
X027575Y026866D01*
X027650Y026866D01*
X027725Y026791D01*
X027500Y026791D02*
X027500Y026716D01*
X023215Y030305D02*
X022915Y030305D01*
X023065Y030305D02*
X023065Y030755D01*
X022915Y030605D01*
X022904Y031355D02*
X023204Y031355D01*
X023054Y031355D02*
X023054Y031805D01*
X022904Y031655D01*
X023365Y031580D02*
X023665Y031580D01*
X023590Y031355D02*
X023590Y031805D01*
X023365Y031580D01*
X025725Y032142D02*
X025800Y032067D01*
X025725Y032142D02*
X025725Y032292D01*
X025800Y032367D01*
X025875Y032367D01*
X026175Y032067D01*
X026175Y032367D01*
X026325Y032527D02*
X026175Y032677D01*
X026175Y032602D01*
X026100Y032602D01*
X026100Y032677D01*
X026175Y032677D01*
X026100Y032834D02*
X026175Y032909D01*
X026175Y033059D01*
X026100Y033134D01*
X025950Y033134D01*
X025875Y033059D01*
X025875Y032984D01*
X025950Y032834D01*
X025725Y032834D01*
X025725Y033134D01*
X025950Y033295D02*
X025725Y033520D01*
X026175Y033520D01*
X025950Y033595D02*
X025950Y033295D01*
X023215Y034480D02*
X023140Y034405D01*
X022990Y034405D01*
X022915Y034480D01*
X022915Y034630D02*
X023065Y034705D01*
X023140Y034705D01*
X023215Y034630D01*
X023215Y034480D01*
X022915Y034630D02*
X022915Y034855D01*
X023215Y034855D01*
X022754Y034780D02*
X022679Y034855D01*
X022529Y034855D01*
X022454Y034780D01*
X022294Y034855D02*
X022294Y034405D01*
X022454Y034405D02*
X022754Y034705D01*
X022754Y034780D01*
X022754Y034405D02*
X022454Y034405D01*
X022144Y034705D02*
X022294Y034855D01*
X022144Y034705D02*
X021994Y034855D01*
X021994Y034405D01*
D16*
X016000Y035530D03*
X016000Y002530D03*
D17*
X016000Y004180D03*
X016000Y033880D03*
D18*
X016000Y032305D03*
X014910Y032305D03*
X013830Y032305D03*
X012740Y032305D03*
X011650Y032305D03*
X010570Y032305D03*
X009480Y032305D03*
X017090Y032305D03*
X018170Y032305D03*
X019260Y032305D03*
X020350Y032305D03*
X021430Y032305D03*
X022520Y032305D03*
X022520Y005755D03*
X021430Y005755D03*
X020350Y005755D03*
X019260Y005755D03*
X018170Y005755D03*
X017090Y005755D03*
X016000Y005755D03*
X014910Y005755D03*
X013830Y005755D03*
X012740Y005755D03*
X011650Y005755D03*
X010570Y005755D03*
X009480Y005755D03*
D19*
X010020Y005255D03*
X011110Y005255D03*
X012200Y005255D03*
X013280Y005255D03*
X014370Y005255D03*
X015460Y005255D03*
X016540Y005255D03*
X017630Y005255D03*
X018720Y005255D03*
X019800Y005255D03*
X020890Y005255D03*
X021980Y005255D03*
X021980Y032805D03*
X020890Y032805D03*
X019800Y032805D03*
X018720Y032805D03*
X017630Y032805D03*
X016540Y032805D03*
X015460Y032805D03*
X014370Y032805D03*
X013280Y032805D03*
X012200Y032805D03*
X011110Y032805D03*
X010020Y032805D03*
D20*
X032500Y019030D03*
D21*
X030850Y019030D03*
D22*
X029275Y019030D03*
X029275Y020120D03*
X029275Y021200D03*
X029275Y022290D03*
X029275Y023380D03*
X029275Y024460D03*
X029275Y025550D03*
X029275Y017940D03*
X029275Y016860D03*
X029275Y015770D03*
X029275Y014680D03*
X029275Y013600D03*
X029275Y012510D03*
D23*
X029775Y013050D03*
X029775Y014140D03*
X029775Y015230D03*
X029775Y016310D03*
X029775Y017400D03*
X029775Y018490D03*
X029775Y019570D03*
X029775Y020660D03*
X029775Y021750D03*
X029775Y022830D03*
X029775Y023920D03*
X029775Y025010D03*
D24*
X025790Y026380D02*
X023210Y026380D01*
X023210Y027680D01*
X025790Y027680D01*
X025790Y026380D01*
X021650Y025820D02*
X021650Y023240D01*
X020350Y023240D01*
X020350Y025820D01*
X021650Y025820D01*
X017650Y025820D02*
X017650Y023240D01*
X016350Y023240D01*
X016350Y025820D01*
X017650Y025820D01*
X025156Y021075D02*
X025156Y020524D01*
X025314Y020248D02*
X025550Y020012D01*
X025786Y020248D01*
X025314Y020248D01*
X025274Y020012D02*
X025550Y020012D01*
X025826Y020012D01*
X025944Y019736D02*
X025944Y019185D01*
X025156Y019185D01*
X025156Y019736D01*
X025944Y020524D02*
X025944Y021075D01*
X025156Y021075D01*
X013994Y016575D02*
X013994Y016024D01*
X013836Y015748D02*
X013364Y015748D01*
X013600Y015512D01*
X013836Y015748D01*
X013876Y015512D02*
X013600Y015512D01*
X013324Y015512D01*
X013206Y015236D02*
X013206Y014685D01*
X013994Y014685D01*
X013994Y015236D01*
X013206Y016024D02*
X013206Y016575D01*
X013994Y016575D01*
X008632Y017280D02*
X008632Y017780D01*
X008500Y017780D02*
X008500Y017280D01*
X008250Y017030D01*
X006750Y017030D01*
X006500Y017280D01*
X006500Y017780D01*
X006750Y018030D01*
X008250Y018030D01*
X008500Y018280D01*
X008500Y018780D01*
X008250Y019030D01*
X006750Y019030D01*
X006500Y019280D01*
X006500Y019780D01*
X006750Y020030D01*
X008250Y020030D01*
X008500Y019780D01*
X008500Y019280D01*
X008250Y019030D01*
X008250Y018030D02*
X008500Y017780D01*
X007894Y016225D02*
X007106Y016225D01*
X007106Y015674D01*
X007264Y015398D02*
X007500Y015162D01*
X007736Y015398D01*
X007264Y015398D01*
X007224Y015162D02*
X007500Y015162D01*
X007776Y015162D01*
X007894Y014886D02*
X007894Y014335D01*
X007106Y014335D01*
X007106Y014886D01*
X007894Y015674D02*
X007894Y016225D01*
X006750Y018030D02*
X006500Y018280D01*
X006500Y018780D01*
X006750Y019030D01*
X005144Y016225D02*
X004356Y016225D01*
X004356Y015674D01*
X004514Y015398D02*
X004750Y015162D01*
X004986Y015398D01*
X004514Y015398D01*
X004474Y015162D02*
X004750Y015162D01*
X005026Y015162D01*
X005144Y014886D02*
X005144Y014335D01*
X004356Y014335D01*
X004356Y014886D01*
X005144Y015674D02*
X005144Y016225D01*
X003250Y016030D02*
X003250Y015530D01*
X003000Y015280D01*
X003250Y015030D01*
X003250Y014530D01*
X003000Y014280D01*
X003250Y014030D01*
X003250Y013530D01*
X003000Y013280D01*
X003250Y013030D01*
X003250Y012530D01*
X003000Y012280D01*
X003250Y012030D01*
X003250Y011530D01*
X003000Y011280D01*
X003250Y011030D01*
X003250Y010530D01*
X003000Y010280D01*
X002500Y010280D01*
X002250Y010530D01*
X002250Y011030D01*
X002500Y011280D01*
X002250Y011530D01*
X002250Y012030D01*
X002500Y012280D01*
X002250Y012530D01*
X002250Y013030D01*
X002500Y013280D01*
X002250Y013530D01*
X002250Y014030D01*
X002500Y014280D01*
X002250Y014530D01*
X002250Y015030D01*
X002500Y015280D01*
X002250Y015530D01*
X002250Y016030D01*
X002500Y016280D01*
X003000Y016280D01*
X003250Y016030D01*
X005200Y012230D02*
X006005Y012230D01*
X006800Y011880D02*
X006800Y010180D01*
X005993Y009830D02*
X005200Y009830D01*
X004400Y010180D02*
X004400Y011880D01*
X004900Y011030D02*
X004902Y011082D01*
X004908Y011134D01*
X004918Y011186D01*
X004931Y011236D01*
X004948Y011286D01*
X004969Y011334D01*
X004994Y011380D01*
X005022Y011424D01*
X005053Y011466D01*
X005087Y011506D01*
X005124Y011543D01*
X005164Y011577D01*
X005206Y011608D01*
X005250Y011636D01*
X005296Y011661D01*
X005344Y011682D01*
X005394Y011699D01*
X005444Y011712D01*
X005496Y011722D01*
X005548Y011728D01*
X005600Y011730D01*
X005652Y011728D01*
X005704Y011722D01*
X005756Y011712D01*
X005806Y011699D01*
X005856Y011682D01*
X005904Y011661D01*
X005950Y011636D01*
X005994Y011608D01*
X006036Y011577D01*
X006076Y011543D01*
X006113Y011506D01*
X006147Y011466D01*
X006178Y011424D01*
X006206Y011380D01*
X006231Y011334D01*
X006252Y011286D01*
X006269Y011236D01*
X006282Y011186D01*
X006292Y011134D01*
X006298Y011082D01*
X006300Y011030D01*
X006298Y010978D01*
X006292Y010926D01*
X006282Y010874D01*
X006269Y010824D01*
X006252Y010774D01*
X006231Y010726D01*
X006206Y010680D01*
X006178Y010636D01*
X006147Y010594D01*
X006113Y010554D01*
X006076Y010517D01*
X006036Y010483D01*
X005994Y010452D01*
X005950Y010424D01*
X005904Y010399D01*
X005856Y010378D01*
X005806Y010361D01*
X005756Y010348D01*
X005704Y010338D01*
X005652Y010332D01*
X005600Y010330D01*
X005548Y010332D01*
X005496Y010338D01*
X005444Y010348D01*
X005394Y010361D01*
X005344Y010378D01*
X005296Y010399D01*
X005250Y010424D01*
X005206Y010452D01*
X005164Y010483D01*
X005124Y010517D01*
X005087Y010554D01*
X005053Y010594D01*
X005022Y010636D01*
X004994Y010680D01*
X004969Y010726D01*
X004948Y010774D01*
X004931Y010824D01*
X004918Y010874D01*
X004908Y010926D01*
X004902Y010978D01*
X004900Y011030D01*
X005618Y025008D02*
X005894Y025008D01*
X005894Y025835D01*
X005894Y027725D02*
X005894Y028552D01*
X001681Y028552D01*
X001681Y025008D01*
X003768Y025008D01*
D25*
X002630Y027990D02*
X002655Y028015D01*
X002655Y028040D01*
X002630Y028065D01*
X002505Y028065D01*
X002505Y028040D02*
X002505Y028090D01*
X002555Y028138D02*
X002505Y028188D01*
X002655Y028188D01*
X002655Y028138D02*
X002655Y028238D01*
X026105Y020413D02*
X026105Y020363D01*
X026130Y020338D01*
X026130Y020290D02*
X026105Y020265D01*
X026105Y020190D01*
X026255Y020190D01*
X026255Y020265D01*
X026230Y020290D01*
X026130Y020290D01*
X026105Y020413D02*
X026130Y020438D01*
X026155Y020438D01*
X026255Y020338D01*
X026255Y020438D01*
X026255Y020143D02*
X026255Y020043D01*
X026105Y020043D01*
X026105Y020143D01*
X026180Y020093D02*
X026180Y020043D01*
X026255Y019996D02*
X026255Y019896D01*
X026105Y019896D01*
D26*
X012550Y016950D02*
X012300Y016950D01*
X012050Y016950D01*
X012050Y016700D02*
X012300Y016700D01*
X012550Y016700D01*
M02*
