G75*
%MOIN*%
%OFA0B0*%
%FSLAX24Y24*%
%IPPOS*%
%LPD*%
%AMOC8*
5,1,8,0,0,1.08239X$1,22.5*
%
%ADD10R,0.0580X0.0090*%
%ADD11R,0.0090X0.0580*%
%ADD12R,0.0880X0.0480*%
%ADD13R,0.0866X0.1417*%
%ADD14R,0.0480X0.0880*%
%ADD15R,0.1417X0.0866*%
%ADD16R,0.0512X0.0591*%
%ADD17R,0.0591X0.0512*%
D10*
X012925Y019640D03*
X012925Y019798D03*
X012925Y019955D03*
X012925Y020113D03*
X012925Y020270D03*
X012925Y020428D03*
X012925Y020585D03*
X012925Y020743D03*
X012925Y020900D03*
X012925Y021058D03*
X012925Y021215D03*
X012925Y021373D03*
X012925Y021530D03*
X012925Y021687D03*
X012925Y021845D03*
X012925Y022002D03*
X012925Y022160D03*
X012925Y022317D03*
X012925Y022475D03*
X012925Y022632D03*
X012925Y022790D03*
X012925Y022947D03*
X012925Y023105D03*
X012925Y023262D03*
X012925Y023420D03*
X018135Y023420D03*
X018135Y023262D03*
X018135Y023105D03*
X018135Y022947D03*
X018135Y022790D03*
X018135Y022632D03*
X018135Y022475D03*
X018135Y022317D03*
X018135Y022160D03*
X018135Y022002D03*
X018135Y021845D03*
X018135Y021687D03*
X018135Y021530D03*
X018135Y021373D03*
X018135Y021215D03*
X018135Y021058D03*
X018135Y020900D03*
X018135Y020743D03*
X018135Y020585D03*
X018135Y020428D03*
X018135Y020270D03*
X018135Y020113D03*
X018135Y019955D03*
X018135Y019798D03*
X018135Y019640D03*
D11*
X013640Y018925D03*
X013798Y018925D03*
X013955Y018925D03*
X014113Y018925D03*
X014270Y018925D03*
X014428Y018925D03*
X014585Y018925D03*
X014743Y018925D03*
X014900Y018925D03*
X015058Y018925D03*
X015215Y018925D03*
X015373Y018925D03*
X015530Y018925D03*
X015687Y018925D03*
X015845Y018925D03*
X016002Y018925D03*
X016160Y018925D03*
X016317Y018925D03*
X016475Y018925D03*
X016632Y018925D03*
X016790Y018925D03*
X016947Y018925D03*
X017105Y018925D03*
X017262Y018925D03*
X017420Y018925D03*
X017420Y024135D03*
X017262Y024135D03*
X017105Y024135D03*
X016947Y024135D03*
X016790Y024135D03*
X016632Y024135D03*
X016475Y024135D03*
X016317Y024135D03*
X016160Y024135D03*
X016002Y024135D03*
X015845Y024135D03*
X015687Y024135D03*
X015530Y024135D03*
X015373Y024135D03*
X015215Y024135D03*
X015058Y024135D03*
X014900Y024135D03*
X014743Y024135D03*
X014585Y024135D03*
X014428Y024135D03*
X014270Y024135D03*
X014113Y024135D03*
X013955Y024135D03*
X013798Y024135D03*
X013640Y024135D03*
D12*
X021000Y024120D03*
X021000Y025030D03*
X021000Y025940D03*
X024750Y025940D03*
X024750Y025030D03*
X024750Y024120D03*
D13*
X022310Y025030D03*
X018560Y025030D03*
D14*
X025870Y025810D03*
X026780Y025810D03*
X027690Y025810D03*
D15*
X026780Y028250D03*
D16*
X023904Y026780D03*
X023156Y026780D03*
X020904Y026780D03*
X020156Y026780D03*
X018654Y026530D03*
X017906Y026530D03*
X023406Y017530D03*
X024154Y017530D03*
D17*
X025530Y018906D03*
X025530Y019654D03*
X022780Y019654D03*
X022780Y018906D03*
M02*
