G75*
%MOIN*%
%OFA0B0*%
%FSLAX24Y24*%
%IPPOS*%
%LPD*%
%AMOC8*
5,1,8,0,0,1.08239X$1,22.5*
%
%ADD10C,0.0000*%
%ADD11C,0.0050*%
%ADD12C,0.0020*%
%ADD13C,0.0040*%
D10*
X002000Y005030D02*
X002000Y033026D01*
X029870Y033026D01*
X029870Y005030D01*
X002000Y005030D01*
X003120Y006780D02*
X003122Y006830D01*
X003128Y006880D01*
X003138Y006929D01*
X003152Y006977D01*
X003169Y007024D01*
X003190Y007069D01*
X003215Y007113D01*
X003243Y007154D01*
X003275Y007193D01*
X003309Y007230D01*
X003346Y007264D01*
X003386Y007294D01*
X003428Y007321D01*
X003472Y007345D01*
X003518Y007366D01*
X003565Y007382D01*
X003613Y007395D01*
X003663Y007404D01*
X003712Y007409D01*
X003763Y007410D01*
X003813Y007407D01*
X003862Y007400D01*
X003911Y007389D01*
X003959Y007374D01*
X004005Y007356D01*
X004050Y007334D01*
X004093Y007308D01*
X004134Y007279D01*
X004173Y007247D01*
X004209Y007212D01*
X004241Y007174D01*
X004271Y007134D01*
X004298Y007091D01*
X004321Y007047D01*
X004340Y007001D01*
X004356Y006953D01*
X004368Y006904D01*
X004376Y006855D01*
X004380Y006805D01*
X004380Y006755D01*
X004376Y006705D01*
X004368Y006656D01*
X004356Y006607D01*
X004340Y006559D01*
X004321Y006513D01*
X004298Y006469D01*
X004271Y006426D01*
X004241Y006386D01*
X004209Y006348D01*
X004173Y006313D01*
X004134Y006281D01*
X004093Y006252D01*
X004050Y006226D01*
X004005Y006204D01*
X003959Y006186D01*
X003911Y006171D01*
X003862Y006160D01*
X003813Y006153D01*
X003763Y006150D01*
X003712Y006151D01*
X003663Y006156D01*
X003613Y006165D01*
X003565Y006178D01*
X003518Y006194D01*
X003472Y006215D01*
X003428Y006239D01*
X003386Y006266D01*
X003346Y006296D01*
X003309Y006330D01*
X003275Y006367D01*
X003243Y006406D01*
X003215Y006447D01*
X003190Y006491D01*
X003169Y006536D01*
X003152Y006583D01*
X003138Y006631D01*
X003128Y006680D01*
X003122Y006730D01*
X003120Y006780D01*
X006090Y007030D02*
X006092Y007080D01*
X006098Y007130D01*
X006108Y007180D01*
X006121Y007228D01*
X006138Y007276D01*
X006159Y007322D01*
X006183Y007366D01*
X006211Y007408D01*
X006242Y007448D01*
X006276Y007485D01*
X006313Y007520D01*
X006352Y007551D01*
X006393Y007580D01*
X006437Y007605D01*
X006483Y007627D01*
X006530Y007645D01*
X006578Y007659D01*
X006627Y007670D01*
X006677Y007677D01*
X006727Y007680D01*
X006778Y007679D01*
X006828Y007674D01*
X006878Y007665D01*
X006926Y007653D01*
X006974Y007636D01*
X007020Y007616D01*
X007065Y007593D01*
X007108Y007566D01*
X007148Y007536D01*
X007186Y007503D01*
X007221Y007467D01*
X007254Y007428D01*
X007283Y007387D01*
X007309Y007344D01*
X007332Y007299D01*
X007351Y007252D01*
X007366Y007204D01*
X007378Y007155D01*
X007386Y007105D01*
X007390Y007055D01*
X007390Y007005D01*
X007386Y006955D01*
X007378Y006905D01*
X007366Y006856D01*
X007351Y006808D01*
X007332Y006761D01*
X007309Y006716D01*
X007283Y006673D01*
X007254Y006632D01*
X007221Y006593D01*
X007186Y006557D01*
X007148Y006524D01*
X007108Y006494D01*
X007065Y006467D01*
X007020Y006444D01*
X006974Y006424D01*
X006926Y006407D01*
X006878Y006395D01*
X006828Y006386D01*
X006778Y006381D01*
X006727Y006380D01*
X006677Y006383D01*
X006627Y006390D01*
X006578Y006401D01*
X006530Y006415D01*
X006483Y006433D01*
X006437Y006455D01*
X006393Y006480D01*
X006352Y006509D01*
X006313Y006540D01*
X006276Y006575D01*
X006242Y006612D01*
X006211Y006652D01*
X006183Y006694D01*
X006159Y006738D01*
X006138Y006784D01*
X006121Y006832D01*
X006108Y006880D01*
X006098Y006930D01*
X006092Y006980D01*
X006090Y007030D01*
X024610Y007030D02*
X024612Y007080D01*
X024618Y007130D01*
X024628Y007180D01*
X024641Y007228D01*
X024658Y007276D01*
X024679Y007322D01*
X024703Y007366D01*
X024731Y007408D01*
X024762Y007448D01*
X024796Y007485D01*
X024833Y007520D01*
X024872Y007551D01*
X024913Y007580D01*
X024957Y007605D01*
X025003Y007627D01*
X025050Y007645D01*
X025098Y007659D01*
X025147Y007670D01*
X025197Y007677D01*
X025247Y007680D01*
X025298Y007679D01*
X025348Y007674D01*
X025398Y007665D01*
X025446Y007653D01*
X025494Y007636D01*
X025540Y007616D01*
X025585Y007593D01*
X025628Y007566D01*
X025668Y007536D01*
X025706Y007503D01*
X025741Y007467D01*
X025774Y007428D01*
X025803Y007387D01*
X025829Y007344D01*
X025852Y007299D01*
X025871Y007252D01*
X025886Y007204D01*
X025898Y007155D01*
X025906Y007105D01*
X025910Y007055D01*
X025910Y007005D01*
X025906Y006955D01*
X025898Y006905D01*
X025886Y006856D01*
X025871Y006808D01*
X025852Y006761D01*
X025829Y006716D01*
X025803Y006673D01*
X025774Y006632D01*
X025741Y006593D01*
X025706Y006557D01*
X025668Y006524D01*
X025628Y006494D01*
X025585Y006467D01*
X025540Y006444D01*
X025494Y006424D01*
X025446Y006407D01*
X025398Y006395D01*
X025348Y006386D01*
X025298Y006381D01*
X025247Y006380D01*
X025197Y006383D01*
X025147Y006390D01*
X025098Y006401D01*
X025050Y006415D01*
X025003Y006433D01*
X024957Y006455D01*
X024913Y006480D01*
X024872Y006509D01*
X024833Y006540D01*
X024796Y006575D01*
X024762Y006612D01*
X024731Y006652D01*
X024703Y006694D01*
X024679Y006738D01*
X024658Y006784D01*
X024641Y006832D01*
X024628Y006880D01*
X024618Y006930D01*
X024612Y006980D01*
X024610Y007030D01*
X027350Y009770D02*
X027352Y009820D01*
X027358Y009870D01*
X027368Y009920D01*
X027381Y009968D01*
X027398Y010016D01*
X027419Y010062D01*
X027443Y010106D01*
X027471Y010148D01*
X027502Y010188D01*
X027536Y010225D01*
X027573Y010260D01*
X027612Y010291D01*
X027653Y010320D01*
X027697Y010345D01*
X027743Y010367D01*
X027790Y010385D01*
X027838Y010399D01*
X027887Y010410D01*
X027937Y010417D01*
X027987Y010420D01*
X028038Y010419D01*
X028088Y010414D01*
X028138Y010405D01*
X028186Y010393D01*
X028234Y010376D01*
X028280Y010356D01*
X028325Y010333D01*
X028368Y010306D01*
X028408Y010276D01*
X028446Y010243D01*
X028481Y010207D01*
X028514Y010168D01*
X028543Y010127D01*
X028569Y010084D01*
X028592Y010039D01*
X028611Y009992D01*
X028626Y009944D01*
X028638Y009895D01*
X028646Y009845D01*
X028650Y009795D01*
X028650Y009745D01*
X028646Y009695D01*
X028638Y009645D01*
X028626Y009596D01*
X028611Y009548D01*
X028592Y009501D01*
X028569Y009456D01*
X028543Y009413D01*
X028514Y009372D01*
X028481Y009333D01*
X028446Y009297D01*
X028408Y009264D01*
X028368Y009234D01*
X028325Y009207D01*
X028280Y009184D01*
X028234Y009164D01*
X028186Y009147D01*
X028138Y009135D01*
X028088Y009126D01*
X028038Y009121D01*
X027987Y009120D01*
X027937Y009123D01*
X027887Y009130D01*
X027838Y009141D01*
X027790Y009155D01*
X027743Y009173D01*
X027697Y009195D01*
X027653Y009220D01*
X027612Y009249D01*
X027573Y009280D01*
X027536Y009315D01*
X027502Y009352D01*
X027471Y009392D01*
X027443Y009434D01*
X027419Y009478D01*
X027398Y009524D01*
X027381Y009572D01*
X027368Y009620D01*
X027358Y009670D01*
X027352Y009720D01*
X027350Y009770D01*
X027620Y006780D02*
X027622Y006830D01*
X027628Y006880D01*
X027638Y006929D01*
X027652Y006977D01*
X027669Y007024D01*
X027690Y007069D01*
X027715Y007113D01*
X027743Y007154D01*
X027775Y007193D01*
X027809Y007230D01*
X027846Y007264D01*
X027886Y007294D01*
X027928Y007321D01*
X027972Y007345D01*
X028018Y007366D01*
X028065Y007382D01*
X028113Y007395D01*
X028163Y007404D01*
X028212Y007409D01*
X028263Y007410D01*
X028313Y007407D01*
X028362Y007400D01*
X028411Y007389D01*
X028459Y007374D01*
X028505Y007356D01*
X028550Y007334D01*
X028593Y007308D01*
X028634Y007279D01*
X028673Y007247D01*
X028709Y007212D01*
X028741Y007174D01*
X028771Y007134D01*
X028798Y007091D01*
X028821Y007047D01*
X028840Y007001D01*
X028856Y006953D01*
X028868Y006904D01*
X028876Y006855D01*
X028880Y006805D01*
X028880Y006755D01*
X028876Y006705D01*
X028868Y006656D01*
X028856Y006607D01*
X028840Y006559D01*
X028821Y006513D01*
X028798Y006469D01*
X028771Y006426D01*
X028741Y006386D01*
X028709Y006348D01*
X028673Y006313D01*
X028634Y006281D01*
X028593Y006252D01*
X028550Y006226D01*
X028505Y006204D01*
X028459Y006186D01*
X028411Y006171D01*
X028362Y006160D01*
X028313Y006153D01*
X028263Y006150D01*
X028212Y006151D01*
X028163Y006156D01*
X028113Y006165D01*
X028065Y006178D01*
X028018Y006194D01*
X027972Y006215D01*
X027928Y006239D01*
X027886Y006266D01*
X027846Y006296D01*
X027809Y006330D01*
X027775Y006367D01*
X027743Y006406D01*
X027715Y006447D01*
X027690Y006491D01*
X027669Y006536D01*
X027652Y006583D01*
X027638Y006631D01*
X027628Y006680D01*
X027622Y006730D01*
X027620Y006780D01*
X027350Y028290D02*
X027352Y028340D01*
X027358Y028390D01*
X027368Y028440D01*
X027381Y028488D01*
X027398Y028536D01*
X027419Y028582D01*
X027443Y028626D01*
X027471Y028668D01*
X027502Y028708D01*
X027536Y028745D01*
X027573Y028780D01*
X027612Y028811D01*
X027653Y028840D01*
X027697Y028865D01*
X027743Y028887D01*
X027790Y028905D01*
X027838Y028919D01*
X027887Y028930D01*
X027937Y028937D01*
X027987Y028940D01*
X028038Y028939D01*
X028088Y028934D01*
X028138Y028925D01*
X028186Y028913D01*
X028234Y028896D01*
X028280Y028876D01*
X028325Y028853D01*
X028368Y028826D01*
X028408Y028796D01*
X028446Y028763D01*
X028481Y028727D01*
X028514Y028688D01*
X028543Y028647D01*
X028569Y028604D01*
X028592Y028559D01*
X028611Y028512D01*
X028626Y028464D01*
X028638Y028415D01*
X028646Y028365D01*
X028650Y028315D01*
X028650Y028265D01*
X028646Y028215D01*
X028638Y028165D01*
X028626Y028116D01*
X028611Y028068D01*
X028592Y028021D01*
X028569Y027976D01*
X028543Y027933D01*
X028514Y027892D01*
X028481Y027853D01*
X028446Y027817D01*
X028408Y027784D01*
X028368Y027754D01*
X028325Y027727D01*
X028280Y027704D01*
X028234Y027684D01*
X028186Y027667D01*
X028138Y027655D01*
X028088Y027646D01*
X028038Y027641D01*
X027987Y027640D01*
X027937Y027643D01*
X027887Y027650D01*
X027838Y027661D01*
X027790Y027675D01*
X027743Y027693D01*
X027697Y027715D01*
X027653Y027740D01*
X027612Y027769D01*
X027573Y027800D01*
X027536Y027835D01*
X027502Y027872D01*
X027471Y027912D01*
X027443Y027954D01*
X027419Y027998D01*
X027398Y028044D01*
X027381Y028092D01*
X027368Y028140D01*
X027358Y028190D01*
X027352Y028240D01*
X027350Y028290D01*
X024610Y031030D02*
X024612Y031080D01*
X024618Y031130D01*
X024628Y031180D01*
X024641Y031228D01*
X024658Y031276D01*
X024679Y031322D01*
X024703Y031366D01*
X024731Y031408D01*
X024762Y031448D01*
X024796Y031485D01*
X024833Y031520D01*
X024872Y031551D01*
X024913Y031580D01*
X024957Y031605D01*
X025003Y031627D01*
X025050Y031645D01*
X025098Y031659D01*
X025147Y031670D01*
X025197Y031677D01*
X025247Y031680D01*
X025298Y031679D01*
X025348Y031674D01*
X025398Y031665D01*
X025446Y031653D01*
X025494Y031636D01*
X025540Y031616D01*
X025585Y031593D01*
X025628Y031566D01*
X025668Y031536D01*
X025706Y031503D01*
X025741Y031467D01*
X025774Y031428D01*
X025803Y031387D01*
X025829Y031344D01*
X025852Y031299D01*
X025871Y031252D01*
X025886Y031204D01*
X025898Y031155D01*
X025906Y031105D01*
X025910Y031055D01*
X025910Y031005D01*
X025906Y030955D01*
X025898Y030905D01*
X025886Y030856D01*
X025871Y030808D01*
X025852Y030761D01*
X025829Y030716D01*
X025803Y030673D01*
X025774Y030632D01*
X025741Y030593D01*
X025706Y030557D01*
X025668Y030524D01*
X025628Y030494D01*
X025585Y030467D01*
X025540Y030444D01*
X025494Y030424D01*
X025446Y030407D01*
X025398Y030395D01*
X025348Y030386D01*
X025298Y030381D01*
X025247Y030380D01*
X025197Y030383D01*
X025147Y030390D01*
X025098Y030401D01*
X025050Y030415D01*
X025003Y030433D01*
X024957Y030455D01*
X024913Y030480D01*
X024872Y030509D01*
X024833Y030540D01*
X024796Y030575D01*
X024762Y030612D01*
X024731Y030652D01*
X024703Y030694D01*
X024679Y030738D01*
X024658Y030784D01*
X024641Y030832D01*
X024628Y030880D01*
X024618Y030930D01*
X024612Y030980D01*
X024610Y031030D01*
X027620Y031280D02*
X027622Y031330D01*
X027628Y031380D01*
X027638Y031429D01*
X027652Y031477D01*
X027669Y031524D01*
X027690Y031569D01*
X027715Y031613D01*
X027743Y031654D01*
X027775Y031693D01*
X027809Y031730D01*
X027846Y031764D01*
X027886Y031794D01*
X027928Y031821D01*
X027972Y031845D01*
X028018Y031866D01*
X028065Y031882D01*
X028113Y031895D01*
X028163Y031904D01*
X028212Y031909D01*
X028263Y031910D01*
X028313Y031907D01*
X028362Y031900D01*
X028411Y031889D01*
X028459Y031874D01*
X028505Y031856D01*
X028550Y031834D01*
X028593Y031808D01*
X028634Y031779D01*
X028673Y031747D01*
X028709Y031712D01*
X028741Y031674D01*
X028771Y031634D01*
X028798Y031591D01*
X028821Y031547D01*
X028840Y031501D01*
X028856Y031453D01*
X028868Y031404D01*
X028876Y031355D01*
X028880Y031305D01*
X028880Y031255D01*
X028876Y031205D01*
X028868Y031156D01*
X028856Y031107D01*
X028840Y031059D01*
X028821Y031013D01*
X028798Y030969D01*
X028771Y030926D01*
X028741Y030886D01*
X028709Y030848D01*
X028673Y030813D01*
X028634Y030781D01*
X028593Y030752D01*
X028550Y030726D01*
X028505Y030704D01*
X028459Y030686D01*
X028411Y030671D01*
X028362Y030660D01*
X028313Y030653D01*
X028263Y030650D01*
X028212Y030651D01*
X028163Y030656D01*
X028113Y030665D01*
X028065Y030678D01*
X028018Y030694D01*
X027972Y030715D01*
X027928Y030739D01*
X027886Y030766D01*
X027846Y030796D01*
X027809Y030830D01*
X027775Y030867D01*
X027743Y030906D01*
X027715Y030947D01*
X027690Y030991D01*
X027669Y031036D01*
X027652Y031083D01*
X027638Y031131D01*
X027628Y031180D01*
X027622Y031230D01*
X027620Y031280D01*
X006090Y031030D02*
X006092Y031080D01*
X006098Y031130D01*
X006108Y031180D01*
X006121Y031228D01*
X006138Y031276D01*
X006159Y031322D01*
X006183Y031366D01*
X006211Y031408D01*
X006242Y031448D01*
X006276Y031485D01*
X006313Y031520D01*
X006352Y031551D01*
X006393Y031580D01*
X006437Y031605D01*
X006483Y031627D01*
X006530Y031645D01*
X006578Y031659D01*
X006627Y031670D01*
X006677Y031677D01*
X006727Y031680D01*
X006778Y031679D01*
X006828Y031674D01*
X006878Y031665D01*
X006926Y031653D01*
X006974Y031636D01*
X007020Y031616D01*
X007065Y031593D01*
X007108Y031566D01*
X007148Y031536D01*
X007186Y031503D01*
X007221Y031467D01*
X007254Y031428D01*
X007283Y031387D01*
X007309Y031344D01*
X007332Y031299D01*
X007351Y031252D01*
X007366Y031204D01*
X007378Y031155D01*
X007386Y031105D01*
X007390Y031055D01*
X007390Y031005D01*
X007386Y030955D01*
X007378Y030905D01*
X007366Y030856D01*
X007351Y030808D01*
X007332Y030761D01*
X007309Y030716D01*
X007283Y030673D01*
X007254Y030632D01*
X007221Y030593D01*
X007186Y030557D01*
X007148Y030524D01*
X007108Y030494D01*
X007065Y030467D01*
X007020Y030444D01*
X006974Y030424D01*
X006926Y030407D01*
X006878Y030395D01*
X006828Y030386D01*
X006778Y030381D01*
X006727Y030380D01*
X006677Y030383D01*
X006627Y030390D01*
X006578Y030401D01*
X006530Y030415D01*
X006483Y030433D01*
X006437Y030455D01*
X006393Y030480D01*
X006352Y030509D01*
X006313Y030540D01*
X006276Y030575D01*
X006242Y030612D01*
X006211Y030652D01*
X006183Y030694D01*
X006159Y030738D01*
X006138Y030784D01*
X006121Y030832D01*
X006108Y030880D01*
X006098Y030930D01*
X006092Y030980D01*
X006090Y031030D01*
X003120Y031280D02*
X003122Y031330D01*
X003128Y031380D01*
X003138Y031429D01*
X003152Y031477D01*
X003169Y031524D01*
X003190Y031569D01*
X003215Y031613D01*
X003243Y031654D01*
X003275Y031693D01*
X003309Y031730D01*
X003346Y031764D01*
X003386Y031794D01*
X003428Y031821D01*
X003472Y031845D01*
X003518Y031866D01*
X003565Y031882D01*
X003613Y031895D01*
X003663Y031904D01*
X003712Y031909D01*
X003763Y031910D01*
X003813Y031907D01*
X003862Y031900D01*
X003911Y031889D01*
X003959Y031874D01*
X004005Y031856D01*
X004050Y031834D01*
X004093Y031808D01*
X004134Y031779D01*
X004173Y031747D01*
X004209Y031712D01*
X004241Y031674D01*
X004271Y031634D01*
X004298Y031591D01*
X004321Y031547D01*
X004340Y031501D01*
X004356Y031453D01*
X004368Y031404D01*
X004376Y031355D01*
X004380Y031305D01*
X004380Y031255D01*
X004376Y031205D01*
X004368Y031156D01*
X004356Y031107D01*
X004340Y031059D01*
X004321Y031013D01*
X004298Y030969D01*
X004271Y030926D01*
X004241Y030886D01*
X004209Y030848D01*
X004173Y030813D01*
X004134Y030781D01*
X004093Y030752D01*
X004050Y030726D01*
X004005Y030704D01*
X003959Y030686D01*
X003911Y030671D01*
X003862Y030660D01*
X003813Y030653D01*
X003763Y030650D01*
X003712Y030651D01*
X003663Y030656D01*
X003613Y030665D01*
X003565Y030678D01*
X003518Y030694D01*
X003472Y030715D01*
X003428Y030739D01*
X003386Y030766D01*
X003346Y030796D01*
X003309Y030830D01*
X003275Y030867D01*
X003243Y030906D01*
X003215Y030947D01*
X003190Y030991D01*
X003169Y031036D01*
X003152Y031083D01*
X003138Y031131D01*
X003128Y031180D01*
X003122Y031230D01*
X003120Y031280D01*
D11*
X018553Y021189D02*
X018553Y016268D01*
X023671Y016268D01*
X023671Y021386D01*
X018750Y021386D01*
X018553Y021189D01*
D12*
X012040Y022228D02*
X012002Y022190D01*
X011925Y022190D01*
X011887Y022228D01*
X011810Y022228D02*
X011771Y022190D01*
X011695Y022190D01*
X011656Y022228D01*
X011656Y022267D01*
X011695Y022305D01*
X011733Y022305D01*
X011695Y022305D02*
X011656Y022343D01*
X011656Y022382D01*
X011695Y022420D01*
X011771Y022420D01*
X011810Y022382D01*
X011887Y022382D02*
X011925Y022420D01*
X012002Y022420D01*
X012040Y022382D01*
X012040Y022228D01*
D13*
X005230Y022280D02*
X005230Y022050D01*
X004770Y022050D01*
X004923Y022050D02*
X004923Y022280D01*
X005000Y022357D01*
X005154Y022357D01*
X005230Y022280D01*
X005154Y022510D02*
X005230Y022587D01*
X005230Y022741D01*
X005154Y022817D01*
X005077Y022817D01*
X005000Y022741D01*
X004923Y022817D01*
X004847Y022817D01*
X004770Y022741D01*
X004770Y022587D01*
X004847Y022510D01*
X004770Y022357D02*
X004923Y022203D01*
X005000Y022664D02*
X005000Y022741D01*
M02*
