G75*
%MOIN*%
%OFA0B0*%
%FSLAX24Y24*%
%IPPOS*%
%LPD*%
%AMOC8*
5,1,8,0,0,1.08239X$1,22.5*
%
%ADD10C,0.1320*%
%ADD11R,0.0640X0.0150*%
%ADD12R,0.0150X0.0640*%
%ADD13OC8,0.0660*%
%ADD14C,0.1360*%
%ADD15C,0.0800*%
%ADD16R,0.0940X0.0540*%
%ADD17R,0.0926X0.1477*%
%ADD18R,0.0540X0.0940*%
%ADD19R,0.1477X0.0926*%
%ADD20R,0.0572X0.0651*%
%ADD21R,0.0651X0.0572*%
%ADD22OC8,0.0690*%
%ADD23C,0.0690*%
%ADD24R,0.0800X0.0800*%
%ADD25OC8,0.0800*%
%ADD26R,0.0611X0.0532*%
%ADD27C,0.1760*%
%ADD28OC8,0.0540*%
%ADD29R,0.0560X0.0310*%
%ADD30C,0.0330*%
D10*
X003750Y006780D03*
X003750Y031280D03*
X028250Y031280D03*
X028250Y006780D03*
D11*
X014605Y019640D03*
X014605Y019798D03*
X014605Y019955D03*
X014605Y020113D03*
X014605Y020270D03*
X014605Y020428D03*
X014605Y020585D03*
X014605Y020743D03*
X014605Y020900D03*
X014605Y021058D03*
X014605Y021215D03*
X014605Y021373D03*
X014605Y021530D03*
X014605Y021687D03*
X014605Y021845D03*
X014605Y022002D03*
X014605Y022160D03*
X014605Y022317D03*
X014605Y022475D03*
X014605Y022632D03*
X014605Y022790D03*
X014605Y022947D03*
X014605Y023105D03*
X014605Y023262D03*
X014605Y023420D03*
X009395Y023420D03*
X009395Y023262D03*
X009395Y023105D03*
X009395Y022947D03*
X009395Y022790D03*
X009395Y022632D03*
X009395Y022475D03*
X009395Y022317D03*
X009395Y022160D03*
X009395Y022002D03*
X009395Y021845D03*
X009395Y021687D03*
X009395Y021530D03*
X009395Y021373D03*
X009395Y021215D03*
X009395Y021058D03*
X009395Y020900D03*
X009395Y020743D03*
X009395Y020585D03*
X009395Y020428D03*
X009395Y020270D03*
X009395Y020113D03*
X009395Y019955D03*
X009395Y019798D03*
X009395Y019640D03*
D12*
X010110Y018925D03*
X010268Y018925D03*
X010425Y018925D03*
X010583Y018925D03*
X010740Y018925D03*
X010898Y018925D03*
X011055Y018925D03*
X011213Y018925D03*
X011370Y018925D03*
X011528Y018925D03*
X011685Y018925D03*
X011843Y018925D03*
X012000Y018925D03*
X012157Y018925D03*
X012315Y018925D03*
X012472Y018925D03*
X012630Y018925D03*
X012787Y018925D03*
X012945Y018925D03*
X013102Y018925D03*
X013260Y018925D03*
X013417Y018925D03*
X013575Y018925D03*
X013732Y018925D03*
X013890Y018925D03*
X013890Y024135D03*
X013732Y024135D03*
X013575Y024135D03*
X013417Y024135D03*
X013260Y024135D03*
X013102Y024135D03*
X012945Y024135D03*
X012787Y024135D03*
X012630Y024135D03*
X012472Y024135D03*
X012315Y024135D03*
X012157Y024135D03*
X012000Y024135D03*
X011843Y024135D03*
X011685Y024135D03*
X011528Y024135D03*
X011370Y024135D03*
X011213Y024135D03*
X011055Y024135D03*
X010898Y024135D03*
X010740Y024135D03*
X010583Y024135D03*
X010425Y024135D03*
X010268Y024135D03*
X010110Y024135D03*
D13*
X010570Y030530D03*
X011110Y031530D03*
X011650Y030530D03*
X012200Y031530D03*
X012740Y030530D03*
X013280Y031530D03*
X013830Y030530D03*
X014370Y031530D03*
X014910Y030530D03*
X015460Y031530D03*
X016000Y030530D03*
X016540Y031530D03*
X017090Y030530D03*
X017630Y031530D03*
X018170Y030530D03*
X018720Y031530D03*
X019260Y030530D03*
X019800Y031530D03*
X020350Y030530D03*
X020890Y031530D03*
X021430Y030530D03*
X021980Y031530D03*
X022520Y030530D03*
X027500Y025550D03*
X027500Y024460D03*
X027500Y023380D03*
X027500Y022290D03*
X027500Y021200D03*
X027500Y020120D03*
X027500Y019030D03*
X027500Y017940D03*
X027500Y016860D03*
X027500Y015770D03*
X027500Y014680D03*
X027500Y013600D03*
X027500Y012510D03*
X028500Y013050D03*
X028500Y014140D03*
X028500Y015230D03*
X028500Y016310D03*
X028500Y017400D03*
X028500Y018490D03*
X028500Y019570D03*
X028500Y020660D03*
X028500Y021750D03*
X028500Y022830D03*
X028500Y023920D03*
X028500Y025010D03*
X022520Y007530D03*
X021980Y006530D03*
X021430Y007530D03*
X020890Y006530D03*
X020350Y007530D03*
X019800Y006530D03*
X019260Y007530D03*
X018720Y006530D03*
X018170Y007530D03*
X017630Y006530D03*
X017090Y007530D03*
X016540Y006530D03*
X016000Y007530D03*
X015460Y006530D03*
X014910Y007530D03*
X014370Y006530D03*
X013830Y007530D03*
X013280Y006530D03*
X012740Y007530D03*
X012200Y006530D03*
X011650Y007530D03*
X011110Y006530D03*
X010570Y007530D03*
X010020Y006530D03*
X009480Y007530D03*
X009480Y030530D03*
X010020Y031530D03*
D14*
X006740Y031030D03*
X025260Y031030D03*
X028000Y028290D03*
X028000Y009770D03*
X025260Y007030D03*
X006740Y007030D03*
D15*
X006490Y009750D03*
X008000Y009530D03*
X009000Y009530D03*
X010000Y009530D03*
X011000Y009530D03*
X012000Y009530D03*
X013000Y009530D03*
X014000Y009530D03*
X015000Y009530D03*
X016500Y009530D03*
X017500Y009530D03*
X018500Y009530D03*
X019500Y009530D03*
X020500Y009530D03*
X021500Y009530D03*
X022500Y009530D03*
X023500Y009530D03*
X024500Y009530D03*
X025500Y009530D03*
X022000Y028530D03*
X021000Y028530D03*
X020000Y028530D03*
X019000Y028530D03*
X018000Y028530D03*
X017000Y028530D03*
X016000Y028530D03*
X015000Y028530D03*
X013000Y028530D03*
X012000Y028530D03*
X011000Y028530D03*
X010000Y028530D03*
X009000Y028530D03*
X008000Y028530D03*
X002750Y022780D03*
X002750Y021780D03*
X002750Y020780D03*
X002750Y019780D03*
X002750Y018780D03*
X002750Y015780D03*
X002750Y014780D03*
X002750Y013780D03*
X002750Y012780D03*
X002750Y011780D03*
X002750Y010780D03*
X004710Y009750D03*
X004710Y012310D03*
X006490Y012310D03*
D16*
X018220Y023620D03*
X018220Y024530D03*
X018220Y025440D03*
X022220Y025440D03*
X022220Y024530D03*
X022220Y023620D03*
D17*
X019780Y024530D03*
X015780Y024530D03*
D18*
X023590Y025810D03*
X024500Y025810D03*
X025410Y025810D03*
D19*
X024500Y028250D03*
D20*
X020874Y026530D03*
X020126Y026530D03*
X017874Y026530D03*
X017126Y026530D03*
X015624Y026530D03*
X014876Y026530D03*
X020176Y019880D03*
X020924Y019880D03*
X021376Y017780D03*
X022124Y017780D03*
D21*
X020050Y017956D03*
X020050Y018704D03*
X025550Y018104D03*
X025550Y017356D03*
X014650Y015904D03*
X014650Y015156D03*
X008500Y015156D03*
X008500Y015904D03*
X004750Y017156D03*
X004750Y017904D03*
D22*
X007750Y025530D03*
X016750Y015280D03*
X015750Y012780D03*
D23*
X016750Y012780D03*
X015750Y015280D03*
X007750Y026530D03*
D24*
X002750Y017780D03*
D25*
X007000Y017530D03*
X007000Y018530D03*
X007000Y019530D03*
X008000Y019530D03*
X008000Y018530D03*
X008000Y017530D03*
X021300Y013430D03*
X021300Y012430D03*
X022300Y012430D03*
X022300Y013430D03*
X023300Y013430D03*
X024300Y013430D03*
X024300Y012430D03*
X023300Y012430D03*
X025300Y012430D03*
X025300Y013430D03*
D26*
X025550Y019539D03*
X025550Y020721D03*
X013600Y016221D03*
X013600Y015039D03*
X007500Y014689D03*
X007500Y015871D03*
X004750Y015871D03*
X004750Y014689D03*
D27*
X004713Y024930D03*
X005894Y026780D03*
X003531Y026780D03*
D28*
X012300Y017830D03*
X012300Y015830D03*
D29*
X022300Y015892D03*
X022300Y015568D03*
X024800Y015192D03*
X024800Y014868D03*
D30*
X023800Y015030D03*
X023300Y015030D03*
X022800Y014630D03*
X023800Y012930D03*
X022800Y011930D03*
X021500Y011030D03*
X020050Y011393D03*
X019588Y010930D03*
X019100Y010430D03*
X018600Y010930D03*
X019100Y011430D03*
X019700Y012030D03*
X020100Y010430D03*
X018100Y010430D03*
X015500Y010293D03*
X014500Y010230D03*
X013500Y010230D03*
X012500Y010230D03*
X011500Y010168D03*
X013000Y012030D03*
X010800Y015980D03*
X009850Y016930D03*
X009700Y018080D03*
X010150Y018080D03*
X010650Y018380D03*
X009500Y019030D03*
X009150Y018030D03*
X007000Y016530D03*
X005000Y018780D03*
X004200Y018430D03*
X007500Y021030D03*
X007500Y022530D03*
X008000Y024030D03*
X010500Y025030D03*
X011200Y025230D03*
X012000Y025030D03*
X012300Y025930D03*
X012100Y027130D03*
X012600Y027530D03*
X014400Y026530D03*
X014200Y025630D03*
X014000Y025330D03*
X013800Y025030D03*
X014200Y025030D03*
X013800Y025630D03*
X014000Y023330D03*
X014000Y022780D03*
X014000Y021530D03*
X013300Y020230D03*
X013300Y019530D03*
X012800Y019530D03*
X012300Y019530D03*
X012400Y018330D03*
X011800Y017930D03*
X013200Y016930D03*
X014100Y017030D03*
X016038Y017080D03*
X016300Y017330D03*
X016050Y017580D03*
X016300Y017830D03*
X016050Y018080D03*
X016300Y018330D03*
X016050Y018580D03*
X016300Y018830D03*
X016050Y019530D03*
X016300Y019830D03*
X016050Y020080D03*
X016300Y020380D03*
X016050Y020630D03*
X016300Y020930D03*
X016050Y021230D03*
X016250Y021530D03*
X015550Y021980D03*
X015900Y023030D03*
X016900Y022430D03*
X017100Y022130D03*
X017300Y022430D03*
X017500Y022130D03*
X017700Y022430D03*
X017500Y022730D03*
X017100Y022730D03*
X017400Y024530D03*
X018900Y023380D03*
X019000Y024530D03*
X020363Y027168D03*
X021688Y027468D03*
X020400Y029030D03*
X018500Y027630D03*
X017500Y027730D03*
X016500Y027930D03*
X015500Y027930D03*
X011500Y023630D03*
X011050Y023480D03*
X011500Y022530D03*
X010450Y021680D03*
X011500Y021030D03*
X012700Y023505D03*
X014900Y018880D03*
X016400Y016330D03*
X018250Y015930D03*
X019150Y016430D03*
X019138Y016893D03*
X020000Y017280D03*
X020550Y016430D03*
X022500Y016880D03*
X023063Y016968D03*
X023500Y016830D03*
X022700Y017780D03*
X023500Y018630D03*
X022500Y020030D03*
X021500Y019030D03*
X022100Y021180D03*
X023100Y021180D03*
X024050Y021730D03*
X024800Y023130D03*
X024900Y023530D03*
X024800Y023930D03*
X025200Y023830D03*
X025600Y023930D03*
X025500Y023530D03*
X025600Y023130D03*
X025200Y023230D03*
X025500Y029030D03*
X027000Y030030D03*
X023500Y029030D03*
X019700Y020680D03*
X019150Y020730D03*
X018750Y020730D03*
X019500Y019530D03*
X018750Y018630D03*
X008500Y010780D03*
X007250Y009630D03*
X005600Y009030D03*
X005300Y008730D03*
X005000Y009030D03*
X005000Y008430D03*
X005600Y008430D03*
X004750Y013793D03*
X007500Y014030D03*
X005100Y029130D03*
X004800Y029430D03*
X005100Y029730D03*
X005400Y029430D03*
X009700Y029530D03*
X010100Y029530D03*
X010500Y029530D03*
M02*
