%
M48
M72
T01C0.0130
T02C0.0320
T03C0.0400
T04C0.1180
T05C0.1260
T06C0.1300
%
T01
X5000Y8430
X5300Y8730
X5000Y9030
X5600Y9030
X5600Y8430
X7250Y9630
X8500Y10780
X7500Y14030
X7000Y16530
X9150Y18030
X9700Y18080
X10150Y18080
X10650Y18380
X9500Y19030
X9850Y16930
X10800Y15980
X11800Y17930
X12400Y18330
X12300Y19530
X12800Y19530
X13300Y19530
X13300Y20230
X14000Y21530
X14000Y22780
X14000Y23330
X12700Y23505
X11500Y23630
X11050Y23480
X11500Y22530
X10450Y21680
X11500Y21030
X14900Y18880
X16050Y18580
X16300Y18830
X16300Y18330
X16050Y18080
X16300Y17830
X16050Y17580
X16300Y17330
X16038Y17080
X16400Y16330
X18250Y15930
X19150Y16430
X19138Y16893
X20000Y17280
X20550Y16430
X22500Y16880
X23063Y16968
X23500Y16830
X22700Y17780
X23500Y18630
X22500Y20030
X21500Y19030
X22100Y21180
X23100Y21180
X24050Y21730
X24800Y23130
X24900Y23530
X24800Y23930
X25200Y23830
X25600Y23930
X25500Y23530
X25600Y23130
X25200Y23230
X21688Y27468
X20363Y27168
X20400Y29030
X18500Y27630
X17500Y27730
X16500Y27930
X15500Y27930
X14400Y26530
X14200Y25630
X14000Y25330
X13800Y25030
X14200Y25030
X13800Y25630
X12300Y25930
X12000Y25030
X11200Y25230
X10500Y25030
X12100Y27130
X12600Y27530
X10500Y29530
X10100Y29530
X9700Y29530
X5400Y29430
X5100Y29130
X4800Y29430
X5100Y29730
X8000Y24030
X7500Y22530
X7500Y21030
X5000Y18780
X4200Y18430
X4750Y13793
X11500Y10168
X12500Y10230
X13500Y10230
X14500Y10230
X15500Y10293
X18100Y10430
X18600Y10930
X19100Y10430
X19588Y10930
X20050Y11393
X19700Y12030
X19100Y11430
X20100Y10430
X21500Y11030
X22800Y11930
X23800Y12930
X22800Y14630
X23300Y15030
X23800Y15030
X19500Y19530
X19700Y20680
X19150Y20730
X18750Y20730
X17500Y22130
X17300Y22430
X17100Y22730
X16900Y22430
X17100Y22130
X17500Y22730
X17700Y22430
X18900Y23380
X19000Y24530
X17400Y24530
X15900Y23030
X15550Y21980
X16250Y21530
X16050Y21230
X16300Y20930
X16050Y20630
X16300Y20380
X16050Y20080
X16300Y19830
X16050Y19530
X14100Y17030
X13200Y16930
X13000Y12030
X18750Y18630
X23500Y29030
X25500Y29030
X27000Y30030
T02
X16750Y15280
X15750Y15280
X15750Y12780
X16750Y12780
X12300Y15830
X12300Y17830
X7750Y25530
X7750Y26530
T03
X8000Y28530
X9000Y28530
X10000Y28530
X11000Y28530
X12000Y28530
X13000Y28530
X15000Y28530
X16000Y28530
X17000Y28530
X18000Y28530
X19000Y28530
X20000Y28530
X21000Y28530
X22000Y28530
X22520Y30530
X21980Y31530
X21430Y30530
X20890Y31530
X20350Y30530
X19800Y31530
X19260Y30530
X18720Y31530
X18170Y30530
X17630Y31530
X17090Y30530
X16540Y31530
X16000Y30530
X15460Y31530
X14910Y30530
X14370Y31530
X13830Y30530
X13280Y31530
X12740Y30530
X12200Y31530
X11650Y30530
X11110Y31530
X10570Y30530
X10020Y31530
X9480Y30530
X2750Y22780
X2750Y21780
X2750Y20780
X2750Y19780
X2750Y18780
X2750Y17780
X2750Y15780
X2750Y14780
X2750Y13780
X2750Y12780
X2750Y11780
X2750Y10780
X4710Y9750
X6490Y9750
X8000Y9530
X9000Y9530
X10000Y9530
X11000Y9530
X12000Y9530
X13000Y9530
X14000Y9530
X15000Y9530
X16500Y9530
X17500Y9530
X18500Y9530
X19500Y9530
X20500Y9530
X21500Y9530
X22500Y9530
X23500Y9530
X24500Y9530
X25500Y9530
X25300Y12430
X25300Y13430
X24300Y13430
X23300Y13430
X23300Y12430
X24300Y12430
X22300Y12430
X22300Y13430
X21300Y13430
X21300Y12430
X21430Y7530
X20890Y6530
X20350Y7530
X19800Y6530
X19260Y7530
X18720Y6530
X18170Y7530
X17630Y6530
X17090Y7530
X16540Y6530
X16000Y7530
X15460Y6530
X14910Y7530
X14370Y6530
X13830Y7530
X13280Y6530
X12740Y7530
X12200Y6530
X11650Y7530
X11110Y6530
X10570Y7530
X10020Y6530
X9480Y7530
X6490Y12310
X4710Y12310
X7000Y17530
X7000Y18530
X7000Y19530
X8000Y19530
X8000Y18530
X8000Y17530
X21980Y6530
X22520Y7530
X27500Y12510
X27500Y13600
X27500Y14680
X27500Y15770
X27500Y16860
X27500Y17940
X27500Y19030
X27500Y20120
X27500Y21200
X27500Y22290
X27500Y23380
X27500Y24460
X27500Y25550
X28500Y25010
X28500Y23920
X28500Y22830
X28500Y21750
X28500Y20660
X28500Y19570
X28500Y18490
X28500Y17400
X28500Y16310
X28500Y15230
X28500Y14140
X28500Y13050
T04
X5894Y26780
X4713Y24930
X3531Y26780
T05
X3750Y6780
X3750Y31280
X28250Y31280
X28250Y6780
T06
X28000Y9770
X25260Y7030
X6740Y7030
X28000Y28290
X25260Y31030
X6740Y31030
M30
